<?xml version="1.0" encoding="utf-8"?>
<!-- Generator: Adobe Illustrator 26.0.1, SVG Export Plug-In . SVG Version: 6.00 Build 0)  -->
<svg version="1.1" id="Calque_1" xmlns="http://www.w3.org/2000/svg" x="0px" y="0px"
     viewBox="0 0 255.1 191.4" style="enable-background:new 0 0 255.1 191.4;" xml:space="preserve">
<style type="text/css">
	.st0{fill:#1D3D91;}
	.st1{fill:#4887C7;}
	.st2{fill:#7AB2E1;}
</style>
<g>
	<g>
		<g>
			<path class="st0" d="M4.3,111.5c-0.4,0-0.9,0.1-1.3,0.3c-0.4,0.1-0.8,0.4-1,0.8c-0.3,0.3-0.5,0.6-0.8,1c-0.1,0.4-0.3,0.8-0.3,1.3
				v19.4c0,0.9,0.4,1.7,0.9,2.3c0.5,0.6,1.4,1,2.3,1c0.9,0,1.7-0.4,2.3-1c0.6-0.6,0.9-1.4,0.9-2.3v-19.4c0-0.9-0.4-1.7-0.9-2.3
				C6,111.8,5.2,111.5,4.3,111.5L4.3,111.5z"/>
			<path class="st0" d="M4.3,98.4c-1.1,0-2.2,0.5-3.1,1.3c-0.8,0.8-1.3,1.9-1.3,3.1c0,1.1,0.5,2.2,1.3,3.1c0.8,0.8,1.9,1.3,3.1,1.3
				s2.2-0.5,3.1-1.3c0.8-0.8,1.3-1.9,1.3-3.1c0-1.1-0.5-2.2-1.3-3.1C6.5,98.9,5.5,98.4,4.3,98.4L4.3,98.4z"/>
			<path class="st0" d="M55.2,134.1v-12.6c0-7.3-4.2-11-9.6-11c-4.3,0-6.9,1.9-8.7,4.2c-0.8-1.3-2-2.4-3.3-3.2
				c-1.4-0.8-2.9-1.1-4.5-1c-1.3,0-2.7,0.3-3.8,0.8c-1.3,0.5-2.3,1.3-3.3,2.2c0-0.5-0.3-1-0.5-1.4c-0.4-0.4-0.9-0.5-1.4-0.5h-2.7
				c-0.5,0-1,0.3-1.4,0.5c-0.4,0.4-0.5,0.9-0.5,1.4v20.6c0,0.9,0.4,1.7,0.9,2.3c0.6,0.6,1.4,1,2.3,1s1.7-0.4,2.3-1
				c0.6-0.6,0.9-1.4,0.9-2.3v-13.6c1-1.7,2.5-3.8,5.5-3.8s4.6,1.9,4.6,5.1v12.4c0,0.9,0.4,1.7,1,2.3c0.6,0.6,1.4,1,2.3,1
				c0.9,0,1.7-0.4,2.3-1c0.6-0.6,1-1.4,1-2.3v-12.6c0-0.4,0-0.8,0-1.1c1-1.8,2.5-3.7,5.4-3.7c2.9,0,4.6,1.9,4.6,5.1v12.4
				c0,0.9,0.4,1.7,1,2.3c0.6,0.6,1.4,1,2.3,1c0.9,0,1.7-0.4,2.3-1C54.8,135.8,55.2,135,55.2,134.1L55.2,134.1z"/>
			<path class="st0" d="M92.8,110.5c-4.3,0-6.9,1.9-8.7,4.2c-0.8-1.3-2-2.4-3.3-3.2c-1.4-0.8-2.9-1.1-4.5-1c-1.3,0-2.7,0.3-3.8,0.8
				c-1.3,0.5-2.3,1.3-3.3,2.2c0-0.5-0.3-1-0.5-1.4c-0.4-0.4-0.9-0.5-1.4-0.5h-2.7c-0.5,0-1,0.3-1.4,0.5c-0.4,0.4-0.5,0.9-0.5,1.4
				v20.6c0,0.9,0.4,1.7,0.9,2.3c0.5,0.6,1.4,1,2.3,1c0.9,0,1.7-0.4,2.3-1c0.6-0.6,0.9-1.4,0.9-2.3v-13.6c1-1.7,2.5-3.8,5.5-3.8
				s4.6,1.9,4.6,5.1v12.4c0,0.9,0.4,1.7,1,2.3c0.6,0.6,1.4,1,2.3,1c0.9,0,1.7-0.4,2.3-1c0.6-0.6,1-1.4,1-2.3v-12.6
				c0-0.4,0-0.8,0-1.1c1-1.8,2.5-3.7,5.4-3.7c2.9,0,4.6,1.9,4.6,5.1v12.4c0,0.9,0.4,1.7,1,2.3c0.6,0.6,1.4,1,2.3,1
				c0.9,0,1.7-0.4,2.3-1c0.6-0.6,1-1.4,1-2.3v-12.6C102.3,114.2,98.1,110.5,92.8,110.5z"/>
			<path class="st0" d="M121.3,110.5c-8.5,0-13.3,6.4-13.3,14c0,7.5,5.2,14,14.4,14c3.1,0,6-0.9,8.5-2.5c0.4-0.3,0.6-0.6,0.9-1
				c0.3-0.4,0.4-0.9,0.4-1.3c0-0.5-0.1-0.9-0.3-1.4c-0.3-0.4-0.5-0.8-0.9-1c-0.5-0.4-1.1-0.6-1.8-0.6s-1.3,0.1-1.8,0.5
				c-1.5,1-3.3,1.7-5.1,1.5c-4.1,0-7-1.9-7.6-6.8h18.1c0.3-1.1,0.4-2.4,0.4-3.7C133.2,115.3,128.5,110.5,121.3,110.5z M114.8,121.1
				c0.8-3.4,2.9-5.2,6.2-5.2c0.8,0,1.4,0.1,2.2,0.3c0.6,0.3,1.3,0.6,1.8,1.1c0.5,0.5,0.9,1,1.3,1.8c0.3,0.6,0.5,1.4,0.5,2H114.8z"/>
			<path class="st0" d="M152.8,117.4c0.3,0,0.6,0,0.9-0.1c0.3-0.1,0.5-0.3,0.8-0.5c0.3-0.3,0.4-0.5,0.5-0.8c0.1-0.3,0.1-0.6,0.1-0.9
				v-1.9c0-0.6-0.3-1.1-0.6-1.7c-0.4-0.4-1-0.6-1.5-0.6l0,0c-1.3,0-2.5,0.3-3.7,0.8c-1.1,0.5-2.2,1.3-3.1,2.3c0-0.6-0.3-1.3-0.8-1.8
				c-0.5-0.5-1.1-0.8-1.8-0.8h-1.4c-0.6,0-1.3,0.3-1.8,0.8s-0.8,1.1-0.8,1.8v20c0,0.9,0.4,1.7,0.9,2.3c0.6,0.6,1.4,1,2.3,1
				s1.7-0.4,2.3-1s1-1.4,1-2.3v-13.1c0.6-1,1.5-1.9,2.7-2.5c1.1-0.6,2.3-0.9,3.6-0.9H152.8z"/>
			<path class="st0" d="M177.9,130c0-8.9-12.4-7.4-12.4-11.9c0-1.3,1-2.4,3.1-2.4c1.3,0,2.4,0.5,3.4,1.3c0.5,0.4,1.1,0.6,1.8,0.6
				c0.6,0,1.3-0.3,1.8-0.8l0,0c0.4-0.3,0.6-0.6,0.8-1c0.1-0.4,0.3-0.9,0.3-1.3c0-0.4-0.1-0.9-0.4-1.3c-0.3-0.4-0.5-0.6-0.9-0.9
				c-2-1.3-4.3-2-6.8-2c-5.4,0-9.3,3.4-9.3,8c0,9,12.4,7.4,12.4,12c0,1.5-1,2.8-3.2,2.8c-1.5,0-3.1-0.6-4.2-1.7
				c-0.5-0.5-1.1-0.6-1.8-0.6c-0.6,0-1.3,0.3-1.8,0.6l-0.1,0.1c-0.3,0.3-0.5,0.6-0.6,1c-0.1,0.4-0.3,0.8-0.3,1.1
				c0,0.4,0.1,0.8,0.3,1.1c0.1,0.4,0.5,0.6,0.8,0.9c2.3,1.7,5.1,2.5,8,2.5C173.4,138.4,177.8,135.5,177.9,130z"/>
			<path class="st0" d="M187.2,137.4c0.9,0,1.7-0.4,2.3-1c0.6-0.6,1-1.4,1-2.3v-19.4c0-0.9-0.4-1.7-1-2.3c-0.6-0.6-1.4-0.9-2.3-0.9
				s-1.7,0.4-2.3,0.9c-0.6,0.6-1,1.4-1,2.3v19.4c0,0.9,0.4,1.7,1,2.3C185.4,137,186.3,137.4,187.2,137.4z"/>
			<path class="st0" d="M187.2,106.9c1.1,0,2.2-0.5,3.1-1.3c0.8-0.8,1.3-1.9,1.3-3.1s-0.5-2.2-1.3-3.1c-0.8-0.8-1.9-1.3-3.1-1.3
				s-2.2,0.5-3.1,1.3c-0.8,0.8-1.3,1.9-1.3,3.1s0.5,2.2,1.3,3.1C184.9,106.5,186.1,106.9,187.2,106.9L187.2,106.9z"/>
			<path class="st0" d="M224.8,124.4c0-7.8-5.7-14-14.1-14c-8.4,0-14.1,6.2-14.1,14s5.7,14,14.1,14
				C218.9,138.4,224.8,132.1,224.8,124.4z M203.1,124.4c0-4.5,3.2-7.8,7.5-7.8c4.2,0,7.3,3.3,7.3,7.8c0,4.5-3.2,7.8-7.3,7.8
				C206.3,132.3,203.1,129,203.1,124.4L203.1,124.4z"/>
			<path class="st0" d="M244.9,110.5c-1.4,0-2.8,0.3-4.1,0.8c-1.3,0.5-2.5,1.3-3.6,2.3c0-0.5-0.3-1-0.6-1.4
				c-0.4-0.4-0.9-0.6-1.4-0.6h-2.4c-0.5,0-1,0.3-1.4,0.6s-0.6,0.9-0.6,1.4v20.5c0,0.9,0.4,1.7,1,2.3c0.6,0.6,1.4,1,2.3,1
				s1.7-0.4,2.3-1s1-1.4,1-2.3v-13.6c1-1.7,2.7-3.8,6-3.8c3.2,0,5.1,2.2,5.1,5.6v11.9c0,0.9,0.4,1.7,1,2.3s1.4,1,2.3,1
				c0.9,0,1.7-0.4,2.3-1c0.6-0.6,1-1.4,1-2.3V122C255,114.3,250.4,110.5,244.9,110.5z"/>
			<path class="st1" d="M46.4,151.6c-0.8-0.1-1.7-0.3-2.4-0.3c-6.5,0-10.1,4.5-10.1,9.9v2.7H32c-0.8,0-1.5,0.3-2,0.9
				c-0.5,0.5-0.9,1.3-0.9,2c0,0.8,0.3,1.5,0.9,2c0.5,0.5,1.3,0.9,2,0.9h1.9v16.7c0,0.9,0.4,1.7,1,2.3c0.6,0.6,1.4,1,2.3,1
				c0.9,0,1.7-0.4,2.3-1c0.6-0.6,1-1.4,1-2.3v-16.7h5c0.8,0,1.5-0.3,2-0.9c0.5-0.5,0.9-1.3,0.9-2c0-0.8-0.3-1.5-0.9-2
				c-0.5-0.5-1.3-0.9-2-0.9h-5v-2.9c0-2.4,1.4-4,3.7-4c0.4,0,0.8,0,1.1,0.1c0.6,0.1,1.3,0,1.9-0.3c0.6-0.3,1-0.8,1.4-1.3
				c0.3-0.4,0.4-0.9,0.4-1.3c0-0.5-0.1-0.9-0.3-1.3c-0.3-0.4-0.5-0.8-0.9-1C47.3,152,46.9,151.8,46.4,151.6z"/>
			<path class="st1" d="M61.5,163.1c-2.9-0.1-5.9,0.8-8.4,2.5c-0.4,0.3-0.6,0.6-0.8,1c-0.3,0.4-0.3,0.8-0.3,1.3s0.1,0.9,0.3,1.3
				c0.3,0.4,0.5,0.8,0.8,1l0.3,0.1c0.5,0.4,1.1,0.6,1.8,0.5c0.6,0,1.3-0.3,1.8-0.6c1.3-1,2.8-1.5,4.3-1.4c2.9,0,5.1,1.8,5.1,4.5v0.6
				l-7.9,1.4c-5.6,0.9-8.5,3.8-8.5,7.8c0,4.8,3.6,7.8,8.8,7.8c3.1,0,6.1-1.3,7.8-3.3c0,0.4,0.1,0.6,0.3,1c0.1,0.3,0.3,0.6,0.5,0.8
				c0.3,0.3,0.5,0.4,0.8,0.5c0.3,0.1,0.6,0.1,1,0.1h1.5c0.6,0,1.3-0.3,1.8-0.8c0.5-0.5,0.8-1.1,0.8-1.8v-14.3
				C72.9,167.6,69.1,163.1,61.5,163.1z M66.4,182.1c-0.6,1.1-1.7,2-2.8,2.5c-1.1,0.6-2.4,0.9-3.7,0.9c-2.2,0-3.6-1.1-3.6-2.9
				c0-1.5,1.1-2.7,3.8-3.2l6.1-1L66.4,182.1L66.4,182.1z"/>
			<path class="st1" d="M100.8,183.6c-0.5-0.4-1.1-0.6-1.9-0.6c-0.6,0-1.3,0.1-1.9,0.6c-1.3,0.9-2.8,1.4-4.3,1.4
				c-4.3,0-7.5-3.2-7.5-7.8s3.2-7.8,7.4-7.8c1.5,0,3.2,0.5,4.5,1.4c0.5,0.4,1.1,0.6,1.9,0.6c0.6,0,1.3-0.3,1.8-0.6
				c0.4-0.3,0.8-0.6,0.9-1.1c0.3-0.5,0.4-0.9,0.3-1.4c0-0.5-0.1-1-0.4-1.4c-0.3-0.4-0.5-0.8-1-1.1c-2.3-1.5-5.1-2.4-7.9-2.4
				c-8.9,0-14.3,6.4-14.3,14c0,7.5,5.4,14,14.3,14c2.8,0,5.6-0.8,7.9-2.4c0.4-0.3,0.8-0.6,1-1.1c0.3-0.4,0.4-0.9,0.4-1.4
				c0-0.5-0.1-1-0.3-1.4C101.6,184.3,101.2,183.9,100.8,183.6L100.8,183.6z"/>
			<path class="st1" d="M111.9,151.1c-0.9,0-1.7,0.3-2.4,0.6c-0.8,0.5-1.3,1.1-1.5,1.9c-0.4,0.8-0.4,1.7-0.3,2.4s0.5,1.7,1.1,2.2
				c0.6,0.6,1.4,1,2.2,1.1c0.9,0.1,1.7,0.1,2.4-0.3s1.4-0.9,1.9-1.5c0.5-0.8,0.8-1.5,0.8-2.4c0-1.1-0.5-2.2-1.3-2.9
				C114.1,151.5,113,151.1,111.9,151.1z"/>
			<path class="st1" d="M111.9,164.1c-0.9,0-1.7,0.4-2.3,1c-0.6,0.6-0.9,1.4-0.9,2.3v19.4c0,0.9,0.4,1.7,0.9,2.3
				c0.6,0.6,1.4,1,2.3,1c0.9,0,1.7-0.4,2.3-1c0.6-0.6,0.9-1.4,0.9-2.3v-19.4c0-0.4-0.1-0.9-0.3-1.3c-0.1-0.4-0.4-0.8-0.8-1
				c-0.3-0.3-0.6-0.5-1-0.8C112.6,164.3,112.3,164.1,111.9,164.1L111.9,164.1z"/>
			<path class="st1" d="M126.2,151.5c-0.9,0-1.7,0.4-2.3,0.9c-0.6,0.6-0.9,1.4-0.9,2.3v32c0,0.9,0.4,1.7,0.9,2.3
				c0.6,0.6,1.4,1,2.3,1c0.9,0,1.7-0.4,2.3-1c0.6-0.6,0.9-1.4,0.9-2.3v-32c0-0.4-0.1-0.9-0.3-1.3c-0.1-0.4-0.4-0.8-0.8-1
				c-0.3-0.3-0.6-0.5-1-0.8C127,151.5,126.5,151.5,126.2,151.5L126.2,151.5z"/>
			<path class="st1" d="M140.6,151.1c-1.1,0-2.2,0.5-3.1,1.3c-0.8,0.8-1.3,1.9-1.3,3.1s0.5,2.2,1.3,3.1c0.8,0.8,1.9,1.3,3.1,1.3
				c1.1,0,2.2-0.5,3.1-1.3c0.8-0.8,1.3-1.9,1.3-3.1s-0.5-2.2-1.3-3.1C142.7,151.5,141.7,151.1,140.6,151.1z"/>
			<path class="st1" d="M140.6,164.1c-0.9,0-1.7,0.4-2.3,1s-1,1.4-1,2.3v19.4c0,0.9,0.4,1.7,1,2.3c0.6,0.6,1.4,1,2.3,1
				c0.9,0,1.7-0.4,2.3-1c0.6-0.6,0.9-1.4,0.9-2.3v-19.4c0-0.4-0.1-0.9-0.3-1.3c-0.1-0.4-0.4-0.8-0.8-1c-0.3-0.3-0.6-0.5-1-0.8
				C141.3,164.3,140.9,164.1,140.6,164.1L140.6,164.1z"/>
			<path class="st1" d="M164.8,184.5H164c-2.5,0-4.1-1.1-4.1-4V170h5c0.8,0,1.5-0.3,2-0.9c0.5-0.6,0.9-1.3,0.9-2s-0.3-1.5-0.9-2
				c-0.6-0.5-1.3-0.9-2-0.9h-5v-3.2c0-0.9-0.4-1.7-1-2.3c-0.6-0.6-1.4-1-2.3-1s-1.7,0.4-2.3,1s-1,1.4-1,2.3v3.2h-1.9
				c-0.8,0-1.5,0.3-2,0.9c-0.5,0.6-0.9,1.3-0.9,2s0.3,1.5,0.9,2c0.6,0.5,1.3,0.9,2,0.9h1.9v10.6c0,6.4,3.1,9.9,9.6,9.9
				c0.8,0,1.7,0,2.4-0.1c0.8-0.1,1.4-0.5,1.9-1c0.5-0.6,0.8-1.3,0.6-2c0-0.8-0.4-1.4-1-1.9C166.2,184.8,165.4,184.5,164.8,184.5
				L164.8,184.5z"/>
			<path class="st1" d="M186.7,160.1c0.4,0,0.9-0.1,1.3-0.3c0.4-0.3,0.8-0.5,1-0.8l2.2-2.9c0.3-0.3,0.4-0.6,0.5-1
				c0.1-0.4,0.1-0.8,0-1.1c-0.1-0.4-0.3-0.8-0.4-1c-0.3-0.4-0.5-0.6-0.8-0.8c-0.3-0.3-0.6-0.4-1-0.4c-0.4-0.1-0.8-0.1-1.1,0
				c-0.4,0.1-0.8,0.3-1,0.5c-0.3,0.3-0.6,0.5-0.8,0.9l-1.9,3.1c-0.3,0.4-0.4,0.9-0.4,1.4c0,0.5,0.1,1,0.4,1.4c0.3,0.4,0.6,0.8,1,1
				C185.8,159.9,186.2,160.1,186.7,160.1z"/>
			<path class="st1" d="M184.5,163.1c-8.5,0-13.3,6.4-13.3,14c0,7.5,5.2,14,14.4,14c3.1,0,6-0.9,8.5-2.5c0.4-0.3,0.6-0.6,0.9-1
				c0.3-0.4,0.4-0.9,0.4-1.3c0-0.5-0.1-0.9-0.3-1.4c-0.3-0.4-0.5-0.8-0.9-1c-0.5-0.4-1.1-0.6-1.8-0.6s-1.3,0.1-1.8,0.5
				c-1.5,1-3.3,1.7-5.1,1.5c-4.1,0-7-1.9-7.6-6.8h18.1c0.3-1.1,0.4-2.4,0.4-3.7C196.4,168,191.7,163.1,184.5,163.1z M178,173.7
				c0.8-3.4,2.9-5.2,6.2-5.2c0.8,0,1.4,0.1,2.2,0.3c0.6,0.3,1.3,0.6,1.8,1.1s0.9,1,1.3,1.8c0.4,0.8,0.5,1.4,0.5,2L178,173.7
				L178,173.7z"/>
			<path class="st1" d="M214.1,163.1c-8.5,0-13.3,6.4-13.3,14c0,7.5,5.2,14,14.4,14c3.1,0,6-0.9,8.5-2.5c0.4-0.3,0.6-0.6,0.9-1
				c0.3-0.4,0.4-0.9,0.4-1.3c0-0.5-0.1-0.9-0.3-1.4c-0.3-0.4-0.5-0.8-0.9-1c-0.5-0.4-1.1-0.6-1.8-0.6s-1.3,0.1-1.8,0.5
				c-1.5,1-3.3,1.7-5.1,1.5c-4.1,0-7-1.9-7.6-6.8h18.1c0.3-1.1,0.4-2.4,0.4-3.7C225.9,168,221.2,163.1,214.1,163.1z M207.6,173.7
				c0.8-3.4,2.9-5.2,6.2-5.2c0.8,0,1.4,0.1,2.2,0.3c0.6,0.3,1.3,0.6,1.8,1.1s0.9,1,1.3,1.8c0.4,0.8,0.5,1.4,0.5,2L207.6,173.7
				L207.6,173.7z"/>
			<path class="st1" d="M117.7,44.9c-2.4,0-4.7,0.8-6.8,2c-2,1.4-3.6,3.3-4.5,5.5c-0.9,2.3-1.1,4.7-0.6,7c0.5,2.4,1.7,4.6,3.3,6.2
				c1.7,1.7,4,2.9,6.2,3.3c2.4,0.5,4.8,0.3,7-0.8c2.3-0.9,4.2-2.5,5.5-4.5c1.4-2,2-4.3,2-6.8c0-3.3-1.3-6.4-3.6-8.7
				C124.1,46.1,121.1,44.9,117.7,44.9L117.7,44.9z M108.6,55.7c0.1-1.5,0.8-2.9,1.7-4.2c0.6-0.8,1.8-2.3,2.8-2.5
				c1-0.4,1.9,0.6,2.8,0.4C112.6,50.6,110.1,52.9,108.6,55.7L108.6,55.7z"/>
			<path class="st1" d="M140.2,31.5c-2.4,0-4.7,1-6.4,2.8c-1.7,1.7-2.5,4.1-2.5,6.4c0,2.4,0.9,4.7,2.5,6.4s4,2.7,6.4,2.8
				c1.3,0,2.4-0.1,3.6-0.6c1.1-0.5,2.2-1.1,3.1-1.9c0.9-0.9,1.5-1.9,2-3.1c0.5-1.1,0.8-2.3,0.8-3.6c0-1.3-0.3-2.4-0.8-3.6
				c-0.5-1.1-1.1-2.2-2-3.1c-0.9-0.9-1.9-1.5-3.1-1.9C142.6,31.6,141.3,31.3,140.2,31.5z M133.3,39.4c0.3-1.3,0.8-2.4,1.7-3.3
				c0.5-0.6,1.5-1.7,2.4-1.9c0.9-0.3,1.5,0.8,2.3,0.5C137.1,35.6,134.8,37.2,133.3,39.4L133.3,39.4z"/>
			<path class="st1" d="M133.8,70.2c-1.7,0-3.2,0.6-4.3,1.8c-1.1,1.1-1.8,2.7-1.8,4.3s0.6,3.2,1.8,4.3c1.1,1.1,2.7,1.8,4.3,1.8
				c1.7,0,3.2-0.6,4.3-1.8c1.1-1.1,1.8-2.7,1.8-4.3s-0.6-3.2-1.8-4.3C137,70.9,135.3,70.2,133.8,70.2L133.8,70.2z M129.2,76.2
				c0.1-0.9,0.4-1.7,0.9-2.3c0.4-0.6,0.9-1,1.5-1.4c0.5-0.3,1,0.4,1.5,0.3C131.5,73.4,130.1,74.5,129.2,76.2L129.2,76.2z"/>
			<path class="st2" d="M123.1,31.6c0.8,0,1.7-0.1,2.4-0.4s1.5-0.8,2-1.3c0.6-0.6,1-1.3,1.4-2c0.4-0.8,0.5-1.5,0.5-2.4
				c0-0.8-0.1-1.7-0.5-2.4c-0.4-0.8-0.8-1.4-1.4-2c-0.6-0.6-1.3-1-2-1.3s-1.7-0.4-2.4-0.4c-1.7,0-3.1,0.8-4.2,1.9s-1.8,2.7-1.8,4.3
				c0,1.7,0.6,3.2,1.8,4.3C119.9,31,121.4,31.6,123.1,31.6L123.1,31.6z M119.9,22.3c0.5-0.5,1-1,1.7-1.4c0.5-0.1,1.1,0.5,1.5,0.4
				c-1.8,0.5-3.4,1.7-4.5,3.3C118.8,23.7,119.3,22.8,119.9,22.3L119.9,22.3z"/>
			<path class="st2" d="M133.8,8.7c1.1,0,2.2-0.5,3.1-1.3c0.8-0.8,1.3-1.9,1.3-3.1s-0.5-2.2-1.3-3.1C136.1,0.5,135,0,133.8,0
				c-1.1,0-2.2,0.5-3.1,1.3c-0.8,0.8-1.3,1.9-1.3,3.1s0.5,2.2,1.3,3.1C131.6,8.2,132.7,8.7,133.8,8.7L133.8,8.7z M131.5,2.4
				c0.3-0.4,0.6-0.6,1.1-0.9c0.4-0.1,0.8,0.4,1,0.3c-1.3,0.4-2.3,1.1-2.9,2.2C130.9,3.4,131.1,2.8,131.5,2.4z"/>
		</g>
	</g>
</g>
</svg>
