<svg width="127" height="90" viewBox="0 0 127 90" fill="none" xmlns="http://www.w3.org/2000/svg">
<path fill-rule="evenodd" clip-rule="evenodd" d="M1.00359 46.2316C1.20113 46.1499 1.41283 46.1081 1.62655 46.1085C2.05795 46.1085 2.47175 46.2801 2.77679 46.5854C3.08184 46.8908 3.25318 47.305 3.25318 47.7369V62.2132C3.25318 62.645 3.08184 63.0592 2.77679 63.3646C2.47175 63.67 2.05795 63.8416 1.62655 63.8416C1.19515 63.8416 0.781438 63.67 0.476391 63.3646C0.171343 63.0592 3.16369e-06 62.645 3.16369e-06 62.2132V47.7369C-0.000418806 47.523 0.0413746 47.311 0.12297 47.1133C0.204565 46.9155 0.324324 46.7358 0.475453 46.5845C0.626581 46.4332 0.806052 46.3133 1.00359 46.2316ZM17.88 52.5068C18.8022 51.3656 20.0318 50.4039 22.2091 50.4039C24.87 50.4039 26.9736 52.2503 26.9993 55.8918V62.2132C26.9984 62.6448 26.8268 63.0585 26.5219 63.3637C26.2171 63.6689 25.8038 63.8407 25.3727 63.8416H25.3471C24.9157 63.8416 24.5019 63.67 24.1969 63.3646C23.8919 63.0592 23.7204 62.645 23.7204 62.2132V56.02C23.7204 54.4429 22.8751 53.4813 21.415 53.4813C20.0062 53.4813 19.2377 54.4558 18.7254 55.3277C18.7473 55.5149 18.7558 55.7034 18.751 55.8918V62.2132C18.7501 62.6448 18.5785 63.0585 18.2736 63.3637C17.9688 63.6689 17.5556 63.8407 17.1244 63.8416H17.0988C16.6674 63.8416 16.2537 63.67 15.9486 63.3646C15.6436 63.0592 15.4721 62.645 15.4721 62.2132V56.02C15.4721 54.4429 14.6525 53.4813 13.1667 53.4813C11.681 53.4813 10.9125 54.584 10.4258 55.4046V62.2132C10.4258 62.427 10.3838 62.6387 10.3021 62.8363C10.2203 63.0339 10.1005 63.2134 9.94944 63.3646C9.7984 63.5158 9.61912 63.6358 9.42177 63.7176C9.22443 63.7994 9.01289 63.8416 8.79928 63.8416C8.58567 63.8416 8.37414 63.7994 8.17679 63.7176C7.97944 63.6358 7.80016 63.5158 7.64912 63.3646C7.49808 63.2134 7.37822 63.0339 7.29648 62.8363C7.21474 62.6387 7.17265 62.427 7.17265 62.2132V51.8913C7.17265 51.6363 7.27385 51.3916 7.454 51.2113C7.63414 51.031 7.87848 50.9296 8.13325 50.9296H9.43968C9.69444 50.9296 9.93878 51.031 10.1189 51.2113C10.2991 51.3916 10.4003 51.6363 10.4003 51.8913C10.8615 51.414 11.4151 51.0359 12.0274 50.7801C12.6396 50.5244 13.2975 50.3964 13.9608 50.4039C14.7412 50.3777 15.5148 50.5584 16.203 50.9276C16.8912 51.2969 17.4697 51.8417 17.88 52.5068ZM44.9298 53.4813C46.3899 53.4813 47.2353 54.4429 47.2353 56.02V62.2132C47.2353 62.645 47.4066 63.0592 47.7117 63.3646C48.0167 63.67 48.4304 63.8416 48.8618 63.8416H48.8875C49.3186 63.8407 49.7318 63.6689 50.0367 63.3637C50.3416 63.0585 50.5133 62.6448 50.5141 62.2132V55.8918C50.5141 52.2503 48.4136 50.4039 45.7495 50.4039C43.5722 50.4039 42.3426 51.3656 41.4204 52.5068C41.0102 51.8417 40.4316 51.2969 39.7434 50.9276C39.0552 50.5584 38.2816 50.3777 37.5012 50.4039C36.8379 50.3964 36.18 50.5244 35.5678 50.7801C34.9556 51.0359 34.4019 51.414 33.9407 51.8913C33.9407 51.6363 33.8395 51.3916 33.6593 51.2113C33.4792 51.031 33.2349 50.9296 32.9801 50.9296H31.6737C31.4189 50.9296 31.1746 51.031 30.9944 51.2113C30.8143 51.3916 30.7131 51.6363 30.7131 51.8913V62.2132C30.7131 62.645 30.8844 63.0592 31.1895 63.3646C31.4945 63.67 31.9083 63.8416 32.3397 63.8416C32.7711 63.8416 33.1848 63.67 33.4899 63.3646C33.7949 63.0592 33.9662 62.645 33.9662 62.2132V55.4046C34.4529 54.584 35.2214 53.4813 36.7072 53.4813C38.1929 53.4813 39.0126 54.4429 39.0126 56.02V62.2132C39.0126 62.645 39.184 63.0592 39.489 63.3646C39.7941 63.67 40.2078 63.8416 40.6392 63.8416H40.6648C41.096 63.8407 41.5092 63.6689 41.8141 63.3637C42.1189 63.0585 42.2905 62.6448 42.2914 62.2132V55.8918C42.2962 55.7034 42.2877 55.5149 42.2658 55.3277C42.7525 54.4558 43.5209 53.4813 44.9298 53.4813ZM64.7434 63.0722C63.4897 63.9337 61.9986 64.3819 60.4783 64.3544C55.8931 64.3544 53.3059 61.1489 53.3091 57.376C53.3091 53.555 55.717 50.4007 59.9436 50.4007C63.5298 50.4007 65.8865 52.8369 65.8865 56.222C65.8855 56.8346 65.8167 57.4453 65.6815 58.0427H56.6391C56.9337 60.4661 58.4322 61.4278 60.4559 61.4278C61.3715 61.4359 62.2669 61.158 63.0174 60.6328C63.279 60.4481 63.5936 60.3535 63.9135 60.3634C64.2335 60.3732 64.5416 60.4869 64.7914 60.6873C64.9729 60.8302 65.1189 61.0134 65.2178 61.2224C65.3166 61.4314 65.3657 61.6605 65.361 61.8917C65.3563 62.1229 65.2982 62.3499 65.191 62.5548C65.0838 62.7596 64.9306 62.9367 64.7434 63.0722ZM60.9169 53.2263C60.5798 53.1044 60.2215 53.0515 59.8635 53.071C58.1985 53.071 57.097 53.9877 56.7384 55.6867H62.6813C62.6737 55.3279 62.594 54.9742 62.4471 54.6468C62.3002 54.3195 62.089 54.025 61.8262 53.781C61.5633 53.5369 61.2541 53.3483 60.9169 53.2263ZM70.6866 63.8416C71.1177 63.8407 71.5309 63.6689 71.8358 63.3637C72.1407 63.0585 72.3123 62.6448 72.3131 62.2132V55.5585C72.6353 55.0282 73.0915 54.5925 73.6357 54.2953C74.18 53.9981 74.793 53.85 75.4127 53.8659H75.656C75.8089 53.8737 75.9616 53.8504 76.1052 53.7975C76.2488 53.7446 76.3803 53.6631 76.4916 53.558C76.6029 53.4528 76.6918 53.3262 76.7529 53.1858C76.814 53.0453 76.8461 52.894 76.8472 52.7408V51.8047C76.8498 51.5051 76.7342 51.2166 76.5256 51.0017C76.3169 50.7869 76.0321 50.6631 75.7329 50.6572C75.0895 50.6631 74.4543 50.803 73.8678 51.0679C73.2813 51.3328 72.7562 51.7169 72.3259 52.1958C72.3259 51.8558 72.191 51.5296 71.9508 51.2892C71.7106 51.0487 71.3848 50.9136 71.0452 50.9136H70.3375C69.9978 50.9136 69.6721 51.0487 69.4319 51.2892C69.1917 51.5296 69.0567 51.8558 69.0567 52.1958V62.2099C69.0567 62.6427 69.2284 63.0577 69.5341 63.3637C69.8397 63.6697 70.2543 63.8416 70.6866 63.8416ZM83.5077 53.0197C82.4798 53.0197 81.9932 53.5838 81.9932 54.2506C81.9932 55.1628 83.05 55.5661 84.2884 56.0387C86.0439 56.7086 88.1645 57.5178 88.1569 60.1135C88.1057 62.8318 85.9252 64.3192 83.4949 64.3192C82.0614 64.3566 80.6564 63.9145 79.5021 63.0626C79.3411 62.9397 79.2091 62.7827 79.1155 62.603C79.0219 62.4233 78.9689 62.2252 78.9604 62.0226C78.9518 61.8201 78.9878 61.6182 79.066 61.4312C79.1441 61.2442 79.2624 61.0767 79.4124 60.9405L79.4797 60.8829C79.7343 60.6592 80.0615 60.536 80.4002 60.536C80.739 60.536 81.0661 60.6592 81.3208 60.8829C81.904 61.4068 82.6569 61.7018 83.4405 61.7131C84.5067 61.7131 85.0414 61.0976 85.0414 60.3283C85.0414 59.3951 83.9858 58.9925 82.7475 58.5203C80.9914 57.8506 78.868 57.0408 78.868 54.3788C78.868 52.0965 80.7893 50.3783 83.4789 50.3783C84.6787 50.3794 85.8531 50.7242 86.8634 51.372C87.0449 51.4921 87.1961 51.6527 87.3053 51.8411C87.4144 52.0296 87.4784 52.2407 87.4924 52.4581C87.5064 52.6755 87.4698 52.8931 87.3857 53.094C87.3016 53.2949 87.1721 53.4735 87.0075 53.6159C86.7592 53.8348 86.4419 53.9594 86.1111 53.9676C85.7803 53.9758 85.4571 53.8671 85.1983 53.6608C84.7243 53.2602 84.1278 53.034 83.5077 53.0197ZM94.4167 50.9425C94.4167 50.5106 94.2454 50.0964 93.9403 49.791C93.6353 49.4856 93.2216 49.3141 92.7902 49.3141C92.3588 49.3141 91.945 49.4856 91.6399 49.791C91.3349 50.0964 91.1636 50.5106 91.1636 50.9425V65.4443L94.4167 63.8416V50.9425ZM97.388 57.3792C97.388 53.5069 100.257 50.4039 104.458 50.4039C108.659 50.4039 111.528 53.5069 111.528 57.3792C111.528 61.2515 108.646 64.3544 104.458 64.3544C100.27 64.3544 97.388 61.2515 97.388 57.3792ZM100.769 57.3792C100.769 59.6359 102.357 61.2771 104.509 61.2771C106.584 61.2771 108.147 59.6359 108.147 57.3792C108.147 55.1225 106.584 53.4813 104.509 53.4813C102.37 53.4813 100.769 55.1225 100.769 57.3792ZM121.569 50.4039C120.862 50.3896 120.159 50.5185 119.503 50.7829C118.848 51.0473 118.252 51.4418 117.752 51.9426C117.752 51.6705 117.644 51.4096 117.452 51.2173C117.26 51.0249 116.999 50.9168 116.727 50.9168H115.524C115.252 50.9168 114.991 51.0249 114.799 51.2173C114.607 51.4096 114.499 51.6705 114.499 51.9426V62.2003C114.499 62.6322 114.67 63.0464 114.975 63.3518C115.28 63.6572 115.694 63.8287 116.126 63.8287C116.557 63.8287 116.971 63.6572 117.276 63.3518C117.581 63.0464 117.752 62.6322 117.752 62.2003V55.3917C118.239 54.5711 119.11 53.4684 120.749 53.4684C122.35 53.4684 123.311 54.5455 123.311 56.2636V62.2003C123.312 62.6319 123.483 63.0457 123.788 63.3509C124.093 63.6561 124.506 63.8279 124.937 63.8287H124.963C125.394 63.8287 125.808 63.6572 126.113 63.3518C126.418 63.0464 126.59 62.6322 126.59 62.2003V56.1354C126.59 52.3272 124.361 50.4039 121.569 50.4039ZM51.8203 70.2526C52.2238 70.2514 52.6267 70.2858 53.0242 70.3552C53.2493 70.3962 53.4617 70.4892 53.6444 70.627C53.8272 70.7648 53.9751 70.9435 54.0766 71.1488C54.178 71.354 54.2301 71.5802 54.2286 71.8092C54.2271 72.0383 54.1721 72.2637 54.0681 72.4677C53.9259 72.7571 53.6909 72.9904 53.4007 73.1305C53.1105 73.2705 52.7818 73.3092 52.4671 73.2402C52.2715 73.1969 52.0718 73.1754 51.8715 73.1761C50.7701 73.1761 50.0528 73.9454 50.0528 75.1251V76.5612H52.5375C52.9247 76.5612 53.2962 76.7152 53.57 76.9893C53.8438 77.2634 53.9976 77.6352 53.9976 78.0229C53.9976 78.4106 53.8438 78.7823 53.57 79.0565C53.2962 79.3306 52.9247 79.4846 52.5375 79.4846H50.0528V87.8447C50.0528 88.0602 50.0104 88.2736 49.928 88.4727C49.8456 88.6719 49.7249 88.8528 49.5726 89.0052C49.4204 89.1576 49.2396 89.2785 49.0407 89.361C48.8418 89.4434 48.6287 89.4859 48.4134 89.4859C48.1981 89.4859 47.9849 89.4434 47.786 89.361C47.5871 89.2785 47.4064 89.1576 47.2542 89.0052C47.1019 88.8528 46.9812 88.6719 46.8988 88.4727C46.8164 88.2736 46.7739 88.0602 46.7739 87.8447V79.4846H45.8134C45.4261 79.4846 45.0547 79.3306 44.7809 79.0565C44.5071 78.7823 44.3533 78.4106 44.3533 78.0229C44.3533 77.6352 44.5071 77.2634 44.7809 76.9893C45.0547 76.7152 45.4261 76.5612 45.8134 76.5612H46.7739V75.202C46.7739 72.4581 48.5927 70.2526 51.8203 70.2526ZM60.5553 76.0483C59.0653 76.0104 57.6038 76.4606 56.3928 77.3305C56.2223 77.4641 56.0847 77.6351 55.9906 77.8303C55.8964 78.0255 55.8482 78.2396 55.8498 78.4564C55.8513 78.6731 55.9026 78.8866 55.9995 79.0804C56.0964 79.2743 56.2364 79.4432 56.4088 79.5744L56.5209 79.6577C56.7783 79.8497 57.0925 79.9498 57.4134 79.9423C57.7343 79.9347 58.0434 79.8199 58.2915 79.616C58.9034 79.1319 59.6634 78.8738 60.4433 78.8852C61.929 78.8852 62.9536 79.7571 62.9536 81.1291V81.4496L59.0088 82.1164C56.2423 82.578 54.7309 84.0397 54.7309 85.9887C54.7309 88.3736 56.4985 89.861 59.0857 89.861C60.597 89.861 62.1339 89.2199 62.9536 88.2197C62.9536 88.553 63.0859 88.8726 63.3212 89.1083C63.5566 89.3439 63.8759 89.4763 64.2088 89.4763H64.9516C65.2843 89.4754 65.6031 89.3428 65.8383 89.1073C66.0735 88.8719 66.206 88.5527 66.2068 88.2197V81.1163C66.2165 78.2794 64.2952 76.0483 60.5553 76.0483ZM62.9632 85.5623C62.6284 86.1061 62.1558 86.5516 61.5935 86.8534C61.0311 87.1551 60.3989 87.3025 59.7612 87.2805C58.6598 87.2805 57.9682 86.7163 57.9682 85.8444C57.9682 85.0495 58.5317 84.4853 59.8894 84.2417L62.9632 83.7288V85.5623ZM79.2213 85.9412C79.5562 85.9493 79.8795 86.0661 80.1424 86.2739C80.3359 86.4252 80.4914 86.6196 80.5965 86.8417C80.7017 87.0637 80.7535 87.3073 80.7479 87.553C80.7423 87.7987 80.6794 88.0397 80.5642 88.2567C80.4491 88.4738 80.2849 88.6608 80.0847 88.8031C78.9177 89.5911 77.5378 90.0027 76.1303 89.9827C71.6732 89.9827 69.006 86.7772 69.006 83.0075C69.006 79.2378 71.6732 76.0322 76.1303 76.0322C77.5366 76.0107 78.9156 76.4213 80.0815 77.2086C80.2887 77.3497 80.4592 77.5382 80.579 77.7585C80.6988 77.9788 80.7644 78.2245 80.7704 78.4752C80.7763 78.7259 80.7225 78.9745 80.6133 79.2002C80.504 79.4259 80.3427 79.6223 80.1424 79.7731C79.88 79.9807 79.5572 80.0973 79.2229 80.1054C78.8885 80.1135 78.5606 80.0126 78.2885 79.818C77.6463 79.3513 76.8691 79.1082 76.0759 79.1256C73.9529 79.1256 72.3904 80.7283 72.3904 83.0235C72.3904 85.3187 73.953 86.9214 76.1303 86.9214C76.9052 86.9343 77.6626 86.6909 78.2853 86.229C78.5579 86.0341 78.8864 85.9331 79.2213 85.9412ZM85.6561 70.0475C85.0922 70.0475 84.5514 70.2717 84.1527 70.6709C83.754 71.0701 83.53 71.6115 83.53 72.176C83.53 72.7405 83.754 73.2819 84.1527 73.681C84.5514 74.0802 85.0922 74.3044 85.6561 74.3044C86.22 74.3044 86.7607 74.0802 87.1595 73.681C87.5582 73.2819 87.7822 72.7405 87.7822 72.176C87.7822 71.6115 87.5582 71.0701 87.1595 70.6709C86.7607 70.2717 86.22 70.0475 85.6561 70.0475ZM84.4928 77.0381C84.7978 76.7327 85.2115 76.5611 85.6429 76.5611C85.8567 76.5607 86.0684 76.6025 86.2659 76.6842C86.4635 76.7659 86.6429 76.8858 86.7941 77.0371C86.9452 77.1884 87.065 77.3681 87.1466 77.5659C87.2282 77.7636 87.2699 77.9756 87.2695 78.1895V87.8575C87.2695 88.0713 87.2275 88.283 87.1458 88.4806C87.064 88.6782 86.9442 88.8577 86.7931 89.0089C86.6421 89.1601 86.4628 89.2801 86.2654 89.3619C86.0681 89.4437 85.8566 89.4859 85.6429 89.4859C85.4293 89.4859 85.2178 89.4437 85.0205 89.3619C84.8231 89.2801 84.6438 89.1601 84.4928 89.0089C84.3417 88.8577 84.2219 88.6782 84.1401 88.4806C84.0584 88.283 84.0163 88.0713 84.0163 87.8575V78.1895C84.0163 77.7577 84.1877 77.3434 84.4928 77.0381ZM91.1508 87.8575C91.1508 88.2894 91.3222 88.7036 91.6272 89.0089C91.9323 89.3143 92.3461 89.4859 92.7775 89.4859C93.2089 89.4859 93.6226 89.3143 93.9276 89.0089C94.2327 88.7036 94.404 88.2894 94.404 87.8575V67.0471L91.1508 68.6499V87.8575ZM97.388 83.0235C97.388 79.2025 99.7959 76.0482 104.022 76.0482C107.609 76.0482 109.965 78.4844 109.965 81.8663V82.1644C109.945 82.5754 109.767 82.9628 109.469 83.2463C109.171 83.5297 108.775 83.6876 108.364 83.687H100.721C101.016 86.1104 102.514 87.0721 104.538 87.0721C105.454 87.0806 106.349 86.8027 107.1 86.2771C107.423 86.0677 107.815 85.9914 108.194 86.0642C108.572 86.1371 108.908 86.3534 109.131 86.668C109.354 86.9827 109.447 87.3713 109.391 87.753C109.334 88.1347 109.133 88.4798 108.829 88.7165C107.574 89.5784 106.082 90.0267 104.56 89.9987C99.9752 89.9987 97.388 86.7932 97.388 83.0235ZM103.946 78.7152C102.281 78.7152 101.179 79.6384 100.82 81.331H106.763C106.756 80.9722 106.676 80.6185 106.529 80.2911C106.382 79.9637 106.171 79.6693 105.908 79.4253C105.645 79.1812 105.336 78.9926 104.999 78.8706C104.662 78.7487 104.304 78.6958 103.946 78.7152Z" fill="#3458A2"/>
<path fill-rule="evenodd" clip-rule="evenodd" d="M95.083 12.7773C95.6469 12.7773 96.1876 12.553 96.5864 12.1539C96.9851 11.7547 97.2091 11.2133 97.2091 10.6488C97.2091 10.0843 96.9851 9.54291 96.5864 9.14375C96.1876 8.74458 95.6469 8.52032 95.083 8.52032C94.5191 8.52032 93.9783 8.74458 93.5796 9.14375C93.1809 9.54291 92.9569 10.0843 92.9569 10.6488C92.9569 11.2133 93.1809 11.7547 93.5796 12.1539C93.9783 12.553 94.5191 12.7773 95.083 12.7773ZM98.0036 34.6615C98.0111 35.2237 98.2375 35.7608 98.6346 36.1583C99.0317 36.5559 99.5682 36.7825 100.13 36.79C100.694 36.79 101.234 36.5657 101.633 36.1666C102.032 35.7674 102.256 35.226 102.256 34.6615C102.256 34.097 102.032 33.5556 101.633 33.1564C101.234 32.7573 100.694 32.533 100.13 32.533C99.5682 32.5405 99.0317 32.7671 98.6346 33.1647C98.2375 33.5623 98.0111 34.0993 98.0036 34.6615ZM97.4617 31.2247C96.2907 32.397 94.7026 33.0556 93.0466 33.0556C91.3906 33.0556 89.8025 32.397 88.6315 31.2247C87.4606 30.0525 86.8027 28.4626 86.8027 26.8048C86.8027 25.1469 87.4606 23.557 88.6315 22.3848C89.8025 21.2125 91.3906 20.554 93.0466 20.554C94.7026 20.554 96.2907 21.2125 97.4617 22.3848C98.6326 23.557 99.2905 25.1469 99.2905 26.8048C99.2905 28.4626 98.6326 30.0525 97.4617 31.2247Z" fill="#417DC4"/>
<path fill-rule="evenodd" clip-rule="evenodd" d="M93.9312 2.7361C93.631 3.03667 93.2237 3.20554 92.7991 3.20554C92.3745 3.20554 91.9673 3.03667 91.6671 2.7361C91.3668 2.43552 91.1981 2.02785 91.1981 1.60277C91.1981 1.17769 91.3668 0.770022 91.6671 0.469444C91.9673 0.168866 92.3745 0 92.7991 0C93.2237 0 93.631 0.168866 93.9312 0.469444C94.2315 0.770022 94.4001 1.17769 94.4001 1.60277C94.4001 2.02785 94.2315 2.43552 93.9312 2.7361ZM101.508 20.8104C102.612 20.8104 103.671 20.3713 104.451 19.5898C105.232 18.8083 105.671 17.7484 105.671 16.6432C105.671 15.5379 105.232 14.478 104.451 13.6965C103.671 12.915 102.612 12.476 101.508 12.476C100.404 12.476 99.3453 12.915 98.5646 13.6965C97.784 14.478 97.3454 15.5379 97.3454 16.6432C97.3454 17.7484 97.784 18.8083 98.5646 19.5898C99.3453 20.3713 100.404 20.8104 101.508 20.8104ZM91.8676 36.1713C90.7637 36.1713 89.7049 36.6104 88.9243 37.3919C88.1436 38.1734 87.7051 39.2333 87.7051 40.3385C87.7051 41.4437 88.1436 42.5037 88.9243 43.2852C89.7049 44.0667 90.7637 44.5057 91.8676 44.5057C92.9716 44.5057 94.0304 44.0667 94.811 43.2852C95.5916 42.5037 96.0302 41.4437 96.0302 40.3385C96.0302 39.2333 95.5916 38.1734 94.811 37.3919C94.0304 36.6104 92.9716 36.1713 91.8676 36.1713Z" fill="#7AB1E8"/>
</svg>
