<?xml version="1.0" encoding="utf-8"?>
<!-- Generator: Adobe Illustrator 25.2.1, SVG Export Plug-In . SVG Version: 6.00 Build 0)  -->
<svg version="1.1" id="Calque_1" xmlns="http://www.w3.org/2000/svg" xmlns:xlink="http://www.w3.org/1999/xlink" x="0px" y="0px"
	 viewBox="0 0 300 75" style="enable-background:new 0 0 300 75;" xml:space="preserve">
<style type="text/css">
	.st0{fill:#1B2E57;}
	.st1{fill:#FFFFFF;}
</style>
<g id="Calque_2_1_">
	
		<image style="overflow:visible;opacity:0.4;enable-background:new    ;" width="304" height="67" xlink:href="43FFD26C4DAD77B0.png"  transform="matrix(1 0 0 1 -2 5)">
	</image>
	<path class="st0" d="M31.5,7.5h237c16.6,0,30,13.4,30,30l0,0c0,16.6-13.4,30-30,30h-237c-16.6,0-30-13.4-30-30l0,0
		C1.5,20.9,14.9,7.5,31.5,7.5z"/>
	<path class="st1" d="M38.1,44.9c-1.9-2.1-2.9-4.8-2.7-7.6c0-1.5,0.2-2.9,0.7-4.3c0.4-1.2,1.1-2.4,2-3.3c0.9-0.9,2-1.7,3.2-2.1
		c1.3-0.5,2.8-0.8,4.2-0.7c1.3,0,2.7,0.2,4,0.7c-5.4-6.8-15.3-8-22.1-2.6s-8,15.3-2.6,22.1s15.3,8,22.1,2.6c0.9-0.7,1.7-1.5,2.4-2.4
		c-1.1,0.3-2.2,0.4-3.4,0.4C42.4,47.7,39.9,46.8,38.1,44.9z"/>
	<path class="st1" d="M40.7,35.9h8.9c0.3,0,0.6-0.2,0.6-0.5c0-1.5-0.6-2.9-1.5-4c-0.9-1-2.2-1.5-3.5-1.4c-1.3,0-2.6,0.5-3.5,1.5
		c-0.9,1.1-1.5,2.5-1.6,4C40.1,35.6,40.4,35.9,40.7,35.9z"/>
	<path class="st1" d="M50.7,38.3h-10c-0.3,0-0.6,0.2-0.6,0.5c0,0,0,0,0,0.1c0,1,0.3,2.1,0.8,3c0.9,1.8,2.7,3,4.7,2.9
		c0.6,0,1.2-0.1,1.8-0.2c0.6-0.2,1.1-0.4,1.6-0.7c0.5-0.3,1-0.6,1.4-1c0.4-0.4,1.2-1.1,1.5-1.4c0.1-0.1,0.2-0.1,0.3-0.2
		c0.3-1,0.4-2.1,0.5-3.2C52,38.3,51.4,38.3,50.7,38.3z"/>
	<path class="st1" d="M49.5,47.2c2-0.7,4.2-2.7,4.6-4.5c0.2-1.2-0.5-1.5-0.9-1.5h-0.2c-0.3,0-0.5,0.1-0.8,0.2
		c-0.6,2.2-1.6,4.2-3.1,6L49.5,47.2z"/>
	<path class="st1" d="M52.7,38.1c0.4-0.1,0.8-0.2,1.1-0.4c0.6-0.3,1-1,1-2.3c0-1.4-0.4-2.8-1.1-4.1c-1-1.7-2.5-3.1-4.4-3.8
		c2.2,2.8,3.4,6.2,3.4,9.7C52.7,37.6,52.7,37.8,52.7,38.1z"/>
	<path class="st0" d="M50.4,42.8c-0.4,0.4-0.9,0.7-1.4,1c-0.5,0.3-1,0.6-1.6,0.7c-0.6,0.2-1.2,0.2-1.8,0.2c-2,0-3.9-1.1-4.7-2.9
		c-0.5-0.9-0.7-2-0.8-3c0-0.3,0.2-0.6,0.5-0.6c0,0,0,0,0.1,0h10c0.7,0,1.3-0.1,1.9-0.2c0-0.3,0-0.5,0-0.8c0-3.5-1.2-7-3.4-9.7
		c-1.3-0.5-2.6-0.7-4-0.7c-1.4,0-2.9,0.2-4.2,0.7c-1.2,0.5-2.2,1.2-3.1,2.1c-0.9,0.9-1.6,2.1-2,3.3c-0.5,1.4-0.7,2.8-0.7,4.2
		c-0.2,2.8,0.8,5.6,2.7,7.6c1.8,1.9,4.3,2.8,7.7,2.8c1.1,0,2.3-0.1,3.4-0.4c1.4-1.8,2.5-3.8,3.1-6c-0.1,0-0.2,0.1-0.3,0.2
		C51.6,41.7,50.8,42.5,50.4,42.8z M40.1,35.3c0.1-1.5,0.6-2.9,1.6-4c0.9-1,2.1-1.5,3.5-1.5c1.3,0,2.6,0.5,3.5,1.4
		c0.9,1.1,1.5,2.5,1.5,4c0,0.3-0.3,0.6-0.6,0.5h-8.9C40.4,35.9,40.1,35.6,40.1,35.3L40.1,35.3z"/>
</g>
<g>
	<path class="st1" d="M70.8,33c-0.1,0.1-0.1,0.2-0.2,0.3c-0.1,0.1-0.2,0.1-0.3,0.1s-0.2,0-0.4-0.1s-0.3-0.2-0.5-0.3
		c-0.2-0.1-0.4-0.2-0.7-0.3s-0.6-0.1-0.9-0.1c-0.3,0-0.6,0-0.8,0.1c-0.2,0.1-0.4,0.2-0.6,0.3c-0.2,0.1-0.3,0.3-0.4,0.5
		c-0.1,0.2-0.1,0.4-0.1,0.6c0,0.3,0.1,0.5,0.2,0.7c0.2,0.2,0.4,0.4,0.6,0.5c0.3,0.1,0.6,0.3,0.9,0.4c0.3,0.1,0.7,0.2,1,0.3
		c0.4,0.1,0.7,0.3,1,0.4c0.3,0.2,0.6,0.4,0.9,0.6c0.3,0.2,0.5,0.5,0.6,0.9c0.2,0.4,0.2,0.8,0.2,1.3c0,0.6-0.1,1.1-0.3,1.6
		s-0.5,0.9-0.8,1.3c-0.4,0.4-0.8,0.6-1.3,0.9c-0.5,0.2-1.1,0.3-1.8,0.3c-0.4,0-0.8,0-1.2-0.1c-0.4-0.1-0.7-0.2-1.1-0.3
		c-0.3-0.1-0.7-0.3-1-0.5c-0.3-0.2-0.6-0.4-0.8-0.7l0.7-1.1c0.1-0.1,0.1-0.1,0.2-0.2c0.1-0.1,0.2-0.1,0.3-0.1c0.1,0,0.3,0.1,0.5,0.2
		c0.2,0.1,0.4,0.2,0.6,0.4c0.2,0.1,0.5,0.3,0.8,0.4s0.7,0.2,1.1,0.2c0.7,0,1.2-0.2,1.5-0.5c0.4-0.3,0.5-0.8,0.5-1.3
		c0-0.3-0.1-0.6-0.2-0.8c-0.2-0.2-0.4-0.4-0.6-0.5c-0.3-0.1-0.6-0.3-0.9-0.4c-0.3-0.1-0.7-0.2-1-0.3c-0.4-0.1-0.7-0.2-1-0.4
		c-0.3-0.2-0.6-0.4-0.9-0.6c-0.3-0.3-0.5-0.6-0.6-1c-0.2-0.4-0.2-0.9-0.2-1.4c0-0.4,0.1-0.9,0.3-1.3c0.2-0.4,0.4-0.8,0.8-1.1
		c0.3-0.3,0.8-0.6,1.3-0.8s1.1-0.3,1.7-0.3c0.7,0,1.4,0.1,2,0.3c0.6,0.2,1.1,0.5,1.6,1L70.8,33z"/>
	<path class="st1" d="M76.4,34.2c0.5,0,1.1,0.1,1.5,0.3c0.5,0.2,0.9,0.4,1.2,0.8c0.3,0.3,0.6,0.8,0.8,1.2c0.2,0.5,0.3,1,0.3,1.7
		c0,0.2,0,0.3,0,0.4c0,0.1,0,0.2-0.1,0.2c0,0.1-0.1,0.1-0.1,0.1s-0.1,0-0.2,0h-5.4c0.1,0.9,0.3,1.6,0.7,2c0.4,0.4,1,0.6,1.7,0.6
		c0.3,0,0.6,0,0.9-0.1c0.2-0.1,0.5-0.2,0.6-0.3c0.2-0.1,0.3-0.2,0.5-0.3c0.1-0.1,0.3-0.1,0.4-0.1c0.1,0,0.2,0,0.2,0.1
		s0.1,0.1,0.2,0.1l0.6,0.8c-0.2,0.3-0.5,0.5-0.8,0.7s-0.6,0.3-0.9,0.4c-0.3,0.1-0.6,0.2-1,0.2c-0.3,0-0.6,0.1-0.9,0.1
		c-0.6,0-1.2-0.1-1.7-0.3c-0.5-0.2-1-0.5-1.4-0.9c-0.4-0.4-0.7-0.9-0.9-1.5c-0.2-0.6-0.3-1.3-0.3-2c0-0.6,0.1-1.2,0.3-1.7
		c0.2-0.5,0.5-1,0.8-1.4s0.8-0.7,1.3-0.9S75.8,34.2,76.4,34.2z M76.5,35.7c-0.6,0-1.1,0.2-1.4,0.5s-0.6,0.8-0.7,1.5h3.9
		c0-0.3,0-0.5-0.1-0.8c-0.1-0.2-0.2-0.5-0.3-0.6c-0.2-0.2-0.3-0.3-0.6-0.4C77,35.7,76.8,35.7,76.5,35.7z"/>
	<path class="st1" d="M90.5,36.1c-0.1,0.1-0.1,0.1-0.2,0.2s-0.1,0.1-0.3,0.1c-0.1,0-0.2,0-0.3-0.1c-0.1-0.1-0.2-0.1-0.4-0.2
		c-0.1-0.1-0.3-0.2-0.5-0.2c-0.2-0.1-0.4-0.1-0.7-0.1c-0.4,0-0.7,0.1-1,0.2c-0.3,0.1-0.5,0.3-0.7,0.6c-0.2,0.2-0.3,0.6-0.4,0.9
		c-0.1,0.4-0.1,0.8-0.1,1.2c0,0.5,0,0.9,0.1,1.2c0.1,0.4,0.2,0.7,0.4,0.9s0.4,0.4,0.7,0.6c0.3,0.1,0.6,0.2,0.9,0.2
		c0.3,0,0.6,0,0.8-0.1s0.4-0.2,0.5-0.3c0.1-0.1,0.3-0.2,0.4-0.3c0.1-0.1,0.2-0.1,0.4-0.1c0.2,0,0.3,0.1,0.4,0.2l0.6,0.8
		c-0.2,0.3-0.5,0.5-0.8,0.7s-0.6,0.3-0.8,0.4c-0.3,0.1-0.6,0.2-0.9,0.2s-0.6,0.1-0.9,0.1c-0.5,0-1-0.1-1.5-0.3s-0.9-0.5-1.2-0.9
		c-0.4-0.4-0.6-0.9-0.8-1.4c-0.2-0.6-0.3-1.2-0.3-1.9c0-0.6,0.1-1.2,0.3-1.8s0.5-1,0.8-1.4s0.8-0.7,1.3-0.9c0.5-0.2,1.1-0.3,1.8-0.3
		c0.7,0,1.2,0.1,1.7,0.3c0.5,0.2,0.9,0.5,1.3,0.9L90.5,36.1z"/>
	<path class="st1" d="M95.7,34.2c0.7,0,1.2,0.1,1.8,0.3s1,0.5,1.4,0.9s0.7,0.9,0.9,1.4c0.2,0.6,0.3,1.2,0.3,1.9
		c0,0.7-0.1,1.3-0.3,1.9c-0.2,0.6-0.5,1-0.9,1.4s-0.8,0.7-1.4,0.9c-0.5,0.2-1.1,0.3-1.8,0.3c-0.7,0-1.2-0.1-1.8-0.3
		c-0.5-0.2-1-0.5-1.4-0.9s-0.7-0.9-0.9-1.4c-0.2-0.6-0.3-1.2-0.3-1.9c0-0.7,0.1-1.3,0.3-1.9c0.2-0.6,0.5-1,0.9-1.4s0.8-0.7,1.4-0.9
		S95.1,34.2,95.7,34.2z M95.7,41.5c0.7,0,1.3-0.2,1.6-0.7c0.3-0.5,0.5-1.2,0.5-2.1s-0.2-1.7-0.5-2.2c-0.3-0.5-0.9-0.7-1.6-0.7
		c-0.7,0-1.3,0.2-1.6,0.7c-0.4,0.5-0.5,1.2-0.5,2.1s0.2,1.6,0.5,2.1C94.5,41.3,95,41.5,95.7,41.5z"/>
	<path class="st1" d="M101.3,43v-8.7h1.3c0.3,0,0.5,0.1,0.5,0.4l0.1,0.7c0.2-0.2,0.4-0.3,0.6-0.5c0.2-0.1,0.4-0.3,0.6-0.4
		c0.2-0.1,0.5-0.2,0.7-0.2s0.5-0.1,0.8-0.1c0.5,0,0.9,0.1,1.3,0.2s0.7,0.4,0.9,0.7c0.2,0.3,0.4,0.6,0.6,1s0.2,0.9,0.2,1.3V43h-2.1
		v-5.6c0-0.5-0.1-0.9-0.4-1.2c-0.2-0.3-0.6-0.4-1.1-0.4c-0.4,0-0.7,0.1-1,0.2c-0.3,0.2-0.6,0.4-0.9,0.7V43H101.3z"/>
	<path class="st1" d="M110.5,43v-8.7h1.3c0.3,0,0.5,0.1,0.5,0.4l0.1,0.7c0.2-0.2,0.4-0.3,0.6-0.5c0.2-0.1,0.4-0.3,0.6-0.4
		c0.2-0.1,0.5-0.2,0.7-0.2s0.5-0.1,0.8-0.1c0.5,0,0.9,0.1,1.3,0.2s0.7,0.4,0.9,0.7c0.2,0.3,0.4,0.6,0.6,1s0.2,0.9,0.2,1.3V43H116
		v-5.6c0-0.5-0.1-0.9-0.4-1.2c-0.2-0.3-0.6-0.4-1.1-0.4c-0.4,0-0.7,0.1-1,0.2c-0.3,0.2-0.6,0.4-0.9,0.7V43H110.5z"/>
	<path class="st1" d="M123.3,34.2c0.5,0,1.1,0.1,1.5,0.3c0.5,0.2,0.9,0.4,1.2,0.8c0.3,0.3,0.6,0.8,0.8,1.2c0.2,0.5,0.3,1,0.3,1.7
		c0,0.2,0,0.3,0,0.4c0,0.1,0,0.2-0.1,0.2c0,0.1-0.1,0.1-0.1,0.1s-0.1,0-0.2,0h-5.4c0.1,0.9,0.3,1.6,0.7,2c0.4,0.4,1,0.6,1.7,0.6
		c0.3,0,0.6,0,0.9-0.1c0.2-0.1,0.5-0.2,0.6-0.3c0.2-0.1,0.3-0.2,0.5-0.3c0.1-0.1,0.3-0.1,0.4-0.1c0.1,0,0.2,0,0.2,0.1
		s0.1,0.1,0.2,0.1l0.6,0.8c-0.2,0.3-0.5,0.5-0.8,0.7s-0.6,0.3-0.9,0.4c-0.3,0.1-0.6,0.2-1,0.2c-0.3,0-0.6,0.1-0.9,0.1
		c-0.6,0-1.2-0.1-1.7-0.3c-0.5-0.2-1-0.5-1.4-0.9c-0.4-0.4-0.7-0.9-0.9-1.5c-0.2-0.6-0.3-1.3-0.3-2c0-0.6,0.1-1.2,0.3-1.7
		c0.2-0.5,0.5-1,0.8-1.4s0.8-0.7,1.3-0.9S122.7,34.2,123.3,34.2z M123.4,35.7c-0.6,0-1.1,0.2-1.4,0.5s-0.6,0.8-0.7,1.5h3.9
		c0-0.3,0-0.5-0.1-0.8c-0.1-0.2-0.2-0.5-0.3-0.6c-0.2-0.2-0.3-0.3-0.6-0.4C124,35.7,123.7,35.7,123.4,35.7z"/>
	<path class="st1" d="M134.5,36.1c-0.1,0.1-0.1,0.1-0.2,0.2s-0.1,0.1-0.3,0.1c-0.1,0-0.2,0-0.3-0.1c-0.1-0.1-0.2-0.1-0.4-0.2
		c-0.1-0.1-0.3-0.2-0.5-0.2c-0.2-0.1-0.4-0.1-0.7-0.1c-0.4,0-0.7,0.1-1,0.2c-0.3,0.1-0.5,0.3-0.7,0.6c-0.2,0.2-0.3,0.6-0.4,0.9
		c-0.1,0.4-0.1,0.8-0.1,1.2c0,0.5,0,0.9,0.1,1.2c0.1,0.4,0.2,0.7,0.4,0.9s0.4,0.4,0.7,0.6c0.3,0.1,0.6,0.2,0.9,0.2
		c0.3,0,0.6,0,0.8-0.1s0.4-0.2,0.5-0.3c0.1-0.1,0.3-0.2,0.4-0.3c0.1-0.1,0.2-0.1,0.4-0.1c0.2,0,0.3,0.1,0.4,0.2l0.6,0.8
		c-0.2,0.3-0.5,0.5-0.8,0.7s-0.6,0.3-0.8,0.4c-0.3,0.1-0.6,0.2-0.9,0.2s-0.6,0.1-0.9,0.1c-0.5,0-1-0.1-1.5-0.3s-0.9-0.5-1.2-0.9
		c-0.4-0.4-0.6-0.9-0.8-1.4c-0.2-0.6-0.3-1.2-0.3-1.9c0-0.6,0.1-1.2,0.3-1.8s0.5-1,0.8-1.4s0.8-0.7,1.3-0.9c0.5-0.2,1.1-0.3,1.8-0.3
		c0.7,0,1.2,0.1,1.7,0.3c0.5,0.2,0.9,0.5,1.3,0.9L134.5,36.1z"/>
	<path class="st1" d="M138.9,43.1c-0.8,0-1.3-0.2-1.7-0.6c-0.4-0.4-0.6-1-0.6-1.8v-4.9h-0.9c-0.1,0-0.2,0-0.3-0.1s-0.1-0.2-0.1-0.3
		v-0.8l1.4-0.2l0.4-2.4c0-0.1,0.1-0.2,0.2-0.3c0.1-0.1,0.2-0.1,0.3-0.1h1.1v2.7h2.3v1.5h-2.3v4.7c0,0.3,0.1,0.5,0.2,0.6
		c0.1,0.2,0.3,0.2,0.5,0.2c0.1,0,0.2,0,0.3,0s0.2-0.1,0.2-0.1c0.1,0,0.1-0.1,0.2-0.1c0.1,0,0.1,0,0.2,0c0.1,0,0.1,0,0.2,0
		c0,0,0.1,0.1,0.1,0.1l0.6,1c-0.3,0.3-0.7,0.4-1.1,0.6C139.8,43.1,139.4,43.1,138.9,43.1z"/>
	<path class="st1" d="M145.8,34.2c0.5,0,1.1,0.1,1.5,0.3c0.5,0.2,0.9,0.4,1.2,0.8c0.3,0.3,0.6,0.8,0.8,1.2c0.2,0.5,0.3,1,0.3,1.7
		c0,0.2,0,0.3,0,0.4c0,0.1,0,0.2-0.1,0.2c0,0.1-0.1,0.1-0.1,0.1s-0.1,0-0.2,0h-5.4c0.1,0.9,0.3,1.6,0.7,2c0.4,0.4,1,0.6,1.7,0.6
		c0.3,0,0.6,0,0.9-0.1c0.2-0.1,0.5-0.2,0.6-0.3c0.2-0.1,0.3-0.2,0.5-0.3c0.1-0.1,0.3-0.1,0.4-0.1c0.1,0,0.2,0,0.2,0.1
		s0.1,0.1,0.2,0.1l0.6,0.8c-0.2,0.3-0.5,0.5-0.8,0.7s-0.6,0.3-0.9,0.4c-0.3,0.1-0.6,0.2-1,0.2c-0.3,0-0.6,0.1-0.9,0.1
		c-0.6,0-1.2-0.1-1.7-0.3c-0.5-0.2-1-0.5-1.4-0.9c-0.4-0.4-0.7-0.9-0.9-1.5c-0.2-0.6-0.3-1.3-0.3-2c0-0.6,0.1-1.2,0.3-1.7
		c0.2-0.5,0.5-1,0.8-1.4s0.8-0.7,1.3-0.9S145.2,34.2,145.8,34.2z M145.9,35.7c-0.6,0-1.1,0.2-1.4,0.5s-0.6,0.8-0.7,1.5h3.9
		c0-0.3,0-0.5-0.1-0.8c-0.1-0.2-0.2-0.5-0.3-0.6c-0.2-0.2-0.3-0.3-0.6-0.4C146.5,35.7,146.2,35.7,145.9,35.7z"/>
	<path class="st1" d="M150.9,43v-8.7h1.2c0.2,0,0.4,0,0.5,0.1c0.1,0.1,0.1,0.2,0.2,0.4l0.1,1.1c0.3-0.5,0.7-1,1.1-1.3
		s0.9-0.5,1.4-0.5c0.4,0,0.8,0.1,1.1,0.3l-0.3,1.6c0,0.1-0.1,0.2-0.1,0.2s-0.1,0.1-0.2,0.1c-0.1,0-0.2,0-0.3-0.1s-0.3-0.1-0.6-0.1
		c-0.4,0-0.8,0.1-1.1,0.4c-0.3,0.2-0.6,0.6-0.8,1.1V43H150.9z"/>
	<path class="st1" d="M167.1,43h-0.9c-0.2,0-0.4,0-0.5-0.1c-0.1-0.1-0.2-0.2-0.3-0.4l-0.2-0.6c-0.2,0.2-0.4,0.4-0.7,0.5
		c-0.2,0.2-0.4,0.3-0.7,0.4s-0.5,0.2-0.7,0.2c-0.3,0.1-0.5,0.1-0.8,0.1c-0.4,0-0.7-0.1-1-0.2c-0.3-0.1-0.6-0.2-0.8-0.4
		s-0.4-0.4-0.5-0.7c-0.1-0.3-0.2-0.6-0.2-1c0-0.3,0.1-0.7,0.3-1c0.2-0.3,0.5-0.6,0.9-0.9s0.9-0.5,1.6-0.6c0.7-0.2,1.5-0.3,2.5-0.3
		v-0.5c0-0.6-0.1-1-0.4-1.3c-0.2-0.3-0.6-0.4-1.1-0.4c-0.3,0-0.6,0-0.8,0.1c-0.2,0.1-0.4,0.2-0.6,0.3c-0.2,0.1-0.3,0.2-0.5,0.3
		c-0.1,0.1-0.3,0.1-0.5,0.1c-0.1,0-0.3,0-0.4-0.1s-0.2-0.2-0.2-0.3l-0.4-0.7c1-0.9,2.2-1.4,3.6-1.4c0.5,0,1,0.1,1.4,0.3
		c0.4,0.2,0.7,0.4,1,0.7c0.3,0.3,0.5,0.7,0.6,1.1c0.1,0.4,0.2,0.9,0.2,1.4V43z M163,41.7c0.2,0,0.4,0,0.6-0.1c0.2,0,0.4-0.1,0.5-0.2
		s0.3-0.2,0.5-0.3c0.2-0.1,0.3-0.2,0.5-0.4v-1.5c-0.6,0-1.1,0-1.5,0.1s-0.7,0.2-1,0.3c-0.2,0.1-0.4,0.3-0.5,0.4s-0.2,0.3-0.2,0.5
		c0,0.4,0.1,0.6,0.3,0.8C162.4,41.6,162.7,41.7,163,41.7z"/>
	<path class="st1" d="M172.8,43h-1.9l-3.5-8.7h1.7c0.2,0,0.3,0,0.4,0.1c0.1,0.1,0.2,0.2,0.2,0.3l1.7,4.7c0.1,0.3,0.2,0.5,0.2,0.8
		s0.1,0.5,0.2,0.8c0.1-0.3,0.1-0.5,0.2-0.8c0.1-0.3,0.1-0.5,0.2-0.8l1.7-4.7c0-0.1,0.1-0.2,0.2-0.3c0.1-0.1,0.2-0.1,0.4-0.1h1.7
		L172.8,43z"/>
	<path class="st1" d="M180.4,34.2c0.5,0,1.1,0.1,1.5,0.3c0.5,0.2,0.9,0.4,1.2,0.8c0.3,0.3,0.6,0.8,0.8,1.2c0.2,0.5,0.3,1,0.3,1.7
		c0,0.2,0,0.3,0,0.4c0,0.1,0,0.2-0.1,0.2s-0.1,0.1-0.1,0.1s-0.1,0-0.2,0h-5.4c0.1,0.9,0.3,1.6,0.7,2c0.4,0.4,1,0.6,1.7,0.6
		c0.3,0,0.6,0,0.9-0.1c0.2-0.1,0.5-0.2,0.6-0.3c0.2-0.1,0.3-0.2,0.5-0.3c0.1-0.1,0.3-0.1,0.4-0.1c0.1,0,0.2,0,0.2,0.1
		s0.1,0.1,0.2,0.1l0.6,0.8c-0.2,0.3-0.5,0.5-0.8,0.7s-0.6,0.3-0.9,0.4c-0.3,0.1-0.6,0.2-1,0.2s-0.6,0.1-0.9,0.1
		c-0.6,0-1.2-0.1-1.7-0.3s-1-0.5-1.4-0.9c-0.4-0.4-0.7-0.9-0.9-1.5c-0.2-0.6-0.3-1.3-0.3-2c0-0.6,0.1-1.2,0.3-1.7
		c0.2-0.5,0.5-1,0.8-1.4s0.8-0.7,1.3-0.9S179.8,34.2,180.4,34.2z M180.5,35.7c-0.6,0-1.1,0.2-1.4,0.5s-0.6,0.8-0.7,1.5h3.9
		c0-0.3,0-0.5-0.1-0.8c-0.1-0.2-0.2-0.5-0.3-0.6c-0.2-0.2-0.3-0.3-0.6-0.4C181,35.7,180.8,35.7,180.5,35.7z"/>
	<path class="st1" d="M191.6,36.1c-0.1,0.1-0.1,0.1-0.2,0.2s-0.1,0.1-0.3,0.1c-0.1,0-0.2,0-0.3-0.1c-0.1-0.1-0.2-0.1-0.4-0.2
		c-0.1-0.1-0.3-0.2-0.5-0.2c-0.2-0.1-0.4-0.1-0.7-0.1c-0.4,0-0.7,0.1-1,0.2c-0.3,0.1-0.5,0.3-0.7,0.6c-0.2,0.2-0.3,0.6-0.4,0.9
		c-0.1,0.4-0.1,0.8-0.1,1.2c0,0.5,0,0.9,0.1,1.2c0.1,0.4,0.2,0.7,0.4,0.9s0.4,0.4,0.7,0.6c0.3,0.1,0.6,0.2,0.9,0.2
		c0.3,0,0.6,0,0.8-0.1s0.4-0.2,0.5-0.3c0.1-0.1,0.3-0.2,0.4-0.3c0.1-0.1,0.2-0.1,0.4-0.1c0.2,0,0.3,0.1,0.4,0.2l0.6,0.8
		c-0.2,0.3-0.5,0.5-0.8,0.7s-0.6,0.3-0.8,0.4c-0.3,0.1-0.6,0.2-0.9,0.2s-0.6,0.1-0.9,0.1c-0.5,0-1-0.1-1.5-0.3
		c-0.5-0.2-0.9-0.5-1.2-0.9c-0.4-0.4-0.6-0.9-0.8-1.4c-0.2-0.6-0.3-1.2-0.3-1.9c0-0.6,0.1-1.2,0.3-1.8c0.2-0.5,0.5-1,0.8-1.4
		s0.8-0.7,1.3-0.9s1.1-0.3,1.8-0.3c0.7,0,1.2,0.1,1.7,0.3s0.9,0.5,1.3,0.9L191.6,36.1z"/>
	<path class="st1" d="M198.5,38.7V43h-2.3V30.7h4c0.8,0,1.5,0.1,2.1,0.3c0.6,0.2,1.1,0.5,1.5,0.8c0.4,0.3,0.7,0.8,0.9,1.2
		c0.2,0.5,0.3,1,0.3,1.6c0,0.6-0.1,1.1-0.3,1.6c-0.2,0.5-0.5,0.9-0.9,1.3c-0.4,0.4-0.9,0.6-1.5,0.8s-1.3,0.3-2.1,0.3H198.5z
		 M198.5,36.9h1.7c0.4,0,0.8-0.1,1.1-0.2c0.3-0.1,0.6-0.3,0.8-0.5c0.2-0.2,0.4-0.4,0.5-0.7c0.1-0.3,0.2-0.6,0.2-0.9
		c0-0.3-0.1-0.6-0.2-0.9c-0.1-0.3-0.3-0.5-0.5-0.7c-0.2-0.2-0.5-0.3-0.8-0.4c-0.3-0.1-0.7-0.1-1.1-0.1h-1.7V36.9z"/>
	<path class="st1" d="M209.7,34.2c0.7,0,1.2,0.1,1.8,0.3s1,0.5,1.4,0.9s0.7,0.9,0.9,1.4c0.2,0.6,0.3,1.2,0.3,1.9
		c0,0.7-0.1,1.3-0.3,1.9c-0.2,0.6-0.5,1-0.9,1.4s-0.8,0.7-1.4,0.9c-0.5,0.2-1.1,0.3-1.8,0.3s-1.2-0.1-1.8-0.3
		c-0.5-0.2-1-0.5-1.4-0.9s-0.7-0.9-0.9-1.4c-0.2-0.6-0.3-1.2-0.3-1.9c0-0.7,0.1-1.3,0.3-1.9c0.2-0.6,0.5-1,0.9-1.4s0.8-0.7,1.4-0.9
		C208.4,34.3,209,34.2,209.7,34.2z M212.6,33.1h-1.4c-0.2,0-0.3-0.1-0.4-0.2l-0.9-0.8c0,0-0.1-0.1-0.1-0.1s-0.1-0.1-0.1-0.1
		c0,0-0.1,0.1-0.1,0.1s-0.1,0.1-0.1,0.1l-0.9,0.8c0,0-0.1,0.1-0.2,0.1c-0.1,0-0.2,0-0.2,0h-1.5l1.9-2.4h2L212.6,33.1z M209.7,41.5
		c0.7,0,1.3-0.2,1.6-0.7c0.3-0.5,0.5-1.2,0.5-2.1s-0.2-1.7-0.5-2.2c-0.3-0.5-0.9-0.7-1.6-0.7c-0.7,0-1.3,0.2-1.6,0.7
		c-0.4,0.5-0.5,1.2-0.5,2.1s0.2,1.6,0.5,2.1S208.9,41.5,209.7,41.5z"/>
	<path class="st1" d="M217.4,30.4V43h-2.1V30.4H217.4z"/>
	<path class="st1" d="M223,34.2c0.5,0,1.1,0.1,1.5,0.3c0.5,0.2,0.9,0.4,1.2,0.8c0.3,0.3,0.6,0.8,0.8,1.2c0.2,0.5,0.3,1,0.3,1.7
		c0,0.2,0,0.3,0,0.4c0,0.1,0,0.2-0.1,0.2s-0.1,0.1-0.1,0.1c-0.1,0-0.1,0-0.2,0h-5.4c0.1,0.9,0.3,1.6,0.7,2c0.4,0.4,1,0.6,1.7,0.6
		c0.3,0,0.6,0,0.9-0.1c0.2-0.1,0.5-0.2,0.6-0.3c0.2-0.1,0.3-0.2,0.5-0.3c0.1-0.1,0.3-0.1,0.4-0.1c0.1,0,0.2,0,0.2,0.1
		c0.1,0,0.1,0.1,0.2,0.1l0.6,0.8c-0.2,0.3-0.5,0.5-0.8,0.7s-0.6,0.3-0.9,0.4c-0.3,0.1-0.6,0.2-1,0.2c-0.3,0-0.6,0.1-0.9,0.1
		c-0.6,0-1.2-0.1-1.7-0.3s-1-0.5-1.4-0.9c-0.4-0.4-0.7-0.9-0.9-1.5c-0.2-0.6-0.3-1.3-0.3-2c0-0.6,0.1-1.2,0.3-1.7
		c0.2-0.5,0.5-1,0.8-1.4c0.4-0.4,0.8-0.7,1.3-0.9S222.3,34.2,223,34.2z M223,35.7c-0.6,0-1.1,0.2-1.4,0.5s-0.6,0.8-0.7,1.5h3.9
		c0-0.3,0-0.5-0.1-0.8c-0.1-0.2-0.2-0.5-0.3-0.6c-0.2-0.2-0.3-0.3-0.6-0.4C223.6,35.7,223.3,35.7,223,35.7z"/>
	<path class="st1" d="M234.5,34.2c0.5,0,1.1,0.1,1.5,0.3c0.5,0.2,0.9,0.4,1.2,0.8c0.3,0.3,0.6,0.8,0.8,1.2c0.2,0.5,0.3,1,0.3,1.7
		c0,0.2,0,0.3,0,0.4c0,0.1,0,0.2-0.1,0.2s-0.1,0.1-0.1,0.1c-0.1,0-0.1,0-0.2,0h-5.4c0.1,0.9,0.3,1.6,0.7,2c0.4,0.4,1,0.6,1.7,0.6
		c0.3,0,0.6,0,0.9-0.1c0.2-0.1,0.5-0.2,0.6-0.3c0.2-0.1,0.3-0.2,0.5-0.3c0.1-0.1,0.3-0.1,0.4-0.1c0.1,0,0.2,0,0.2,0.1
		c0.1,0,0.1,0.1,0.2,0.1l0.6,0.8c-0.2,0.3-0.5,0.5-0.8,0.7s-0.6,0.3-0.9,0.4c-0.3,0.1-0.6,0.2-1,0.2c-0.3,0-0.6,0.1-0.9,0.1
		c-0.6,0-1.2-0.1-1.7-0.3s-1-0.5-1.4-0.9c-0.4-0.4-0.7-0.9-0.9-1.5c-0.2-0.6-0.3-1.3-0.3-2c0-0.6,0.1-1.2,0.3-1.7
		c0.2-0.5,0.5-1,0.8-1.4c0.4-0.4,0.8-0.7,1.3-0.9S233.8,34.2,234.5,34.2z M234.5,35.7c-0.6,0-1.1,0.2-1.4,0.5s-0.6,0.8-0.7,1.5h3.9
		c0-0.3,0-0.5-0.1-0.8c-0.1-0.2-0.2-0.5-0.3-0.6c-0.2-0.2-0.3-0.3-0.6-0.4C235.1,35.7,234.8,35.7,234.5,35.7z"/>
	<path class="st1" d="M239.6,43v-8.7h1.3c0.3,0,0.5,0.1,0.5,0.4l0.1,0.6c0.2-0.2,0.3-0.3,0.5-0.5c0.2-0.1,0.3-0.3,0.5-0.4
		c0.2-0.1,0.4-0.2,0.6-0.2c0.2-0.1,0.5-0.1,0.7-0.1c0.5,0,1,0.1,1.4,0.4c0.4,0.3,0.6,0.7,0.8,1.2c0.1-0.3,0.3-0.5,0.5-0.7
		c0.2-0.2,0.4-0.4,0.7-0.5c0.2-0.1,0.5-0.2,0.8-0.3c0.3-0.1,0.6-0.1,0.8-0.1c0.5,0,0.9,0.1,1.3,0.2c0.4,0.1,0.7,0.4,0.9,0.6
		c0.3,0.3,0.4,0.6,0.6,1c0.1,0.4,0.2,0.9,0.2,1.4V43h-2.1v-5.6c0-0.6-0.1-1-0.4-1.3c-0.2-0.3-0.6-0.4-1.1-0.4c-0.2,0-0.4,0-0.6,0.1
		c-0.2,0.1-0.3,0.2-0.5,0.3c-0.1,0.1-0.2,0.3-0.3,0.5c-0.1,0.2-0.1,0.5-0.1,0.7V43h-2.1v-5.6c0-0.6-0.1-1-0.4-1.3
		c-0.2-0.3-0.6-0.4-1-0.4c-0.3,0-0.6,0.1-0.8,0.2c-0.3,0.1-0.5,0.4-0.7,0.6V43H239.6z"/>
	<path class="st1" d="M253.4,45.9V34.3h1.3c0.1,0,0.3,0,0.3,0.1s0.2,0.2,0.2,0.3l0.2,0.8c0.4-0.4,0.8-0.7,1.2-1
		c0.5-0.2,1-0.4,1.6-0.4c0.5,0,0.9,0.1,1.3,0.3c0.4,0.2,0.7,0.5,1,0.9s0.5,0.8,0.7,1.4c0.2,0.6,0.2,1.2,0.2,1.9
		c0,0.7-0.1,1.3-0.3,1.8c-0.2,0.6-0.4,1-0.8,1.4c-0.3,0.4-0.7,0.7-1.2,1c-0.5,0.2-1,0.3-1.6,0.3c-0.5,0-0.9-0.1-1.3-0.2
		s-0.7-0.4-0.9-0.6v3.6H253.4z M257.5,35.8c-0.4,0-0.8,0.1-1.1,0.3s-0.6,0.4-0.9,0.8v3.9c0.2,0.3,0.5,0.5,0.8,0.6s0.6,0.2,0.9,0.2
		c0.3,0,0.6-0.1,0.9-0.2s0.5-0.3,0.7-0.5c0.2-0.2,0.3-0.6,0.4-0.9s0.1-0.8,0.1-1.3c0-0.5,0-0.9-0.1-1.3c-0.1-0.4-0.2-0.6-0.4-0.9
		c-0.2-0.2-0.3-0.4-0.6-0.5C258,35.8,257.8,35.8,257.5,35.8z"/>
	<path class="st1" d="M264.9,30.4V43h-2.1V30.4H264.9z"/>
	<path class="st1" d="M270.5,34.2c0.7,0,1.2,0.1,1.8,0.3s1,0.5,1.4,0.9s0.7,0.9,0.9,1.4c0.2,0.6,0.3,1.2,0.3,1.9
		c0,0.7-0.1,1.3-0.3,1.9c-0.2,0.6-0.5,1-0.9,1.4s-0.8,0.7-1.4,0.9c-0.5,0.2-1.1,0.3-1.8,0.3s-1.2-0.1-1.8-0.3
		c-0.5-0.2-1-0.5-1.4-0.9s-0.7-0.9-0.9-1.4c-0.2-0.6-0.3-1.2-0.3-1.9c0-0.7,0.1-1.3,0.3-1.9c0.2-0.6,0.5-1,0.9-1.4s0.8-0.7,1.4-0.9
		C269.3,34.3,269.9,34.2,270.5,34.2z M270.5,41.5c0.7,0,1.3-0.2,1.6-0.7c0.3-0.5,0.5-1.2,0.5-2.1s-0.2-1.7-0.5-2.2
		c-0.3-0.5-0.9-0.7-1.6-0.7c-0.7,0-1.3,0.2-1.6,0.7c-0.4,0.5-0.5,1.2-0.5,2.1s0.2,1.6,0.5,2.1S269.8,41.5,270.5,41.5z"/>
	<path class="st1" d="M278.6,31.7c0,0.2,0,0.4-0.1,0.5c-0.1,0.2-0.2,0.3-0.3,0.4c-0.1,0.1-0.3,0.2-0.4,0.3s-0.3,0.1-0.5,0.1
		c-0.2,0-0.4,0-0.5-0.1s-0.3-0.2-0.4-0.3s-0.2-0.3-0.3-0.4c-0.1-0.2-0.1-0.3-0.1-0.5c0-0.2,0-0.4,0.1-0.5c0.1-0.2,0.2-0.3,0.3-0.4
		c0.1-0.1,0.3-0.2,0.4-0.3s0.3-0.1,0.5-0.1c0.2,0,0.4,0,0.5,0.1s0.3,0.2,0.4,0.3c0.1,0.1,0.2,0.3,0.3,0.4
		C278.6,31.4,278.6,31.6,278.6,31.7z M278.3,34.3V43h-2.1v-8.7H278.3z"/>
</g>
</svg>
