<?xml version="1.0" encoding="utf-8"?>
<!-- Generator: Adobe Illustrator 25.2.1, SVG Export Plug-In . SVG Version: 6.00 Build 0)  -->
<svg version="1.1" id="Calque_1" xmlns="http://www.w3.org/2000/svg" xmlns:xlink="http://www.w3.org/1999/xlink" x="0px" y="0px"
	 viewBox="0 0 515 75" style="enable-background:new 0 0 515 75;" xml:space="preserve">
<style type="text/css">
	.st0{fill:#1B2E57;}
	.st1{fill:#FFFFFF;}
</style>
<g id="Calque_1_-_copie">
	<path class="st0" d="M35.5,7.5h444c16.6,0,30,13.4,30,30l0,0c0,16.6-13.4,30-30,30h-444c-16.6,0-30-13.4-30-30l0,0
		C5.5,20.9,18.9,7.5,35.5,7.5z"/>
	<path class="st1" d="M132.5,46.2c-2.1-2.1-3.1-5-3.1-8.7c0-1.6,0.2-3.3,0.8-4.8c0.5-1.4,1.2-2.7,2.2-3.8c1-1.1,2.2-1.9,3.6-2.4
		c1.5-0.6,3.2-0.9,4.8-0.9c1.5,0,3.1,0.2,4.5,0.8c-6.2-7.8-17.5-9.2-25.3-3s-9.2,17.5-3,25.3s17.5,9.2,25.3,3c1-0.8,2-1.7,2.8-2.7
		c-1.3,0.3-2.6,0.5-3.9,0.5C137.5,49.4,134.6,48.3,132.5,46.2z"/>
	<path class="st1" d="M135.6,35.9h10.2c0.4,0,0.7-0.3,0.7-0.6c0-1.7-0.7-3.3-1.7-4.6c-1.1-1.1-2.5-1.7-4.1-1.6c-1.5-0.1-3,0.6-4,1.7
		c-1.1,1.3-1.7,2.9-1.8,4.5C134.8,35.6,135.2,35.9,135.6,35.9z"/>
	<path class="st1" d="M147,38.6h-11.5c-0.4,0-0.7,0.2-0.7,0.6c0,0,0,0,0,0.1c0,1.2,0.3,2.4,0.9,3.5c1,2.1,3.1,3.4,5.4,3.3
		c0.7,0,1.4-0.1,2.1-0.3c0.6-0.2,1.3-0.5,1.8-0.9c0.6-0.4,1.1-0.8,1.6-1.2c0.5-0.4,1.4-1.3,1.7-1.6c0.1-0.1,0.2-0.2,0.3-0.2
		c0.3-1.2,0.5-2.4,0.6-3.6C148.5,38.6,147.7,38.6,147,38.6z"/>
	<path class="st1" d="M145.6,48.8c2.3-0.8,4.8-3,5.2-5.2c0.3-1.4-0.6-1.7-1-1.8h-0.3c-0.3,0-0.6,0.1-0.9,0.2
		c-0.7,2.5-1.9,4.9-3.5,6.9L145.6,48.8z"/>
	<path class="st1" d="M149.2,38.4c0.4-0.1,0.9-0.2,1.3-0.4c0.7-0.4,1.1-1.2,1.1-2.6c0-1.6-0.4-3.2-1.2-4.6c-1.1-2-2.9-3.5-5-4.4
		c2.5,3.2,3.9,7.1,3.9,11.1C149.2,37.8,149.2,38.1,149.2,38.4z"/>
	<path class="st0" d="M146.6,43.8c-0.5,0.4-1,0.8-1.6,1.2c-0.6,0.4-1.2,0.7-1.8,0.8c-0.7,0.2-1.4,0.3-2.1,0.3
		c-2.3,0-4.4-1.3-5.4-3.3c-0.5-1.1-0.8-2.3-0.9-3.5c0-0.4,0.3-0.7,0.6-0.7c0,0,0,0,0.1,0H147c0.7,0,1.5-0.1,2.2-0.2
		c0-0.3,0-0.6,0-0.9c0-4-1.4-8-3.9-11.1c-1.4-0.5-3-0.8-4.5-0.8c-1.6,0-3.3,0.3-4.8,0.9c-1.4,0.5-2.6,1.3-3.6,2.4
		c-1,1.1-1.8,2.4-2.2,3.8c-0.5,1.6-0.8,3.2-0.8,4.8c0,3.7,1,6.6,3.1,8.7s5,3.2,8.8,3.2c1.3,0,2.6-0.1,3.9-0.5c1.7-2,2.8-4.4,3.5-6.9
		c-0.1,0.1-0.2,0.1-0.3,0.2C148,42.5,147.1,43.4,146.6,43.8z M134.9,35.3c0.1-1.7,0.7-3.2,1.8-4.5c1-1.1,2.5-1.7,4-1.7
		c1.5-0.1,3,0.5,4.1,1.6c1.1,1.3,1.7,2.9,1.7,4.6c0,0.4-0.3,0.6-0.7,0.6h-10.2C135.2,35.9,134.8,35.6,134.9,35.3z"/>
</g>
<g>
	<path class="st1" d="M175.4,32.2c-0.1,0.1-0.1,0.2-0.2,0.3c-0.1,0.1-0.2,0.1-0.3,0.1s-0.2,0-0.4-0.1c-0.2-0.1-0.3-0.2-0.6-0.3
		s-0.4-0.2-0.8-0.3c-0.3-0.1-0.7-0.1-1-0.1s-0.7,0-0.9,0.1c-0.2,0.1-0.4,0.2-0.7,0.3s-0.3,0.3-0.4,0.6c-0.1,0.2-0.1,0.4-0.1,0.7
		c0,0.3,0.1,0.6,0.2,0.8c0.2,0.2,0.4,0.4,0.7,0.6c0.3,0.1,0.7,0.3,1,0.4c0.3,0.1,0.8,0.2,1.1,0.3c0.4,0.1,0.8,0.3,1.1,0.4
		c0.3,0.2,0.7,0.4,1,0.7c0.3,0.2,0.6,0.6,0.7,1c0.2,0.4,0.2,0.9,0.2,1.4c0,0.7-0.1,1.2-0.3,1.8c-0.2,0.6-0.6,1-0.9,1.4
		c-0.4,0.4-0.9,0.7-1.4,1c-0.6,0.2-1.2,0.3-2,0.3c-0.4,0-0.9,0-1.3-0.1c-0.4-0.1-0.8-0.2-1.2-0.3c-0.3-0.1-0.8-0.3-1.1-0.6
		c-0.3-0.2-0.7-0.4-0.9-0.8l0.8-1.2c0.1-0.1,0.1-0.1,0.2-0.2c0.1-0.1,0.2-0.1,0.3-0.1c0.1,0,0.3,0.1,0.6,0.2
		c0.2,0.1,0.4,0.2,0.7,0.4c0.2,0.1,0.6,0.3,0.9,0.4c0.3,0.1,0.8,0.2,1.2,0.2c0.8,0,1.3-0.2,1.7-0.6c0.4-0.3,0.6-0.9,0.6-1.4
		c0-0.3-0.1-0.7-0.2-0.9c-0.2-0.2-0.4-0.4-0.7-0.6c-0.3-0.1-0.7-0.3-1-0.4c-0.3-0.1-0.8-0.2-1.1-0.3c-0.4-0.1-0.8-0.2-1.1-0.4
		s-0.7-0.4-1-0.7c-0.3-0.3-0.6-0.7-0.7-1.1c-0.2-0.4-0.2-1-0.2-1.6c0-0.4,0.1-1,0.3-1.4c0.2-0.4,0.4-0.9,0.9-1.2
		c0.3-0.3,0.9-0.7,1.4-0.9c0.6-0.2,1.2-0.3,1.9-0.3c0.8,0,1.6,0.1,2.2,0.3c0.7,0.2,1.2,0.6,1.8,1.1L175.4,32.2z"/>
	<path class="st1" d="M181.6,33.6c0.6,0,1.2,0.1,1.7,0.3c0.6,0.2,1,0.4,1.3,0.9c0.3,0.3,0.7,0.9,0.9,1.3c0.2,0.6,0.3,1.1,0.3,1.9
		c0,0.2,0,0.3,0,0.4c0,0.1,0,0.2-0.1,0.2c0,0.1-0.1,0.1-0.1,0.1s-0.1,0-0.2,0h-6c0.1,1,0.3,1.8,0.8,2.2c0.4,0.4,1.1,0.7,1.9,0.7
		c0.3,0,0.7,0,1-0.1c0.2-0.1,0.6-0.2,0.7-0.3c0.2-0.1,0.3-0.2,0.6-0.3c0.1-0.1,0.3-0.1,0.4-0.1c0.1,0,0.2,0,0.2,0.1
		c0,0.1,0.1,0.1,0.2,0.1l0.7,0.9c-0.2,0.3-0.6,0.6-0.9,0.8c-0.3,0.2-0.7,0.3-1,0.4c-0.3,0.1-0.7,0.2-1.1,0.2c-0.3,0-0.7,0.1-1,0.1
		c-0.7,0-1.3-0.1-1.9-0.3c-0.6-0.2-1.1-0.6-1.6-1c-0.4-0.4-0.8-1-1-1.7S177,39,177,38.2c0-0.7,0.1-1.3,0.3-1.9
		c0.2-0.6,0.6-1.1,0.9-1.6c0.3-0.4,0.9-0.8,1.4-1C180.2,33.6,180.9,33.6,181.6,33.6z M181.7,35.2c-0.7,0-1.2,0.2-1.6,0.6
		c-0.3,0.3-0.7,0.9-0.8,1.7h4.3c0-0.3,0-0.6-0.1-0.9c-0.1-0.2-0.2-0.6-0.3-0.7c-0.2-0.2-0.3-0.3-0.7-0.4
		C182.2,35.2,182,35.2,181.7,35.2z"/>
	<path class="st1" d="M197.2,35.7c-0.1,0.1-0.1,0.1-0.2,0.2c-0.1,0.1-0.1,0.1-0.3,0.1c-0.1,0-0.2,0-0.3-0.1
		c-0.1-0.1-0.2-0.1-0.4-0.2c-0.1-0.1-0.3-0.2-0.6-0.2c-0.2-0.1-0.4-0.1-0.8-0.1c-0.4,0-0.8,0.1-1.1,0.2c-0.3,0.1-0.6,0.3-0.8,0.7
		c-0.2,0.2-0.3,0.7-0.4,1c-0.1,0.4-0.1,0.9-0.1,1.3c0,0.6,0,1,0.1,1.3c0.1,0.4,0.2,0.8,0.4,1c0.2,0.2,0.4,0.4,0.8,0.7
		c0.3,0.1,0.7,0.2,1,0.2s0.7,0,0.9-0.1c0.2-0.1,0.4-0.2,0.6-0.3c0.1-0.1,0.3-0.2,0.4-0.3c0.1-0.1,0.2-0.1,0.4-0.1
		c0.2,0,0.3,0.1,0.4,0.2l0.7,0.9c-0.2,0.3-0.6,0.6-0.9,0.8s-0.7,0.3-0.9,0.4c-0.3,0.1-0.7,0.2-1,0.2s-0.7,0.1-1,0.1
		c-0.6,0-1.1-0.1-1.7-0.3c-0.6-0.2-1-0.6-1.3-1c-0.4-0.4-0.7-1-0.9-1.6c-0.2-0.7-0.3-1.3-0.3-2.1c0-0.7,0.1-1.3,0.3-2
		c0.2-0.7,0.6-1.1,0.9-1.6c0.3-0.4,0.9-0.8,1.4-1c0.6-0.2,1.2-0.3,2-0.3c0.8,0,1.3,0.1,1.9,0.3c0.6,0.2,1,0.6,1.4,1L197.2,35.7z"/>
	<path class="st1" d="M203,33.6c0.8,0,1.3,0.1,2,0.3s1.1,0.6,1.6,1c0.4,0.4,0.8,1,1,1.6c0.2,0.7,0.3,1.3,0.3,2.1s-0.1,1.4-0.3,2.1
		c-0.2,0.7-0.6,1.1-1,1.6c-0.4,0.4-0.9,0.8-1.6,1c-0.6,0.2-1.2,0.3-2,0.3c-0.8,0-1.3-0.1-2-0.3c-0.6-0.2-1.1-0.6-1.6-1
		c-0.4-0.4-0.8-1-1-1.6c-0.2-0.7-0.3-1.3-0.3-2.1s0.1-1.4,0.3-2.1c0.2-0.7,0.6-1.1,1-1.6c0.4-0.4,0.9-0.8,1.6-1S202.3,33.6,203,33.6
		z M203,41.7c0.8,0,1.4-0.2,1.8-0.8c0.3-0.6,0.6-1.3,0.6-2.3s-0.2-1.9-0.6-2.4c-0.3-0.6-1-0.8-1.8-0.8c-0.8,0-1.4,0.2-1.8,0.8
		c-0.4,0.6-0.6,1.3-0.6,2.3c0,1,0.2,1.8,0.6,2.3C201.6,41.5,202.2,41.7,203,41.7z"/>
	<path class="st1" d="M209.2,43.3v-9.6h1.4c0.3,0,0.6,0.1,0.6,0.4l0.1,0.8c0.2-0.2,0.4-0.3,0.7-0.6c0.2-0.1,0.4-0.3,0.7-0.4
		c0.2-0.1,0.6-0.2,0.8-0.2s0.6-0.1,0.9-0.1c0.6,0,1,0.1,1.4,0.2s0.8,0.4,1,0.8c0.2,0.3,0.4,0.7,0.7,1.1c0.2,0.4,0.2,1,0.2,1.4v6.2
		h-2.3v-6.2c0-0.6-0.1-1-0.4-1.3c-0.2-0.3-0.7-0.4-1.2-0.4c-0.4,0-0.8,0.1-1.1,0.2c-0.3,0.2-0.7,0.4-1,0.8v7H209.2z"/>
	<path class="st1" d="M219.4,43.3v-9.6h1.4c0.3,0,0.6,0.1,0.6,0.4l0.1,0.8c0.2-0.2,0.4-0.3,0.7-0.6c0.2-0.1,0.4-0.3,0.7-0.4
		c0.2-0.1,0.6-0.2,0.8-0.2s0.6-0.1,0.9-0.1c0.6,0,1,0.1,1.4,0.2s0.8,0.4,1,0.8c0.2,0.3,0.4,0.7,0.7,1.1c0.2,0.4,0.2,1,0.2,1.4v6.2
		h-2.3v-6.2c0-0.6-0.1-1-0.4-1.3c-0.2-0.3-0.7-0.4-1.2-0.4c-0.4,0-0.8,0.1-1.1,0.2c-0.3,0.2-0.7,0.4-1,0.8v7H219.4z"/>
	<path class="st1" d="M233.6,33.6c0.6,0,1.2,0.1,1.7,0.3c0.6,0.2,1,0.4,1.3,0.9c0.3,0.3,0.7,0.9,0.9,1.3c0.2,0.6,0.3,1.1,0.3,1.9
		c0,0.2,0,0.3,0,0.4c0,0.1,0,0.2-0.1,0.2c0,0.1-0.1,0.1-0.1,0.1s-0.1,0-0.2,0h-6c0.1,1,0.3,1.8,0.8,2.2c0.4,0.4,1.1,0.7,1.9,0.7
		c0.3,0,0.7,0,1-0.1c0.2-0.1,0.6-0.2,0.7-0.3c0.2-0.1,0.3-0.2,0.6-0.3c0.1-0.1,0.3-0.1,0.4-0.1c0.1,0,0.2,0,0.2,0.1
		c0,0.1,0.1,0.1,0.2,0.1l0.7,0.9c-0.2,0.3-0.6,0.6-0.9,0.8c-0.3,0.2-0.7,0.3-1,0.4c-0.3,0.1-0.7,0.2-1.1,0.2c-0.3,0-0.7,0.1-1,0.1
		c-0.7,0-1.3-0.1-1.9-0.3c-0.6-0.2-1.1-0.6-1.6-1s-0.8-1-1-1.7c-0.2-0.7-0.3-1.4-0.3-2.2c0-0.7,0.1-1.3,0.3-1.9
		c0.2-0.6,0.6-1.1,0.9-1.6c0.3-0.4,0.9-0.8,1.4-1S232.9,33.6,233.6,33.6z M233.7,35.2c-0.7,0-1.2,0.2-1.6,0.6
		c-0.3,0.3-0.7,0.9-0.8,1.7h4.3c0-0.3,0-0.6-0.1-0.9c-0.1-0.2-0.2-0.6-0.3-0.7c-0.2-0.2-0.3-0.3-0.7-0.4
		C234.4,35.2,234,35.2,233.7,35.2z"/>
	<path class="st1" d="M246,35.7c-0.1,0.1-0.1,0.1-0.2,0.2c-0.1,0.1-0.1,0.1-0.3,0.1c-0.1,0-0.2,0-0.3-0.1c-0.1-0.1-0.2-0.1-0.4-0.2
		c-0.1-0.1-0.3-0.2-0.6-0.2c-0.2-0.1-0.4-0.1-0.8-0.1c-0.4,0-0.8,0.1-1.1,0.2c-0.3,0.1-0.6,0.3-0.8,0.7c-0.2,0.2-0.3,0.7-0.4,1
		c-0.1,0.4-0.1,0.9-0.1,1.3c0,0.6,0,1,0.1,1.3c0.1,0.4,0.2,0.8,0.4,1c0.2,0.2,0.4,0.4,0.8,0.7c0.3,0.1,0.7,0.2,1,0.2
		c0.3,0,0.7,0,0.9-0.1c0.2-0.1,0.4-0.2,0.6-0.3s0.3-0.2,0.4-0.3c0.1-0.1,0.2-0.1,0.4-0.1c0.2,0,0.3,0.1,0.4,0.2l0.7,0.9
		c-0.2,0.3-0.6,0.6-0.9,0.8c-0.3,0.2-0.7,0.3-0.9,0.4c-0.3,0.1-0.7,0.2-1,0.2s-0.7,0.1-1,0.1c-0.6,0-1.1-0.1-1.7-0.3
		c-0.6-0.2-1-0.6-1.3-1c-0.4-0.4-0.7-1-0.9-1.6c-0.2-0.7-0.3-1.3-0.3-2.1c0-0.7,0.1-1.3,0.3-2c0.2-0.7,0.6-1.1,0.9-1.6
		c0.3-0.4,0.9-0.8,1.4-1c0.6-0.2,1.2-0.3,2-0.3s1.3,0.1,1.9,0.3c0.6,0.2,1,0.6,1.4,1L246,35.7z"/>
	<path class="st1" d="M250.9,43.4c-0.9,0-1.4-0.2-1.9-0.7c-0.4-0.4-0.7-1.1-0.7-2v-5.4h-1c-0.1,0-0.2,0-0.3-0.1s-0.1-0.2-0.1-0.3V34
		l1.6-0.2l0.4-2.7c0-0.1,0.1-0.2,0.2-0.3c0.1-0.1,0.2-0.1,0.3-0.1h1.2v3h2.6v1.7h-2.6v5.2c0,0.3,0.1,0.6,0.2,0.7
		c0.1,0.2,0.3,0.2,0.6,0.2c0.1,0,0.2,0,0.3,0s0.2-0.1,0.2-0.1c0.1,0,0.1-0.1,0.2-0.1c0.1,0,0.1,0,0.2,0c0.1,0,0.1,0,0.2,0l0.1,0.1
		l0.7,1.1c-0.3,0.3-0.8,0.4-1.2,0.7C251.9,43.4,251.4,43.4,250.9,43.4z"/>
	<path class="st1" d="M258.5,33.6c0.6,0,1.2,0.1,1.7,0.3c0.6,0.2,1,0.4,1.3,0.9c0.3,0.3,0.7,0.9,0.9,1.3c0.2,0.6,0.3,1.1,0.3,1.9
		c0,0.2,0,0.3,0,0.4c0,0.1,0,0.2-0.1,0.2c0,0.1-0.1,0.1-0.1,0.1s-0.1,0-0.2,0h-6c0.1,1,0.3,1.8,0.8,2.2c0.4,0.4,1.1,0.7,1.9,0.7
		c0.3,0,0.7,0,1-0.1c0.2-0.1,0.6-0.2,0.7-0.3c0.2-0.1,0.3-0.2,0.6-0.3c0.1-0.1,0.3-0.1,0.4-0.1s0.2,0,0.2,0.1c0,0.1,0.1,0.1,0.2,0.1
		l0.7,0.9c-0.2,0.3-0.6,0.6-0.9,0.8c-0.3,0.2-0.7,0.3-1,0.4c-0.3,0.1-0.7,0.2-1.1,0.2c-0.3,0-0.7,0.1-1,0.1c-0.7,0-1.3-0.1-1.9-0.3
		c-0.6-0.2-1.1-0.6-1.6-1c-0.4-0.4-0.8-1-1-1.7S254,39,254,38.2c0-0.7,0.1-1.3,0.3-1.9s0.6-1.1,0.9-1.6c0.3-0.4,0.9-0.8,1.4-1
		S257.9,33.6,258.5,33.6z M258.6,35.2c-0.7,0-1.2,0.2-1.6,0.6c-0.3,0.3-0.7,0.9-0.8,1.7h4.3c0-0.3,0-0.6-0.1-0.9
		c-0.1-0.2-0.2-0.6-0.3-0.7c-0.2-0.2-0.3-0.3-0.7-0.4C259.3,35.2,259,35.2,258.6,35.2z"/>
	<path class="st1" d="M264.2,43.3v-9.6h1.3c0.2,0,0.4,0,0.6,0.1s0.1,0.2,0.2,0.4l0.1,1.2c0.3-0.6,0.8-1.1,1.2-1.4
		c0.4-0.3,1-0.6,1.6-0.6c0.4,0,0.9,0.1,1.2,0.3l-0.3,1.8c0,0.1-0.1,0.2-0.1,0.2s-0.1,0.1-0.2,0.1s-0.2,0-0.3-0.1s-0.3-0.1-0.7-0.1
		c-0.4,0-0.9,0.1-1.2,0.4c-0.3,0.2-0.7,0.7-0.9,1.2v6H264.2z"/>
	<path class="st1" d="M282.2,43.3h-1c-0.2,0-0.4,0-0.6-0.1s-0.2-0.2-0.3-0.4l-0.2-0.7c-0.2,0.2-0.4,0.4-0.8,0.6
		c-0.2,0.2-0.4,0.3-0.8,0.4c-0.3,0.1-0.6,0.2-0.8,0.2c-0.3,0.1-0.6,0.1-0.9,0.1c-0.4,0-0.8-0.1-1.1-0.2c-0.3-0.1-0.7-0.2-0.9-0.4
		c-0.2-0.2-0.4-0.4-0.6-0.8c-0.1-0.3-0.2-0.7-0.2-1.1c0-0.3,0.1-0.8,0.3-1.1c0.2-0.3,0.6-0.7,1-1c0.4-0.3,1-0.6,1.8-0.7
		c0.8-0.2,1.7-0.3,2.8-0.3v-0.6c0-0.7-0.1-1.1-0.4-1.4c-0.2-0.3-0.7-0.4-1.2-0.4c-0.3,0-0.7,0-0.9,0.1c-0.2,0.1-0.4,0.2-0.7,0.3
		s-0.3,0.2-0.6,0.3c-0.1,0.1-0.3,0.1-0.6,0.1c-0.1,0-0.3,0-0.4-0.1c-0.1-0.1-0.2-0.2-0.2-0.3l-0.4-0.8c1.1-1,2.4-1.6,4-1.6
		c0.6,0,1.1,0.1,1.6,0.3c0.4,0.2,0.8,0.4,1.1,0.8c0.3,0.3,0.6,0.8,0.7,1.2c0.1,0.4,0.2,1,0.2,1.6v6H282.2z M277.6,41.9
		c0.2,0,0.4,0,0.7-0.1c0.2,0,0.4-0.1,0.6-0.2c0.1-0.1,0.3-0.2,0.6-0.3c0.2-0.1,0.3-0.2,0.6-0.4v-1.7c-0.7,0-1.2,0-1.7,0.1
		c-0.4,0.1-0.8,0.2-1.1,0.3c-0.2,0.1-0.4,0.3-0.6,0.4c-0.1,0.1-0.2,0.3-0.2,0.6c0,0.4,0.1,0.7,0.3,0.9
		C276.9,41.8,277.3,41.9,277.6,41.9z"/>
	<path class="st1" d="M288.5,43.3h-2.1l-3.9-9.6h1.9c0.2,0,0.3,0,0.4,0.1s0.2,0.2,0.2,0.3l1.9,5.2c0.1,0.3,0.2,0.6,0.2,0.9
		c0,0.3,0.1,0.6,0.2,0.9c0.1-0.3,0.1-0.6,0.2-0.9c0.1-0.3,0.1-0.6,0.2-0.9l1.9-5.2c0-0.1,0.1-0.2,0.2-0.3c0.1-0.1,0.2-0.1,0.4-0.1
		h1.9L288.5,43.3z"/>
	<path class="st1" d="M296.9,33.6c0.6,0,1.2,0.1,1.7,0.3c0.6,0.2,1,0.4,1.3,0.9c0.3,0.3,0.7,0.9,0.9,1.3c0.2,0.6,0.3,1.1,0.3,1.9
		c0,0.2,0,0.3,0,0.4c0,0.1,0,0.2-0.1,0.2s-0.1,0.1-0.1,0.1s-0.1,0-0.2,0h-6c0.1,1,0.3,1.8,0.8,2.2c0.4,0.4,1.1,0.7,1.9,0.7
		c0.3,0,0.7,0,1-0.1c0.2-0.1,0.6-0.2,0.7-0.3c0.2-0.1,0.3-0.2,0.6-0.3c0.1-0.1,0.3-0.1,0.4-0.1s0.2,0,0.2,0.1c0,0.1,0.1,0.1,0.2,0.1
		l0.7,0.9c-0.2,0.3-0.6,0.6-0.9,0.8c-0.3,0.2-0.7,0.3-1,0.4c-0.3,0.1-0.7,0.2-1.1,0.2s-0.7,0.1-1,0.1c-0.7,0-1.3-0.1-1.9-0.3
		c-0.6-0.2-1.1-0.6-1.6-1s-0.8-1-1-1.7c-0.2-0.7-0.3-1.4-0.3-2.2c0-0.7,0.1-1.3,0.3-1.9c0.2-0.6,0.6-1.1,0.9-1.6
		c0.3-0.4,0.9-0.8,1.4-1S296.2,33.6,296.9,33.6z M297,35.2c-0.7,0-1.2,0.2-1.6,0.6c-0.3,0.3-0.7,0.9-0.8,1.7h4.3
		c0-0.3,0-0.6-0.1-0.9c-0.1-0.2-0.2-0.6-0.3-0.7c-0.2-0.2-0.3-0.3-0.7-0.4C297.6,35.2,297.3,35.2,297,35.2z"/>
	<path class="st1" d="M309.3,35.7c-0.1,0.1-0.1,0.1-0.2,0.2C309,36,309,36,308.8,36c-0.1,0-0.2,0-0.3-0.1c-0.1-0.1-0.2-0.1-0.4-0.2
		c-0.1-0.1-0.3-0.2-0.6-0.2c-0.2-0.1-0.4-0.1-0.8-0.1c-0.4,0-0.8,0.1-1.1,0.2c-0.3,0.1-0.6,0.3-0.8,0.7c-0.2,0.2-0.3,0.7-0.4,1
		c-0.1,0.4-0.1,0.9-0.1,1.3c0,0.6,0,1,0.1,1.3c0.1,0.4,0.2,0.8,0.4,1c0.2,0.2,0.4,0.4,0.8,0.7c0.3,0.1,0.7,0.2,1,0.2
		c0.3,0,0.7,0,0.9-0.1c0.2-0.1,0.4-0.2,0.6-0.3s0.3-0.2,0.4-0.3s0.2-0.1,0.4-0.1c0.2,0,0.3,0.1,0.4,0.2L310,42
		c-0.2,0.3-0.6,0.6-0.9,0.8c-0.3,0.2-0.7,0.3-0.9,0.4c-0.3,0.1-0.7,0.2-1,0.2s-0.7,0.1-1,0.1c-0.6,0-1.1-0.1-1.7-0.3
		c-0.6-0.2-1-0.6-1.3-1c-0.4-0.4-0.7-1-0.9-1.6c-0.2-0.7-0.3-1.3-0.3-2.1c0-0.7,0.1-1.3,0.3-2c0.2-0.6,0.6-1.1,0.9-1.6
		c0.3-0.4,0.9-0.8,1.4-1c0.6-0.2,1.2-0.3,2-0.3s1.3,0.1,1.9,0.3c0.6,0.2,1,0.6,1.4,1L309.3,35.7z"/>
	<path class="st1" d="M317,38.6v4.8h-2.6V29.7h4.4c0.9,0,1.7,0.1,2.3,0.3s1.2,0.6,1.7,0.9s0.8,0.9,1,1.3c0.2,0.6,0.3,1.1,0.3,1.8
		s-0.1,1.2-0.3,1.8c-0.2,0.6-0.6,1-1,1.4c-0.4,0.4-1,0.7-1.7,0.9s-1.4,0.3-2.3,0.3H317V38.6z M317,36.6h1.9c0.4,0,0.9-0.1,1.2-0.2
		c0.3-0.1,0.7-0.3,0.9-0.6c0.2-0.2,0.4-0.4,0.6-0.8c0.1-0.3,0.2-0.7,0.2-1c0-0.3-0.1-0.7-0.2-1c-0.1-0.3-0.3-0.6-0.6-0.8
		c-0.2-0.2-0.6-0.3-0.9-0.4c-0.3-0.1-0.8-0.1-1.2-0.1H317V36.6z"/>
	<path class="st1" d="M329.4,33.6c0.8,0,1.3,0.1,2,0.3s1.1,0.6,1.6,1c0.4,0.4,0.8,1,1,1.6c0.2,0.7,0.3,1.3,0.3,2.1s-0.1,1.4-0.3,2.1
		c-0.2,0.7-0.6,1.1-1,1.6c-0.4,0.4-0.9,0.8-1.6,1c-0.6,0.2-1.2,0.3-2,0.3s-1.3-0.1-2-0.3c-0.6-0.2-1.1-0.6-1.6-1
		c-0.4-0.4-0.8-1-1-1.6c-0.2-0.7-0.3-1.3-0.3-2.1s0.1-1.4,0.3-2.1c0.2-0.7,0.6-1.1,1-1.6c0.4-0.4,0.9-0.8,1.6-1
		C328,33.7,328.6,33.6,329.4,33.6z M332.6,32.4h-1.6c-0.2,0-0.3-0.1-0.4-0.2l-1-0.9l-0.1-0.1l-0.1-0.1l-0.1,0.1l-0.1,0.1l-1,0.9
		c0,0-0.1,0.1-0.2,0.1c-0.1,0-0.2,0-0.2,0h-1.7l2.1-2.7h2.2L332.6,32.4z M329.4,41.7c0.8,0,1.4-0.2,1.8-0.8c0.3-0.6,0.6-1.3,0.6-2.3
		s-0.2-1.9-0.6-2.4c-0.3-0.6-1-0.8-1.8-0.8s-1.4,0.2-1.8,0.8c-0.4,0.6-0.6,1.3-0.6,2.3c0,1,0.2,1.8,0.6,2.3
		C328,41.3,328.5,41.7,329.4,41.7z"/>
	<path class="st1" d="M337.9,29.4v14h-2.3v-14H337.9z"/>
	<path class="st1" d="M344.1,33.6c0.6,0,1.2,0.1,1.7,0.3c0.6,0.2,1,0.4,1.3,0.9c0.3,0.3,0.7,0.9,0.9,1.3c0.2,0.6,0.3,1.1,0.3,1.9
		c0,0.2,0,0.3,0,0.4c0,0.1,0,0.2-0.1,0.2s-0.1,0.1-0.1,0.1c-0.1,0-0.1,0-0.2,0h-6c0.1,1,0.3,1.8,0.8,2.2c0.4,0.4,1.1,0.7,1.9,0.7
		c0.3,0,0.7,0,1-0.1c0.2-0.1,0.6-0.2,0.7-0.3c0.2-0.1,0.3-0.2,0.6-0.3c0.1-0.1,0.3-0.1,0.4-0.1c0.1,0,0.2,0,0.2,0.1
		c0.1,0,0.1,0.1,0.2,0.1l0.7,0.9c-0.2,0.3-0.6,0.6-0.9,0.8c-0.3,0.2-0.7,0.3-1,0.4c-0.3,0.1-0.7,0.2-1.1,0.2c-0.3,0-0.7,0.1-1,0.1
		c-0.7,0-1.3-0.1-1.9-0.3c-0.6-0.2-1.1-0.6-1.6-1s-0.8-1-1-1.7c-0.2-0.7-0.3-1.4-0.3-2.2c0-0.7,0.1-1.3,0.3-1.9
		c0.2-0.6,0.6-1.1,0.9-1.6c0.4-0.4,0.9-0.8,1.4-1C342.8,33.6,343.4,33.6,344.1,33.6z M344.1,35.2c-0.7,0-1.2,0.2-1.6,0.6
		c-0.3,0.3-0.7,0.9-0.8,1.7h4.3c0-0.3,0-0.6-0.1-0.9c-0.1-0.2-0.2-0.6-0.3-0.7c-0.2-0.2-0.3-0.3-0.7-0.4
		C344.8,35.2,344.5,35.2,344.1,35.2z"/>
	<path class="st1" d="M356.9,33.6c0.6,0,1.2,0.1,1.7,0.3c0.6,0.2,1,0.4,1.3,0.9c0.3,0.3,0.7,0.9,0.9,1.3c0.2,0.6,0.3,1.1,0.3,1.9
		c0,0.2,0,0.3,0,0.4c0,0.1,0,0.2-0.1,0.2s-0.1,0.1-0.1,0.1c-0.1,0-0.1,0-0.2,0h-6c0.1,1,0.3,1.8,0.8,2.2c0.4,0.4,1.1,0.7,1.9,0.7
		c0.3,0,0.7,0,1-0.1c0.2-0.1,0.6-0.2,0.7-0.3c0.2-0.1,0.3-0.2,0.6-0.3c0.1-0.1,0.3-0.1,0.4-0.1c0.1,0,0.2,0,0.2,0.1
		c0.1,0,0.1,0.1,0.2,0.1l0.7,0.9c-0.2,0.3-0.6,0.6-0.9,0.8c-0.3,0.2-0.7,0.3-1,0.4c-0.3,0.1-0.7,0.2-1.1,0.2c-0.3,0-0.7,0.1-1,0.1
		c-0.7,0-1.3-0.1-1.9-0.3c-0.6-0.2-1.1-0.6-1.6-1s-0.8-1-1-1.7s-0.3-1.4-0.3-2.2c0-0.7,0.1-1.3,0.3-1.9s0.6-1.1,0.9-1.6
		c0.4-0.4,0.9-0.8,1.4-1S356.1,33.6,356.9,33.6z M356.9,35.2c-0.7,0-1.2,0.2-1.6,0.6c-0.3,0.3-0.7,0.9-0.8,1.7h4.3
		c0-0.3,0-0.6-0.1-0.9c-0.1-0.2-0.2-0.6-0.3-0.7c-0.2-0.2-0.3-0.3-0.7-0.4C357.6,35.2,357.2,35.2,356.9,35.2z"/>
	<path class="st1" d="M362.6,43.3v-9.6h1.4c0.3,0,0.6,0.1,0.6,0.4l0.1,0.7c0.2-0.2,0.3-0.3,0.6-0.6c0.2-0.1,0.3-0.3,0.6-0.4
		c0.2-0.1,0.4-0.2,0.7-0.2c0.2-0.1,0.6-0.1,0.8-0.1c0.6,0,1.1,0.1,1.6,0.4c0.4,0.3,0.7,0.8,0.9,1.3c0.1-0.3,0.3-0.6,0.6-0.8
		c0.2-0.2,0.4-0.4,0.8-0.6c0.2-0.1,0.6-0.2,0.9-0.3c0.3-0.1,0.7-0.1,0.9-0.1c0.6,0,1,0.1,1.4,0.2c0.4,0.1,0.8,0.4,1,0.7
		c0.3,0.3,0.4,0.7,0.7,1.1c0.1,0.4,0.2,1,0.2,1.6v6.3h-2.3v-6.2c0-0.7-0.1-1.1-0.4-1.4c-0.2-0.3-0.7-0.4-1.2-0.4
		c-0.2,0-0.4,0-0.7,0.1s-0.3,0.2-0.6,0.3c-0.1,0.1-0.2,0.3-0.3,0.6s-0.1,0.6-0.1,0.8v6.3h-2.3v-6.2c0-0.7-0.1-1.1-0.4-1.4
		c-0.2-0.3-0.7-0.4-1.1-0.4c-0.3,0-0.7,0.1-0.9,0.2c-0.3,0.1-0.6,0.4-0.8,0.7v7.2H362.6z"/>
	<path class="st1" d="M377.9,46.6V33.7h1.4c0.1,0,0.3,0,0.3,0.1s0.2,0.2,0.2,0.3l0.2,0.9c0.4-0.4,0.9-0.8,1.3-1.1
		c0.6-0.2,1.1-0.4,1.8-0.4c0.6,0,1,0.1,1.4,0.3c0.4,0.2,0.8,0.6,1.1,1s0.6,0.9,0.8,1.6c0.2,0.7,0.2,1.3,0.2,2.1c0,0.8-0.1,1.4-0.3,2
		c-0.2,0.7-0.4,1.1-0.9,1.6c-0.3,0.4-0.8,0.8-1.3,1.1c-0.6,0.2-1.1,0.3-1.8,0.3c-0.6,0-1-0.1-1.4-0.2s-0.8-0.4-1-0.7v4
		C380,46.6,377.9,46.6,377.9,46.6z M382.4,35.4c-0.4,0-0.9,0.1-1.2,0.3s-0.7,0.4-1,0.9v4.3c0.2,0.3,0.6,0.6,0.9,0.7s0.7,0.2,1,0.2
		s0.7-0.1,1-0.2s0.6-0.3,0.8-0.6c0.2-0.2,0.3-0.7,0.4-1c0.1-0.3,0.1-0.9,0.1-1.4c0-0.6,0-1-0.1-1.4c-0.1-0.4-0.2-0.7-0.4-1
		c-0.2-0.2-0.3-0.4-0.7-0.6C383,35.4,382.7,35.4,382.4,35.4z"/>
	<path class="st1" d="M390.6,29.4v14h-2.3v-14H390.6z"/>
	<path class="st1" d="M396.8,33.6c0.8,0,1.3,0.1,2,0.3s1.1,0.6,1.6,1c0.4,0.4,0.8,1,1,1.6c0.2,0.7,0.3,1.3,0.3,2.1s-0.1,1.4-0.3,2.1
		c-0.2,0.7-0.6,1.1-1,1.6c-0.4,0.4-0.9,0.8-1.6,1c-0.6,0.2-1.2,0.3-2,0.3s-1.3-0.1-2-0.3c-0.6-0.2-1.1-0.6-1.6-1
		c-0.4-0.4-0.8-1-1-1.6c-0.2-0.7-0.3-1.3-0.3-2.1s0.1-1.4,0.3-2.1c0.2-0.7,0.6-1.1,1-1.6c0.4-0.4,0.9-0.8,1.6-1
		C395.5,33.7,396.2,33.6,396.8,33.6z M396.8,41.7c0.8,0,1.4-0.2,1.8-0.8c0.3-0.6,0.6-1.3,0.6-2.3s-0.2-1.9-0.6-2.4
		c-0.3-0.6-1-0.8-1.8-0.8c-0.8,0-1.4,0.2-1.8,0.8c-0.4,0.6-0.6,1.3-0.6,2.3c0,1,0.2,1.8,0.6,2.3C395.4,41.3,396,41.7,396.8,41.7z"/>
	<path class="st1" d="M405.8,30.8c0,0.2,0,0.4-0.1,0.6c-0.1,0.2-0.2,0.3-0.3,0.4c-0.1,0.1-0.3,0.2-0.4,0.3s-0.3,0.1-0.6,0.1
		s-0.4,0-0.6-0.1s-0.3-0.2-0.4-0.3s-0.2-0.3-0.3-0.4c-0.1-0.2-0.1-0.3-0.1-0.6c0-0.2,0-0.4,0.1-0.6c0.1-0.2,0.2-0.3,0.3-0.4
		c0.1-0.1,0.3-0.2,0.4-0.3c0.1-0.1,0.3-0.1,0.6-0.1s0.4,0,0.6,0.1c0.1,0.1,0.3,0.2,0.4,0.3c0.1,0.1,0.2,0.3,0.3,0.4
		C405.8,30.5,405.8,30.7,405.8,30.8z M405.5,33.7v9.6h-2.3v-9.6H405.5z"/>
</g>
</svg>
