<svg xmlns="http://www.w3.org/2000/svg" viewBox="0 0 368.167 368.167" style="enable-background:new 0 0 368.167 368.167" xml:space="preserve">
  <path fill="#cecece" stroke="#cecece" stroke-width="15" d="M248.084 96.684h12c4.4 0 8-3.6 8-8s-3.6-8-8-8h-12c-4.4 0-8 3.6-8 8s3.6 8 8 8z" />
  <path fill="#cecece" stroke="#cecece" stroke-width="15" d="M366.484 25.484c-2.8-5.6-8.4-8.8-14.4-8.8h-336c-6 0-11.6 3.6-14.4 8.8-2.8 5.6-2 12 1.6 16.8l141.2 177.6v115.6c0 6 3.2 11.2 8.4 14 2.4 1.2 4.8 2 7.6 2 3.2 0 6.4-.8 9.2-2.8l44.4-30.8c6.4-4.8 10-12 10-19.6v-78.8l140.8-177.2c3.6-4.8 4.4-11.2 1.6-16.8zm-156.8 186.4c-.8 1.2-1.6 2.8-1.6 4.8v81.2c0 2.8-1.2 5.2-3.2 6.8l-44.4 30.8v-118.8c0-2.8-1.2-5.2-3.2-6.4l-90.4-113.6h145.2c4.4 0 8-3.6 8-8s-3.6-8-8-8h-157.6l-38.4-48h336l-142.4 179.2z" />
</svg>