<svg width="380" height="130" viewBox="0 0 380 130" fill="none" xmlns="http://www.w3.org/2000/svg">
<g clip-path="url(#clip0_1_2)">
<mask id="mask0_1_2" style="mask-type:luminance" maskUnits="userSpaceOnUse" x="-30" y="-20" width="428" height="168">
<path d="M-30 -20H398V148H-30V-20Z" fill="white"/>
</mask>
<g mask="url(#mask0_1_2)">
<path d="M139.81 7.63999C139.81 5.74999 141.41 4.14999 143.3 4.14999C145.19 4.14999 146.75 5.74999 146.75 7.63999C146.75 9.52999 145.19 11.13 143.3 11.13C141.4 11.13 139.81 9.53999 139.81 7.63999ZM140.61 14.83H145.95V36H140.61V14.83ZM152.33 14.83H157.67V16.43C159.1 15.04 160.91 13.99 163.51 13.99C166.2 13.99 168.55 15.17 169.94 17.43C171.45 15.58 173.47 13.99 177.04 13.99C181.41 13.99 184.86 17.01 184.86 22.98V36H179.48V23.19C179.48 20.63 178.09 19.03 175.7 19.03C173.39 19.03 172.13 20.63 171.29 22.05C171.33 22.34 171.33 22.64 171.33 22.97V36H165.95V23.19C165.95 20.63 164.56 19.03 162.17 19.03C159.73 19.03 158.47 20.84 157.67 22.18V36H152.33V14.83ZM190.95 14.83H196.29V16.43C197.72 15.04 199.53 13.99 202.13 13.99C204.82 13.99 207.17 15.17 208.56 17.43C210.07 15.58 212.09 13.99 215.66 13.99C220.03 13.99 223.48 17.01 223.48 22.98V36H218.1V23.19C218.1 20.63 216.71 19.03 214.32 19.03C212.01 19.03 210.75 20.63 209.91 22.05C209.95 22.34 209.95 22.64 209.95 22.97V36H204.57V23.19C204.57 20.63 203.18 19.03 200.79 19.03C198.35 19.03 197.09 20.84 196.29 22.18V36H190.95V14.83ZM239.83 36.84C232.31 36.84 228.06 31.59 228.06 25.41C228.06 19.15 232.01 13.98 238.95 13.98C244.84 13.98 248.7 17.97 248.7 23.52C248.7 24.7 248.53 25.79 248.36 26.5H233.52C234.02 30.45 236.46 32.05 239.78 32.05C242.09 32.05 244.11 31.04 245.24 29.53L249.07 32.55C247.1 35.2 243.82 36.84 239.83 36.84ZM233.69 22.64H243.44C243.36 20.5 241.8 18.35 238.82 18.35C236.09 18.36 234.28 19.87 233.69 22.64ZM253.91 14.83H259.25V16.93C260.64 15.5 262.44 14.41 264.84 14.41C265.55 14.41 266.19 14.54 266.69 14.7V19.95C266.02 19.78 265.3 19.66 264.34 19.66C261.73 19.66 260.05 21.09 259.25 22.43V36H253.91V14.83ZM272.65 29.74C273.95 31.38 275.51 32.55 277.53 32.55C279.25 32.55 280.14 31.54 280.14 30.28C280.14 26.58 270.01 27.97 270.01 20.53C270.01 16.79 273.16 13.98 277.58 13.98C280.82 13.98 283.76 15.53 285.27 17.59L281.74 20.7C280.65 19.36 279.26 18.26 277.62 18.26C275.94 18.26 275.14 19.18 275.14 20.28C275.14 23.89 285.27 22.63 285.27 29.94C285.19 34.39 281.61 36.83 277.62 36.83C273.84 36.83 271.15 35.32 269.13 32.92L272.65 29.74ZM289.38 7.63999C289.38 5.74999 290.98 4.14999 292.87 4.14999C294.76 4.14999 296.32 5.74999 296.32 7.63999C296.32 9.52999 294.76 11.13 292.87 11.13C290.97 11.13 289.38 9.53999 289.38 7.63999ZM290.17 14.83H295.51V36H290.17V14.83ZM323.59 25.41C323.59 31.75 318.88 36.84 311.99 36.84C305.1 36.84 300.39 31.76 300.39 25.41C300.39 19.06 305.1 13.98 311.99 13.98C318.88 13.99 323.59 19.07 323.59 25.41ZM318.04 25.41C318.04 21.71 315.48 19.03 312.07 19.03C308.54 19.03 305.93 21.72 305.93 25.41C305.93 29.1 308.54 31.79 312.07 31.79C315.48 31.8 318.04 29.07 318.04 25.41ZM328.46 14.83H333.8V16.51C335.27 15.08 337.25 13.99 340.06 13.99C344.64 13.99 348.3 17.14 348.3 23.4V36H342.92V23.61C342.92 20.8 341.32 19.03 338.72 19.03C336.03 19.03 334.6 20.84 333.8 22.18V36H328.46V14.83ZM141.95 62.83V60.6C141.95 56.11 144.93 52.49 150.23 52.49C152.16 52.49 153.8 52.95 155.15 53.67L152.88 58.12C152.25 57.66 151.41 57.28 150.32 57.28C148.51 57.28 147.34 58.54 147.34 60.47V62.82H153.81V67.61H147.34V84H141.96V67.62H138V62.83H141.95ZM155.02 78.29C155.02 75.1 157.5 72.7 162.04 71.95L168.51 70.86V70.31C168.51 68.08 166.83 66.66 164.39 66.66C162.33 66.66 160.73 67.63 159.6 69.18L155.69 66.2C157.58 63.6 160.69 62 164.56 62C170.7 62 173.85 65.65 173.85 70.32V84H168.51V81.94C167.16 83.58 164.64 84.63 162.16 84.63C157.92 84.63 155.02 82.19 155.02 78.29ZM163.26 80.39C165.7 80.39 167.46 79.26 168.51 77.58V74.6L163.47 75.44C161.24 75.82 160.32 76.74 160.32 78.04C160.32 79.46 161.45 80.39 163.26 80.39ZM194.91 77.36L199.07 80.55C197.09 83.15 193.98 84.83 190.12 84.83C182.81 84.83 178.43 79.58 178.43 73.4C178.43 67.22 182.8 61.97 190.12 61.97C193.99 61.97 197.1 63.65 199.07 66.25L194.91 69.44C193.9 67.97 192.22 67 190.03 67C186.54 67 183.98 69.69 183.98 73.38C183.98 77.12 186.54 79.76 190.12 79.76C192.22 79.8 193.9 78.83 194.91 77.36ZM202.26 55.64C202.26 53.75 203.86 52.15 205.75 52.15C207.64 52.15 209.2 53.75 209.2 55.64C209.2 57.53 207.64 59.13 205.75 59.13C203.85 59.13 202.26 57.54 202.26 55.64ZM203.06 62.83H208.4V84H203.06V62.83ZM214.78 52.49H220.12V84H214.78V52.49ZM225.71 55.64C225.71 53.75 227.31 52.15 229.2 52.15C231.09 52.15 232.65 53.75 232.65 55.64C232.65 57.53 231.09 59.13 229.2 59.13C227.3 59.13 225.71 57.54 225.71 55.64ZM226.51 62.83H231.85V84H226.51V62.83ZM239.58 67.62H235.63V62.83H239.58V57.54H244.96V62.83H251.43V67.62H244.96V76.27C244.96 78.62 246.22 79.55 248.32 79.55C249.79 79.55 250.76 79.38 251.47 79.09V83.75C250.42 84.21 249.16 84.42 247.39 84.42C242.09 84.42 239.57 81.44 239.57 76.27V67.62H239.58ZM266.05 84.84C258.53 84.84 254.28 79.59 254.28 73.41C254.28 67.15 258.23 61.98 265.17 61.98C271.06 61.98 274.92 65.97 274.92 71.52C274.92 72.7 274.75 73.79 274.58 74.5H259.74C260.24 78.45 262.68 80.05 266 80.05C268.31 80.05 270.33 79.04 271.46 77.53L275.29 80.55C273.33 83.2 270.05 84.84 266.05 84.84ZM259.92 70.64H269.67C269.59 68.5 268.03 66.35 265.05 66.35C262.31 66.36 260.51 67.87 259.92 70.64ZM262.99 59.47L267.36 52.5H273.16L268.12 59.47H262.99ZM290.22 84.84C282.7 84.84 278.45 79.59 278.45 73.41C278.45 67.15 282.4 61.98 289.34 61.98C295.23 61.98 299.09 65.97 299.09 71.52C299.09 72.7 298.92 73.79 298.75 74.5H283.91C284.41 78.45 286.85 80.05 290.17 80.05C292.48 80.05 294.5 79.04 295.63 77.53L299.46 80.55C297.49 83.2 294.21 84.84 290.22 84.84ZM284.08 70.64H293.83C293.75 68.5 292.19 66.35 289.21 66.35C286.48 66.36 284.67 67.87 284.08 70.64Z" fill="white"/>
<path d="M71.56 98C78.193 98 83.57 92.627 83.57 86C83.57 79.3726 78.193 74 71.56 74C64.9271 74 59.55 79.3726 59.55 86C59.55 92.627 64.9271 98 71.56 98Z" fill="#4DBBD2"/>
<path d="M100.58 78C103.894 78 106.58 75.3137 106.58 72C106.58 68.6863 103.894 66 100.58 66C97.266 66 94.58 68.6863 94.58 72C94.58 75.3137 97.266 78 100.58 78ZM56.82 11.44C46.78 19.57 43.3 34.2 48.14 45.72C51.35 53.4 44.63 62.17 36.38 61.19C22.26 59.43 13.93 76.33 23.89 86.64C34.22 96.59 51.11 88.28 49.36 74.16C48.38 65.91 57.15 59.2 64.84 62.41C95.14 74.02 120.04 36.99 97.36 13.36C97.31 13.32 97.27 13.27 97.23 13.23C86.49 2.35 68.49 1.54 56.82 11.44Z" fill="#99D8E5"/>
<path d="M24.53 36C33.3721 36 40.54 28.8366 40.54 20C40.54 11.1634 33.3721 4 24.53 4C15.6879 4 8.52 11.1634 8.52 20C8.52 28.8366 15.6879 36 24.53 36Z" fill="#4DBBD2"/>
<path d="M10.53 62C16.0584 62 20.54 57.5228 20.54 52C20.54 46.4772 16.0584 42 10.53 42C5.0016 42 0.520004 46.4772 0.520004 52C0.520004 57.5228 5.0016 62 10.53 62Z" fill="#99D8E5"/>
<path d="M29.54 124C35.0684 124 39.55 119.523 39.55 114C39.55 108.477 35.0684 104 29.54 104C24.0117 104 19.53 108.477 19.53 114C19.53 119.523 24.0117 124 29.54 124Z" fill="#4DBBD2"/>
</g>
</g>
<defs>
<clipPath id="clip0_1_2">
<rect width="380" height="130" fill="white"/>
</clipPath>
</defs>
</svg>
