<svg xmlns="http://www.w3.org/2000/svg" fill="none" viewBox="30 20 380 130">
  <g clip-path="url(#a)">
    <path fill="#000" d="M169.81 27.64c0-1.89 1.6-3.49 3.49-3.49 1.89 0 3.45 1.6 3.45 3.49 0 1.89-1.56 3.49-3.45 3.49-1.9 0-3.49-1.59-3.49-3.49Zm.8 7.19h5.34V56h-5.34V34.83ZM182.33 34.83h5.34v1.6c1.43-1.39 3.24-2.44 5.84-2.44 2.69 0 5.04 1.18 6.43 3.44 1.51-1.85 3.53-3.44 7.1-3.44 4.37 0 7.82 3.02 7.82 8.99V56h-5.38V43.19c0-2.56-1.39-4.16-3.78-4.16-2.31 0-3.57 1.6-4.41 3.02.04.29.04.59.04.92V56h-5.38V43.19c0-2.56-1.39-4.16-3.78-4.16-2.44 0-3.7 1.81-4.5 3.15V56h-5.34V34.83ZM220.95 34.83h5.34v1.6c1.43-1.39 3.24-2.44 5.84-2.44 2.69 0 5.04 1.18 6.43 3.44 1.51-1.85 3.53-3.44 7.1-3.44 4.37 0 7.82 3.02 7.82 8.99V56h-5.38V43.19c0-2.56-1.39-4.16-3.78-4.16-2.31 0-3.57 1.6-4.41 3.02.04.29.04.59.04.92V56h-5.38V43.19c0-2.56-1.39-4.16-3.78-4.16-2.44 0-3.7 1.81-4.5 3.15V56h-5.34V34.83ZM269.83 56.84c-7.52 0-11.77-5.25-11.77-11.43 0-6.26 3.95-11.43 10.89-11.43 5.89 0 9.75 3.99 9.75 9.54 0 1.18-.17 2.27-.34 2.98h-14.84c.5 3.95 2.94 5.55 6.26 5.55 2.31 0 4.33-1.01 5.46-2.52l3.83 3.02c-1.97 2.65-5.25 4.29-9.24 4.29Zm-6.14-14.2h9.75c-.08-2.14-1.64-4.29-4.62-4.29-2.73.01-4.54 1.52-5.13 4.29ZM283.91 34.83h5.34v2.1c1.39-1.43 3.19-2.52 5.59-2.52.71 0 1.35.13 1.85.29v5.25c-.67-.17-1.39-.29-2.35-.29-2.61 0-4.29 1.43-5.09 2.77V56h-5.34V34.83ZM302.65 49.74c1.3 1.64 2.86 2.81 4.88 2.81 1.72 0 2.61-1.01 2.61-2.27 0-3.7-10.13-2.31-10.13-9.75 0-3.74 3.15-6.55 7.57-6.55 3.24 0 6.18 1.55 7.69 3.61l-3.53 3.11c-1.09-1.34-2.48-2.44-4.12-2.44-1.68 0-2.48.92-2.48 2.02 0 3.61 10.13 2.35 10.13 9.66-.08 4.45-3.66 6.89-7.65 6.89-3.78 0-6.47-1.51-8.49-3.91l3.52-3.18ZM319.38 27.64c0-1.89 1.6-3.49 3.49-3.49 1.89 0 3.45 1.6 3.45 3.49 0 1.89-1.56 3.49-3.45 3.49-1.9 0-3.49-1.59-3.49-3.49Zm.79 7.19h5.34V56h-5.34V34.83ZM353.59 45.41c0 6.34-4.71 11.43-11.6 11.43s-11.6-5.08-11.6-11.43 4.71-11.43 11.6-11.43c6.89.01 11.6 5.09 11.6 11.43Zm-5.55 0c0-3.7-2.56-6.38-5.97-6.38-3.53 0-6.14 2.69-6.14 6.38s2.61 6.38 6.14 6.38c3.41.01 5.97-2.72 5.97-6.38ZM358.46 34.83h5.34v1.68c1.47-1.43 3.45-2.52 6.26-2.52 4.58 0 8.24 3.15 8.24 9.41V56h-5.38V43.61c0-2.81-1.6-4.58-4.2-4.58-2.69 0-4.12 1.81-4.92 3.15V56h-5.34V34.83ZM171.95 82.83V80.6c0-4.49 2.98-8.11 8.28-8.11 1.93 0 3.57.46 4.92 1.18l-2.27 4.45c-.63-.46-1.47-.84-2.56-.84-1.81 0-2.98 1.26-2.98 3.19v2.35h6.47v4.79h-6.47V104h-5.38V87.62H168v-4.79h3.95ZM185.02 98.29c0-3.19 2.48-5.59 7.02-6.34l6.47-1.09v-.55c0-2.23-1.68-3.65-4.12-3.65-2.06 0-3.66.97-4.79 2.52l-3.91-2.98c1.89-2.6 5-4.2 8.87-4.2 6.14 0 9.29 3.65 9.29 8.32V104h-5.34v-2.06c-1.35 1.64-3.87 2.69-6.35 2.69-4.24 0-7.14-2.44-7.14-6.34Zm8.24 2.1c2.44 0 4.2-1.13 5.25-2.81V94.6l-5.04.84c-2.23.38-3.15 1.3-3.15 2.6 0 1.42 1.13 2.35 2.94 2.35ZM224.91 97.36l4.16 3.19c-1.98 2.6-5.09 4.28-8.95 4.28-7.31 0-11.69-5.25-11.69-11.43s4.37-11.43 11.69-11.43c3.87 0 6.98 1.68 8.95 4.28l-4.16 3.19c-1.01-1.47-2.69-2.44-4.88-2.44-3.49 0-6.05 2.69-6.05 6.38 0 3.74 2.56 6.38 6.14 6.38 2.1.04 3.78-.93 4.79-2.4ZM232.26 75.64c0-1.89 1.6-3.49 3.49-3.49 1.89 0 3.45 1.6 3.45 3.49 0 1.89-1.56 3.49-3.45 3.49-1.9 0-3.49-1.59-3.49-3.49Zm.8 7.19h5.34V104h-5.34V82.83ZM244.78 72.49h5.34V104h-5.34V72.49ZM255.71 75.64c0-1.89 1.6-3.49 3.49-3.49 1.89 0 3.45 1.6 3.45 3.49 0 1.89-1.56 3.49-3.45 3.49-1.9 0-3.49-1.59-3.49-3.49Zm.8 7.19h5.34V104h-5.34V82.83ZM269.58 87.62h-3.95v-4.79h3.95v-5.29h5.38v5.29h6.47v4.79h-6.47v8.65c0 2.35 1.26 3.28 3.36 3.28 1.47 0 2.44-.17 3.15-.46v4.66c-1.05.46-2.31.67-4.08.67-5.3 0-7.82-2.98-7.82-8.15v-8.65h.01ZM296.05 104.84c-7.52 0-11.77-5.25-11.77-11.43 0-6.26 3.95-11.43 10.89-11.43 5.89 0 9.75 3.99 9.75 9.54 0 1.18-.17 2.27-.34 2.98h-14.84c.5 3.95 2.94 5.55 6.26 5.55 2.31 0 4.33-1.01 5.46-2.52l3.83 3.02c-1.96 2.65-5.24 4.29-9.24 4.29Zm-6.13-14.2h9.75c-.08-2.14-1.64-4.29-4.62-4.29-2.74.01-4.54 1.52-5.13 4.29Zm3.07-11.17 4.37-6.97h5.8l-5.04 6.97h-5.13ZM320.22 104.84c-7.52 0-11.77-5.25-11.77-11.43 0-6.26 3.95-11.43 10.89-11.43 5.89 0 9.75 3.99 9.75 9.54 0 1.18-.17 2.27-.34 2.98h-14.84c.5 3.95 2.94 5.55 6.26 5.55 2.31 0 4.33-1.01 5.46-2.52l3.83 3.02c-1.97 2.65-5.25 4.29-9.24 4.29Zm-6.14-14.2h9.75c-.08-2.14-1.64-4.29-4.62-4.29-2.73.01-4.54 1.52-5.13 4.29ZM168.19 130h3.76c2.66 0 4.3 1.5 4.3 3.8 0 2.26-1.64 3.76-4.3 3.76h-2.48V144h-1.28v-14Zm1.28 1.12v5.32h2.5c1.84 0 2.94-.98 2.94-2.68 0-1.64-1.1-2.64-2.94-2.64h-2.5ZM178.96 129h1.18v15h-1.18v-15ZM183.5 141.56c0-1.52 1.16-2.56 3.28-2.92l3.6-.6v-.94c0-1.62-1.14-2.5-2.72-2.5-1.3 0-2.36.58-3.04 1.54l-.9-.7c.86-1.18 2.24-1.92 3.98-1.92 2.32 0 3.84 1.36 3.84 3.58v6.9h-1.16v-1.46c-.86 1.14-2.22 1.74-3.62 1.74-1.96 0-3.26-1.06-3.26-2.72Zm3.41 1.7c1.46 0 2.72-.7 3.48-2v-2.3l-3.34.56c-1.6.28-2.34 1.02-2.34 2.02-.01.98.83 1.72 2.2 1.72ZM195.85 134.98h-1.9v-1.06h1.9v-2.52h1.2v2.52h3.78v1.06h-3.78v5.84c0 1.84.94 2.28 2.3 2.28.64 0 1.08-.08 1.48-.22v1.08c-.46.16-.96.24-1.6.24-2.06 0-3.38-.92-3.38-3.38v-5.84ZM207.94 144.4c-3.3 0-5.44-2.5-5.44-5.44 0-3.12 2-5.44 5.02-5.44 2.7 0 4.42 1.92 4.42 4.3 0 .3-.02.6-.08.84h-8.15v.24c0 2.56 1.74 4.42 4.22 4.42 1.42 0 2.6-.66 3.34-1.7l.9.72c-.91 1.26-2.39 2.06-4.23 2.06Zm-4.11-6.68h6.91c-.06-1.76-1.28-3.16-3.24-3.16-1.88 0-3.28 1.18-3.67 3.16ZM215.62 133.92v-1.34c0-2.16 1.36-3.58 3.36-3.58.92 0 1.66.28 2.14.58l-.52 1c-.44-.32-.94-.5-1.58-.5-1.3 0-2.2.9-2.2 2.48v1.36h3.78v1.06h-3.78V144h-1.2v-9.02h-1.9v-1.06h1.9ZM232.09 138.96c0 2.88-2.18 5.44-5.42 5.44-3.22 0-5.4-2.56-5.4-5.44 0-2.88 2.18-5.44 5.4-5.44 3.24 0 5.42 2.56 5.42 5.44Zm-1.26 0c0-2.32-1.76-4.32-4.14-4.32-2.46 0-4.2 2.02-4.2 4.32 0 2.3 1.74 4.32 4.2 4.32 2.38 0 4.14-2.04 4.14-4.32ZM235.09 133.92h1.18v1.44c.82-1.04 1.76-1.64 3.12-1.64.28 0 .58.04.84.12v1.14c-.3-.08-.56-.14-.92-.14-1.38 0-2.28.68-3.04 1.94V144h-1.18v-10.08ZM242.92 133.92h1.18v1.34c.82-1.06 1.92-1.74 3.4-1.74 1.56 0 2.82.74 3.4 2.16.86-1.32 2-2.16 3.74-2.16 2.2 0 3.76 1.44 3.76 4.1V144h-1.16v-6.34c0-1.96-1.12-3.02-2.76-3.02-1.4 0-2.44.7-3.28 2.16.04.26.06.54.06.82V144h-1.18v-6.34c0-1.96-1.1-3.02-2.74-3.02-1.52 0-2.56.84-3.24 2.12V144h-1.18v-10.08ZM266.65 144.4c-3.3 0-5.44-2.5-5.44-5.44 0-3.12 2-5.44 5.02-5.44 2.7 0 4.42 1.92 4.42 4.3 0 .3-.02.6-.08.84h-8.15v.24c0 2.56 1.74 4.42 4.22 4.42 1.42 0 2.6-.66 3.34-1.7l.9.72c-.9 1.26-2.38 2.06-4.23 2.06Zm-4.1-6.68h6.91c-.06-1.76-1.28-3.16-3.24-3.16-1.89 0-3.29 1.18-3.67 3.16ZM283.48 133.52c1.58 0 2.92.66 3.86 1.84V129h1.18v15h-1.18v-1.44c-.94 1.18-2.28 1.84-3.86 1.84-3.14 0-5.2-2.5-5.2-5.44 0-2.94 2.06-5.44 5.2-5.44Zm.1 9.76c1.56 0 2.94-.74 3.76-2.1v-4.44c-.84-1.38-2.22-2.1-3.76-2.1-2.38 0-4.06 1.94-4.06 4.32 0 2.38 1.68 4.32 4.06 4.32ZM296.95 144.4c-3.3 0-5.44-2.5-5.44-5.44 0-3.12 2-5.44 5.02-5.44 2.7 0 4.42 1.92 4.42 4.3 0 .3-.02.6-.08.84h-8.15v.24c0 2.56 1.74 4.42 4.22 4.42 1.42 0 2.6-.66 3.34-1.7l.9.72c-.9 1.26-2.39 2.06-4.23 2.06Zm-4.1-6.68h6.91c-.06-1.76-1.28-3.16-3.24-3.16-1.89 0-3.29 1.18-3.67 3.16ZM309.52 129h1.18v15h-1.18v-15ZM313.94 135.12l1.62-5.12h1.36l-1.9 5.12h-1.08ZM319.83 129.84c0-.48.42-.88.92-.88s.9.4.9.88c0 .52-.4.9-.9.9s-.92-.38-.92-.9Zm.32 4.08h1.18V144h-1.18v-10.08ZM325.29 133.92h1.18v1.38c.88-1.1 2.02-1.78 3.6-1.78 2.3 0 3.96 1.52 3.96 4.3V144h-1.18v-6.14c0-2.08-1.18-3.22-2.94-3.22-1.6 0-2.66.82-3.44 2.12V144h-1.18v-10.08ZM345.54 141.6l.94.74c-.92 1.24-2.4 2.06-4.22 2.06-3.26 0-5.42-2.5-5.42-5.44 0-2.94 2.16-5.44 5.42-5.44 1.82 0 3.3.82 4.22 2.06l-.94.74c-.72-1.02-1.88-1.68-3.28-1.68-2.46 0-4.2 1.94-4.2 4.32 0 2.38 1.74 4.32 4.22 4.32 1.4 0 2.54-.66 3.26-1.68ZM349.12 129h1.18v15h-1.18v-15ZM361.51 133.92h1.16v5.78c0 3-1.72 4.7-4.3 4.7-2.6 0-4.34-1.7-4.34-4.7v-5.78h1.18v5.8c0 2.28 1.26 3.56 3.16 3.56 1.86 0 3.14-1.28 3.14-3.56v-5.8ZM366.05 141.96c.76.96 1.64 1.42 2.72 1.42 1.32 0 2.08-.84 2.08-1.88 0-2.56-5.18-1.7-5.18-5.26 0-1.46 1.24-2.72 3.1-2.72 1.36 0 2.5.66 3.2 1.62l-.88.7c-.56-.84-1.38-1.3-2.3-1.3-1.26 0-1.96.78-1.96 1.7 0 2.62 5.18 1.82 5.18 5.22 0 1.74-1.38 2.94-3.22 2.94-1.5 0-2.74-.6-3.62-1.72l.88-.72ZM374.76 129.84c0-.48.42-.88.92-.88s.9.4.9.88c0 .52-.4.9-.9.9s-.92-.38-.92-.9Zm.32 4.08h1.18V144h-1.18v-10.08ZM390.11 138.96c0 2.88-2.18 5.44-5.42 5.44-3.22 0-5.4-2.56-5.4-5.44 0-2.88 2.18-5.44 5.4-5.44 3.24 0 5.42 2.56 5.42 5.44Zm-1.26 0c0-2.32-1.76-4.32-4.14-4.32-2.46 0-4.2 2.02-4.2 4.32 0 2.3 1.74 4.32 4.2 4.32 2.38 0 4.14-2.04 4.14-4.32ZM393.11 133.92h1.18v1.38c.88-1.1 2.02-1.78 3.6-1.78 2.3 0 3.96 1.52 3.96 4.3V144h-1.18v-6.14c0-2.08-1.18-3.22-2.94-3.22-1.6 0-2.66.82-3.44 2.12V144h-1.18v-10.08Z"/>
    <path fill="#80CEDF" d="M101.56 118c6.633 0 12.01-5.373 12.01-12 0-6.6274-5.377-12-12.01-12-6.6329 0-12.01 5.3726-12.01 12 0 6.627 5.3771 12 12.01 12Z"/>
    <path fill="#009EBF" d="M130.58 98c3.314 0 6-2.6863 6-6s-2.686-6-6-6-6 2.6863-6 6 2.686 6 6 6ZM86.82 31.44C76.78 39.57 73.3 54.2 78.14 65.72c3.21 7.68-3.51 16.45-11.76 15.47-14.12-1.76-22.45 15.14-12.49 25.45 10.33 9.95 27.22 1.64 25.47-12.48-.98-8.25 7.79-14.96 15.48-11.75 30.3 11.61 55.2-25.42 32.52-49.05-.05-.04-.09-.09-.13-.13-10.74-10.88-28.74-11.69-40.41-1.79Z"/>
    <path fill="#80CEDF" d="M54.53 56c8.8421 0 16.01-7.1634 16.01-16s-7.1679-16-16.01-16c-8.8421 0-16.01 7.1634-16.01 16s7.1679 16 16.01 16Z"/>
    <path fill="#009EBF" d="M40.53 82c5.5284 0 10.01-4.4772 10.01-10s-4.4816-10-10.01-10c-5.5284 0-10.01 4.4772-10.01 10s4.4816 10 10.01 10Z"/>
    <path fill="#80CEDF" d="M59.54 144c5.5284 0 10.01-4.477 10.01-10s-4.4816-10-10.01-10c-5.5283 0-10.01 4.477-10.01 10s4.4817 10 10.01 10Z"/>
  </g>
  <defs>
    <clipPath id="a">
      <path fill="#fff" d="M0 0h428v168H0z"/>
    </clipPath>
  </defs>
</svg>
