<svg xmlns="http://www.w3.org/2000/svg" xmlns:xlink="http://www.w3.org/1999/xlink" fill="none" viewBox="0 0 600 400">
  <defs>
    <path id="reuse-0" fill="#fff" d="M0 0h600v400H0z"/>
  </defs>
  <g clip-path="url(#a)">
    <use xlink:href="#reuse-0"/>
    <g clip-path="url(#b)">
      <path fill="#E5E5E5" d="M362.432 214.167h154.235V84.1667H343.333V229.171l19.099-15.004Zm7.497 21.666-48.262 37.917V73.3333c0-2.8731 1.141-5.6286 3.173-7.6603 2.031-2.0316 4.787-3.173 7.66-3.173h195c2.873 0 5.629 1.1414 7.66 3.173 2.032 2.0317 3.173 4.7872 3.173 7.6603V225c0 2.873-1.141 5.629-3.173 7.66-2.031 2.032-4.787 3.173-7.66 3.173H369.929Zm49.238-54.166h21.666v21.666h-21.666v-21.666Zm-26.358-56.193c1.408-7.044 4.787-13.543 9.744-18.742 4.957-5.198 11.288-8.8824 18.257-10.6231 6.969-1.7408 14.289-1.4667 21.109.7903 6.819 2.2571 12.857 6.4038 17.412 11.9588 4.554 5.555 7.438 12.289 8.314 19.418.877 7.13-.289 14.362-3.361 20.854-3.073 6.493-7.927 11.98-13.996 15.822-6.069 3.842-13.105 5.882-20.288 5.881h-10.833v-21.666H430c3.078-.001 6.092-.875 8.692-2.521 2.6-1.646 4.679-3.997 5.996-6.779 1.316-2.782 1.815-5.88 1.439-8.935-.375-3.054-1.611-5.939-3.562-8.319-1.951-2.38-4.538-4.156-7.46-5.123-2.922-.967-6.058-1.085-9.044-.339-2.986.746-5.698 2.324-7.822 4.551-2.124 2.227-3.572 5.012-4.175 8.03l-21.255-4.258Z"/>
    </g>
    <path fill="#B3E2EC" d="M180.457 204.735s10.755 8.623 12.301 14.057l-7.67 5.813-11.668-15.525-7.866-21.699c-.533-.414-.947-.961-1.2-1.586-.253-.626-.336-1.307-.241-1.975.095-.668.366-1.299.784-1.829.418-.529.968-.939 1.596-1.187.627-.248 1.309-.326 1.976-.225.668.101 1.296.376 1.823.798.526.422.931.976 1.174 1.606.243.629.315 1.312.209 1.978l8.782 19.774ZM265.679 169.998c-.246-.629-.321-1.311-.217-1.978.103-.666.381-1.294.805-1.819.424-.524.979-.928 1.61-1.168.63-.241 1.313-.31 1.979-.202.666.109 1.291.392 1.812.82.522.428.92.987 1.156 1.619.235.633.3 1.316.186 1.981-.114.665-.402 1.288-.835 1.806l-3.058 22.877-8.089 17.655-8.733-4.043c.352-5.639 9.021-16.357 9.021-16.357l4.363-21.191Z"/>
    <path fill="#009EBF" d="M370.879 49.5233c-2.558-.7836-5.07-1.5312-7.469-2.2096-.361-.1006-.723-.208-1.084-.3086l-.044-.0153c-2.161-.618-4.324-1.2171-6.49-1.7973-1.515-.4073-3.021-.8085-4.533-1.1952-.592-.1619-1.182-.3101-1.779-.4574-.958-.2479-1.922-.4881-2.879-.7291-.791-.1993-1.589-.3909-2.379-.5833-.914-.2257-1.825-.4376-2.731-.6573-1.077-.2537-2.151-.5031-3.222-.7482-.011-.0042-.024-.0051-.035-.0025-.812-.1899-1.622-.3729-2.425-.5498-10.904-2.4364-21.908-4.456-32.721-6.0053l-1.17-.1653c-.674-.0957-1.348-.1915-2.022-.2873-1.191-.1626-2.386-.3178-3.584-.4656-1.127-.1498-2.258-.2852-3.39-.4205-.997-.1175-1.994-.235-2.997-.3448-.983-.1124-1.965-.2179-2.952-.3158-2.944-.3098-5.879-.5836-8.805-.8214-.021-.0031-.042-.0028-.063.001-.704-.064-1.401-.122-2.104-.1723-10.678-.814-21.481-1.1873-32.109-1.1159-.522.0034-1.044.0068-1.566.0171l-.013.0017c-.091-.0024-.188.0029-.278.0073-.877.0066-1.753.02-2.628.0403-1.154.0208-2.3.0475-3.452.082-2.728.0738-5.448.1814-8.158.3227-.686.0311-1.364.0682-2.041.1122-.783.0364-1.564.0866-2.338.1358-.802.0459-1.603.0987-2.404.1582-.304.0177-.601.0413-.897.065-.374.0194-.753.0535-1.125.0798l-1.677.1287c-10.512.823-21.096 2.1218-31.465 3.86-.573.0935-1.146.1938-1.725.2951l-.021.0026c-.415.0735-.832.1402-1.254.2146-.15.026-.307.0528-.457.0788-1.028.1859-2.057.3719-3.084.5647-1.096.2016-2.184.4091-3.272.6234-.686.1357-1.366.2706-2.045.4054-.448.0916-.897.1832-1.352.2757-2.838.5823-5.671 1.199-8.48 1.8474-.941.2166-1.875.4325-2.808.6551-.521.1218-1.035.2426-1.549.3703-10.299 2.5027-20.674 5.5096-30.83 8.9275-.668.224-1.342.4557-2.016.6874-.014.0017-.027.0103-.041.012-.1.0336-.207.0681-.306.1085-.695.2343-1.396.4763-2.089.7243-.768.2645-1.528.5349-2.294.8061-.64.2274-1.279.4616-1.919.6958-1.505.5459-3.016 1.0995-4.518 1.6729-3.058 1.1537-6.109 2.3504-9.151 3.5903-.689.2823-1.385.5655-2.079.8555-.006.0011-.01.0042-.013.0086-.358.1428-.722.2934-1.079.4432-10.0589 4.1858-20.209 8.9127-30.1733 14.0619-.7323.3784-1.4646.7567-2.202 1.1497-.0187.0037-.0367.0107-.0531.0206-1.9793 1.0379-3.9674 2.0978-5.9643 3.1797-.7229.3981-1.4526.797-2.1822 1.1959-.7032.3886-1.4131.7781-2.1154 1.1736-.6183.343-1.2298.6851-1.8473 1.035-.4941.2786-.9815.5562-1.4756.8348-1.6888.9662-3.3742 1.9413-5.0561 2.9253-1.0174.6025-2.0416 1.206-3.0581 1.8154-.3306.1951-.668.3911-.9977.5931-2.4466 1.4733-4.6705 2.8347-6.8002 4.1702-2.2685 1.4196-4.0845 3.4574-5.2346 5.8736-1.1501 2.4163-1.5865 5.1107-1.2579 7.7667l3.0646 24.195c.273 2.156 1.0445 4.218 2.2533 6.024 1.2089 1.805 2.8218 3.304 4.7108 4.378 1.8891 1.074 4.0023 1.693 6.1721 1.807 2.1698.115 4.3365-.277 6.3283-1.146.9833-.431 1.9667-.862 2.9569-1.294.8249-.362 1.6575-.718 2.4833-1.074.9054-.386 1.804-.771 2.7094-1.158 2.0704-.868 4.1546-1.738 6.2414-2.588l2.922-1.185c1.5308-.619 3.0633-1.224 4.5959-1.829.4249-.165.8497-.33 1.2746-.496 6.6717-2.6 13.3932-5.082 20.0792-7.405.687-.24 1.375-.474 2.056-.706 2.81-.969 5.608-1.904 8.394-2.805l2.008-.652.02-.002c.656-.216 1.312-.424 1.968-.633 1.835-.58 3.683-1.153 5.543-1.719 1.066-.33 2.14-.654 3.214-.971.107-.034.214-.069.322-.097 1.853-.555 3.711-1.099 5.575-1.632 1.264-.362 2.535-.725 3.807-1.074 1.083-.305 2.167-.602 3.251-.9 10.277-2.792 20.694-5.303 30.97-7.44.888-.189 1.778-.372 2.667-.554 3.45-.702 6.931-1.38 10.424-2.017 4.317-.784 8.654-1.521 12.978-2.201 10.38-1.6422 20.946-2.9804 31.401-3.9773 4.363-.4203 8.747-.7874 13.124-1.1049 3.541-.2535 7.081-.465 10.597-.6456.907-.0452 1.814-.0904 2.722-.1288 10.477-.4911 21.19-.6637 31.853-.5165.509.0051 1.013.018 1.522.0232.181.0048.356.0037.537.0085.775.0133 1.551.0335 2.326.0468 2.913.063 5.827.1513 8.741.2652.749.0236 1.498.0541 2.24.0855 1.604.0685 3.202.1425 4.793.2219.926.0499 1.845.1007 2.764.1515.582.0307 1.171.0606 1.754.0983.709.0425 1.418.0851 2.12.1285 1.158.0693 2.317.1454 3.484.2275.731.0537 1.469.0996 2.208.1592 7.867.5709 15.834 1.3243 23.787 2.2396.828.0973 1.655.1945 2.482.2917.113.0136.22.028.333.0415.856.1006 1.712.2081 2.569.3155 1.224.1515 2.451.3095 3.682.4741 1.041.1328 2.083.2726 3.125.4192 3.218.4353 6.44.9049 9.644 1.3977 1.954.3027 3.9.6137 5.838.9327l.013-.002c.772.126 1.554.186 2.336.178.554-.001 1.108-.036 1.658-.106 3.675-.473 7.011-2.3856 9.276-5.3176 2.264-2.932 3.272-6.6433 2.802-10.3181l-3.051-24.0858c-.347-2.6806-1.459-5.2041-3.205-7.2678-1.745-2.0637-4.049-3.5798-6.635-4.3664Z"/>
    <path fill="#00778F" d="M72.9897 74.2616c-.2924-.1523-.6167-.2333-.9464-.2364-.3297-.003-.6554.072-.9506.2189-.0188.0037-.0368.0107-.0531.0207-1.9793 1.0378-3.9674 2.0977-5.9643 3.1796-.7229.3981-1.4526.797-2.1822 1.196-.7032.3886-1.4132.778-2.1154 1.1735-.6184.343-1.2298.6852-1.8473 1.0351-.4942.2785-.9815.5562-1.4756.8347-1.6888.9663-3.3742 1.9414-5.0561 2.9253-1.0174.6026-2.0416 1.206-3.0581 1.8154-.3544.2109-.6394.5207-.8202.8913-.1808.3707-.2494.786-.1974 1.1951l6.3193 49.8922c.0404.33.1578.645.3428.92.185.276.4323.504.7219.666.1838.102.381.178.5858.225.432.093.8824.046 1.2856-.135l2.9501-1.293c.8258-.355 1.6515-.71 2.4773-1.066.9054-.386 1.8108-.773 2.7232-1.16 2.0704-.868 4.1546-1.738 6.2413-2.588.9731-.401 1.9471-.797 2.922-1.185 1.5308-.619 3.0633-1.224 4.5959-1.829.3783-.149.7062-.403.9451-.733l.006-.007c.3032-.431.4349-.959.3696-1.482l-6.6953-52.8613c-.0428-.3398-.1674-.6641-.3632-.945-.1957-.281-.4568-.5103-.7607-.6681ZM128.712 50.3318c-.259-.1633-.55-.2673-.854-.3048-.303-.0374-.611-.0073-.902.0882-.013.0018-.026.0104-.04.0121-.1.0336-.207.0681-.307.1085-.694.2343-1.395.4763-2.088.7243-.768.2644-1.528.5348-2.294.8061-.64.2274-1.279.4616-1.919.6958-1.505.5459-3.016 1.0995-4.518 1.6729-3.065 1.1545-6.115 2.3513-9.151 3.5903-.637.2548-1.279.5173-1.915.7789-.056.0225-.111.0481-.164.0766-.006.0011-.01.0042-.013.0085-.381.2019-.692.5146-.891.8969-.199.3822-.277.8159-.224 1.2437l7.146 56.4192c.038.308.144.603.309.865.166.262.387.485.649.651.179.115.376.201.582.254.266.071.543.091.816.057.124-.017.246-.044.366-.082l.02-.002c.656-.216 1.312-.424 1.968-.633 1.835-.58 3.683-1.153 5.543-1.719 1.066-.33 2.14-.654 3.214-.971.107-.034.214-.069.322-.097 1.853-.555 3.711-1.099 5.575-1.632 1.264-.362 2.535-.725 3.807-1.074.591-.173 1.184-.332 1.776-.497.393-.106.746-.325 1.014-.63.201-.225.351-.49.44-.778.09-.288.117-.591.08-.89L129.7 51.8646c-.04-.3132-.149-.6135-.32-.8788s-.399-.4888-.668-.654ZM185.639 35.8628c-.436-.3203-.977-.4634-1.514-.4004l-.103.013c-.388.0701-.784.1342-1.172.2042-.15.026-.307.0528-.457.0788-1.028.186-2.057.3719-3.084.5648-1.096.2015-2.184.409-3.272.6234-.686.1357-1.366.2705-2.045.4053-.448.0916-.897.1832-1.352.2757-2.838.5824-5.672 1.199-8.48 1.8474-.941.2167-1.875.4325-2.808.6552-.509.1208-.954.4256-1.251.8555-.297.43-.424.9546-.356 1.4727l7.571 59.7786c.036.288.132.565.281.814.149.248.348.463.585.63.143.105.299.191.464.255.329.127.684.171 1.033.127.048-.006.102-.02.157-.027.265-.054.536-.11.801-.164 3.45-.702 6.931-1.38 10.424-2.017 3.764-.693 7.535-1.338 11.29-1.9385.408-.0579.788-.2372 1.092-.5144.252-.2286.445-.5147.562-.8341.117-.3194.155-.6624.111-.9997l-7.633-60.2659c-.035-.2849-.128-.5596-.273-.8072-.145-.2476-.34-.4629-.571-.6324ZM242.326 30.1736l-.014.0017c-.09-.0024-.187.0029-.277.0073-.877.0066-1.753.0201-2.628.0403-1.154.0208-2.3.0475-3.452.082-2.728.0739-5.448.1814-8.158.3227-.686.0312-1.364.0683-2.041.1122-.783.0364-1.564.0866-2.338.1359-.802.0458-1.603.0986-2.404.1582-.304.0176-.601.0412-.897.0649-.318.0193-.629.0379-.94.0632-.062.0021-.124.0076-.186.0166-.508.0799-.969.3469-1.291.7487-.184.2226-.32.4806-.4.758-.08.2773-.102.5681-.065.8543l7.617 60.1357c.041.3385.164.6618.359.9419.194.2801.454.5085.757.6652.361.193.772.2721 1.178.227 3.787-.3542 7.599-.6699 11.418-.9376 3.541-.2535 7.081-.465 10.597-.6456.27-.0133.547-.0275.817-.0408.055-.0069.104-.0062.158-.0131.35-.0445.683-.1753.969-.3805.144-.1036.274-.2254.386-.3624.187-.2217.325-.4795.408-.7572.082-.2777.106-.5693.071-.8568l-7.535-59.4911c-.067-.512-.318-.9822-.706-1.3228-.388-.3406-.887-.5282-1.403-.5279ZM301.918 34.0992c-.057-.0146-.114-.0259-.172-.034-.617-.089-1.234-.1712-1.85-.2533-1.191-.1627-2.386-.3179-3.584-.4656-1.127-.1499-2.258-.2852-3.39-.4205-.997-.1176-1.994-.2351-2.998-.3449-.982-.1124-1.964-.2179-2.951-.3157-2.945-.3099-5.879-.5837-8.805-.8214-.021-.0032-.042-.0029-.063.0009-.302-.0178-.605.0307-.887.1422-.282.1115-.536.2833-.745.5034-.219.227-.384.5004-.484.8-.099.2995-.13.6176-.091.9308l7.301 57.6399c.039.2996.141.5873.301.8436.16.2562.373.475.626.6413.333.2286.727.3532 1.132.3582.181.0048.355.0037.537.0085.775.0133 1.55.0266 2.326.0468 2.913.063 5.826.1514 8.741.2652.748.0236 1.498.0541 2.24.0855 1.604.0685 3.202.1425 4.793.2219.926.0499 1.845.1007 2.764.1515.582.0307 1.171.0606 1.754.0983.132.0052.264.0001.395-.0153.273-.0345.536-.1223.775-.2584.188-.1013.357-.2334.501-.3908.212-.2264.371-.4968.466-.7919.095-.295.124-.6074.084-.9149l-7.081-55.9122c-.056-.4312-.242-.8351-.535-1.1569-.292-.3217-.676-.546-1.1-.6422ZM362.326 47.0051l-.044-.0154c-2.161-.6179-4.324-1.217-6.49-1.7972-1.515-.4073-3.021-.8086-4.533-1.1953-.592-.1619-1.182-.3101-1.779-.4574-.958-.2479-1.922-.488-2.879-.729-.791-.1993-1.589-.3909-2.379-.5833-.914-.2257-1.825-.4377-2.731-.6573-1.077-.2537-2.151-.5031-3.222-.7483-.012-.0042-.024-.005-.035-.0025-.325-.0725-.663-.0651-.985.0218-.321.0868-.617.2504-.861.4767-.253.2284-.447.5145-.565.8339-.119.3195-.158.6628-.115 1.0008l6.644 52.4567c.055.4354.246.8424.544 1.164.058.063.119.1228.183.1789l.008.006c.312.2607.694.4253 1.098.4739.403.0465.807.0998 1.211.1532 1.224.1514 2.451.3094 3.682.474 1.041.1329 2.083.2726 3.125.4192 3.218.4354 6.44.905 9.644 1.3978 1.954.3027 3.9.6137 5.838.9327l.013-.002c.197.03.396.033.593.009.232-.031.456-.099.664-.203.189-.094.361-.217.512-.364.237-.231.418-.5133.527-.8259.11-.3126.144-.6463.101-.9747l-6.293-49.6867c-.05-.4041-.216-.7849-.478-1.0966s-.609-.5409-.998-.66Z"/>
    <path fill="#00778F" d="M60.5865 138.82c9.6904 4.885 19.6979 9.114 29.7575 13.173 10.761 4.341 21.604 8.479 32.367 12.816 10.827 4.365 21.589 8.922 32.066 14.08 10.172 4.894 19.928 10.611 29.17 17.094 8.769 6.271 16.907 13.489 23.653 21.925.805 1.006 1.589 2.028 2.352 3.065.792 1.074 2.438-.187 1.645-1.263-6.504-8.646-14.208-16.319-22.882-22.787-9.069-6.76-18.714-12.709-28.825-17.78-10.438-5.359-21.206-10.048-32.06-14.492-10.823-4.431-21.746-8.609-32.6098-12.937-10.2261-4.075-20.419-8.271-30.3284-13.075-1.1685-.566-2.3326-1.142-3.4921-1.726-1.1946-.603-1.9996 1.309-.8132 1.907Z"/>
    <path fill="#00778F" d="M92.2321 110.288c5.4987 9.098 11.9169 17.608 19.1529 25.395 7.406 7.977 15.21 15.574 23.381 22.765 8.191 7.329 16.572 14.442 24.809 21.719 8.144 7.194 16.166 14.549 23.642 22.443 7.397 7.668 14.037 16.031 19.828 24.974.704 1.11 1.391 2.232 2.061 3.363.678 1.145 2.318-.125 1.644-1.263-5.498-9.098-11.916-17.607-19.152-25.395-7.406-7.976-15.21-15.574-23.381-22.764-8.191-7.33-16.573-14.442-24.81-21.72-8.143-7.194-16.166-14.549-23.641-22.443-7.397-7.667-14.037-16.031-19.8286-24.974-.7043-1.11-1.3913-2.231-2.0608-3.363-.6783-1.145-2.3183.126-1.6445 1.263ZM345.214 90.7079c-6.896 8.4792-14.319 16.5161-22.226 24.0621-8.187 7.958-16.662 15.612-25.084 23.319-8.408 7.695-16.777 15.443-24.755 23.587-7.716 7.721-14.828 16.022-21.276 24.83-5.997 8.37-11.179 17.407-14.692 27.109-.422 1.167-.82 2.342-1.193 3.526-.399 1.263 1.505 2.085 1.908.813 3.182-9.708 7.763-18.9 13.597-27.286 6.169-8.869 13.061-17.211 20.605-24.943 7.82-8.18 16.091-15.914 24.423-23.566 8.426-7.737 16.936-15.385 25.197-23.299 7.996-7.521 15.563-15.485 22.667-23.8541.833-1.0006 1.656-2.0098 2.468-3.0278.834-1.0446-.805-2.314-1.639-1.2702Z"/>
    <path fill="#00778F" d="M321.617 74.4594c-3.057 10.1816-7.15 20.0227-12.216 29.3686-5.189 9.568-10.861 18.866-16.993 27.858-6.113 9.136-12.457 18.113-18.614 27.218-6.087 9.002-12 18.138-17.271 27.646-5.252 9.27-9.597 19.025-12.976 29.129-.405 1.251-.791 2.508-1.157 3.771-.369 1.268 1.536 2.092 1.908.813 3.056-10.181 7.15-20.023 12.216-29.368 5.189-9.568 10.86-18.867 16.993-27.859 6.113-9.135 12.457-18.112 18.614-27.218 6.087-9.002 11.999-18.137 17.27-27.645 5.252-9.2702 9.598-19.0251 12.976-29.1294.406-1.2509.791-2.5079 1.158-3.7709.368-1.2682-1.536-2.0925-1.908-.8133Z"/>
    <path fill="#B3E2EC" d="m202.851 354.84 1.866 4.333 17.602-5.135-2.754-6.396-16.714 7.198Z"/>
    <path fill="#00778F" d="m198.265 356.633 5.738 13.326.168-.073c1.376-.592 2.46-1.707 3.013-3.098.554-1.392.533-2.946-.059-4.322l.798-3.229-3.802-3.746-.501-1.164-5.355 2.306Z"/>
    <path fill="#B3E2EC" d="m282.782 367.161 4.437-1.605-4.078-17.877-6.549 2.369 6.19 17.113Z"/>
    <path fill="#00778F" d="m283.01 372.343 13.643-4.934-.062-.173c-.51-1.408-1.558-2.557-2.914-3.192-1.356-.636-2.909-.707-4.317-.198l-3.176-.989-3.966 3.572-1.191.431 1.983 5.483ZM256.524 271.975l31.427 82.233-10.002 2.178-14.805-26.978-21.535-31.232 6.395 37.951-29.804 22.902-8.877-9.404 23.98-17.1-17.636-49.063 2.205-6.591 38.652-4.896Z"/>
    <path fill="#009EBF" d="M216.033 284.653c-3.946-4.268 1.277-12.781 1.83-14.512-.94-.179-1.789-.678-2.403-1.412-.613-.735-.953-1.659-.962-2.616l-.025-2.828-.004-2.776-2.758-2.138-.015-.06-2.97-12.149-3.085-7.927c-1.164-2.997-1.509-6.25-1-9.425.508-3.175 1.853-6.157 3.895-8.641l4.64-1.351 5.051-6.273 9.279-1.175 3.567 2.637c6.071.289 7.048-.18 12.925 5.295l.093 19.328-.247 2.691.452 3.551 1.677 1.448c.604.522 1.078 1.177 1.384 1.914.306.737.436 1.536.379 2.332l-.071.991c1.599.458 4.509 11.823 5.059 13.392l.821 2.344c.516.527 3.924 4.046 4.059 5.109.02.16-.078.329-.309.532-1.817 1.597-18.762 7.363-23.87 6.034-5.44-1.415-17.392 5.685-17.392 5.685Z"/>
    <path fill="#009EBF" d="m190.287 230.533 4.711 4.473c1.774 1.684 3.862 3 6.146 3.873 2.284.874 4.718 1.287 7.162 1.216 1.514-.05 2.984-.521 4.244-1.362 1.26-.841 2.259-2.018 2.886-3.397.836-1.875.929-3.998.26-5.939-.669-1.942-2.05-3.557-3.865-4.518-5.504-2.913-8.958-8.068-12.705-5.78l-1.121-1.991-12.35-7.633-8.184 9.042 12.816 12.016ZM267.172 204.018l-9.924-7.09-6.37 5.29-.67 2.184c-4.149-1.436-10.494 9.138-15.25 13.157-1.568 1.327-2.573 3.199-2.813 5.238-.239 2.04.304 4.094 1.521 5.748.906 1.214 2.133 2.15 3.544 2.703 1.41.553 2.946.701 4.436.426 2.403-.452 4.693-1.374 6.738-2.715 2.045-1.34 3.805-3.071 5.179-5.094l3.65-5.375 9.959-14.472Z"/>
    <path fill="#B3E2EC" d="M221.902 209.358c5.691-.72 9.72-5.918 8.999-11.61-.721-5.691-5.919-9.72-11.61-8.999-5.691.72-9.72 5.918-9 11.61.721 5.691 5.919 9.72 11.611 8.999Z"/>
    <path fill="#00778F" d="M214.038 207.264c-.1-.067-.196-.141-.294-.211-.002.009-.001.018-.004.026l.298.185Z"/>
    <path fill="#00778F" d="M229.78 193.963c-.059-.027-.111-.055-.17-.076-.744-.447-1.62-.624-2.48-.501-.81.207-1.414.883-2.173 1.216-1.631.708-3.491-.282-5.262-.184l-.041.006c-.564.035-1.115.182-1.622.43-.507.249-.96.595-1.333 1.019-.373.424-.659.917-.842 1.451-.183.534-.258 1.099-.223 1.663.038.573.186 1.133.188 1.704.018.287-.036.575-.156.836-.12.262-.302.49-.531.665-.731.448-1.839.059-2.428.684-.522.56-.189 1.48.246 2.114.481.52.77 1.189.819 1.896-.006.057-.015.114-.027.17-1.774-1.276-3.261-2.911-4.364-4.798-1.103-1.887-1.798-3.984-2.04-6.156-.148-.953-.071-1.926.225-2.843.15-.458.41-.871.759-1.203.348-.332.773-.573 1.237-.701.8-.171 1.682.086 2.417-.271.906-.436 1.166-1.576 1.549-2.516.476-1.124 1.252-2.094 2.243-2.806.991-.712 2.159-1.137 3.376-1.229.88-.025 1.761.039 2.629.19l1.688.239c.641.067 1.273.205 1.884.409.904.377 1.7.973 2.317 1.734.518.609.953 1.285 1.292 2.009-.898.162-1.808.244-2.72.247 1.109.508 2.225 1.014 3.334 1.522.252 1.006.322 2.049.209 3.08Z"/>
    <g fill="#00778F" opacity=".2">
      <path d="M30.7096 132.416c.1684-.294.3479-.579.5207-.869l-.0021-.107-.5186.976ZM383.04 90.6628c-.795 2.8483-2.493 5.3613-4.84 7.1611-2.346 1.7997-5.213 2.7891-8.17 2.8181-.768.005-1.535-.054-2.293-.176-8.317-1.3709-16.608-2.55-24.872-3.5375-10.81-1.3058-21.579-2.294-32.308-2.9645-8.967-.564-17.907-.9063-26.818-1.0269-10.67-.1463-21.295.0245-31.875.5124-8.845.4027-17.663 1.0297-26.456 1.881-10.517 1.0047-20.991 2.3313-31.422 3.9798-8.722 1.3697-17.419 2.9607-26.089 4.7747-10.371 2.163-20.701 4.646-30.99 7.45-8.599 2.343-17.173 4.903-25.721 7.681-10.224 3.322-20.4069 6.964-30.5494 10.926-7.7604 3.024-15.4929 6.233-23.1973 9.626-.7038.307-1.432.555-2.1769.742-1.8691.462-3.8149.524-5.7094.18-1.8945-.343-3.6948-1.084-5.2824-2.174-1.5876-1.089-2.9267-2.502-3.929-4.146-1.0023-1.644-1.6451-3.482-1.8863-5.392l-.8024-6.335c13.69-15.938 34.7406-25.1872 55.5507-30.0661 24.7474-5.8025 50.5154-6.7883 74.9874-13.6705 19.95-5.6129 39.269-15.1722 59.995-15.3243 18.059-.1418 35.429 6.9232 53.436 8.3484 22.588 1.7856 45.291-5.3603 67.789-2.6857 8.819 1.0426 17.67 3.718 24.583 9.2863 4.002 3.2047 7.116 7.3814 9.046 12.1317Z"/>
    </g>
    <path fill="#009EBF" d="M232.597 210.457c-.669-1.372-2.583-1.405-4.097-1.209-3.375.438-6.729 1.008-10.062 1.712l.288-.433c-.943-.264-1.942-.25-2.876.041-.896.382-1.525 1.545-.995 2.362.398.613 1.332.916 1.36 1.647.048 1.237-2.371 1.13-2.591 2.348-.021.239.033.478.153.686.121.207.303.372.521.472.441.191.919.279 1.399.256 5.102.093 10.133-1.214 14.545-3.779.777-.4 1.462-.958 2.009-1.639.27-.344.443-.753.504-1.186.061-.432.006-.873-.158-1.278Z"/>
  </g>
  <defs>
    <clipPath id="a">
      <use xlink:href="#reuse-0"/>
    </clipPath>
    <clipPath id="b">
      <path fill="#fff" d="M300 30h260v260H300z"/>
    </clipPath>
  </defs>
</svg>
