
<svg width="290" height="685" viewBox="0 0 290 685" fill="none" xmlns="http://www.w3.org/2000/svg">
<path fill-rule="evenodd" clip-rule="evenodd" d="M127.269 196.387C135.936 196.387 144.247 192.941 150.375 186.806C156.504 180.671 159.947 172.349 159.947 163.673C159.947 154.996 156.504 146.675 150.375 140.54C144.247 134.405 135.936 130.958 127.269 130.958C118.602 130.958 110.289 134.405 104.161 140.54C98.0325 146.675 94.5895 154.996 94.5895 163.673C94.5895 172.349 98.0325 180.671 104.161 186.806C110.289 192.941 118.602 196.387 127.269 196.387ZM172.158 532.75C172.273 541.391 175.753 549.646 181.857 555.756C187.961 561.867 196.206 565.35 204.837 565.465C213.504 565.465 221.816 562.018 227.944 555.883C234.072 549.748 237.515 541.427 237.515 532.75C237.515 524.074 234.072 515.752 227.944 509.617C221.816 503.482 213.504 500.035 204.837 500.035C196.206 500.15 187.961 503.634 181.857 509.744C175.753 515.855 172.273 524.109 172.158 532.75ZM163.829 479.927C145.831 497.944 121.421 508.067 95.9686 508.067C70.5162 508.067 46.1062 497.944 28.1086 479.927C10.111 461.909 0 437.472 0 411.991C0 386.51 10.111 362.073 28.1086 344.056C46.1062 326.038 70.5162 315.916 95.9686 315.916C121.421 315.916 145.831 326.038 163.829 344.056C181.826 362.073 191.937 386.51 191.937 411.991C191.937 437.472 181.826 461.909 163.829 479.927Z" fill="#417DC4"/>
<path fill-rule="evenodd" clip-rule="evenodd" d="M109.565 42.054C104.95 46.6739 98.6909 49.2694 92.1646 49.2694C85.6384 49.2694 79.38 46.6739 74.7653 42.054C70.1505 37.4341 67.5573 31.1682 67.5573 24.6347C67.5573 18.1012 70.1505 11.8353 74.7653 7.21539C79.38 2.59549 85.6384 0 92.1646 0C98.6909 0 104.95 2.59549 109.565 7.21539C114.18 11.8353 116.772 18.1012 116.772 24.6347C116.772 31.1682 114.18 37.4341 109.565 42.054ZM226.021 319.857C242.989 319.857 259.262 313.108 271.261 301.097C283.259 289.085 290 272.794 290 255.806C290 238.819 283.259 222.528 271.261 210.516C259.262 198.504 242.989 191.756 226.021 191.756C209.053 191.756 192.779 198.504 180.781 210.516C168.783 222.528 162.042 238.819 162.042 255.806C162.042 272.794 168.783 289.085 180.781 301.097C192.779 313.108 209.053 319.857 226.021 319.857ZM77.8479 555.956C60.8797 555.956 44.6064 562.704 32.608 574.716C20.6097 586.728 13.869 603.019 13.869 620.006C13.869 636.993 20.6097 653.285 32.608 665.297C44.6064 677.308 60.8797 684.057 77.8479 684.057C94.8162 684.057 111.089 677.308 123.088 665.297C135.086 653.285 141.827 636.993 141.827 620.006C141.827 603.019 135.086 586.728 123.088 574.716C111.089 562.704 94.8162 555.956 77.8479 555.956Z" fill="#7AB1E8"/>
</svg>

