<svg width="20" height="20" viewBox="0 0 20 20" fill="none" xmlns="http://www.w3.org/2000/svg">
<path d="M5.132 18.737C3.5757 17.87 2.27933 16.603 1.37705 15.0669C0.474769 13.5308 -0.000645818 11.7815 6.58437e-07 10C6.58437e-07 4.477 4.477 0 10 0C15.523 0 20 4.477 20 10C20.0006 11.7815 19.5252 13.5308 18.623 15.0669C17.7207 16.603 16.4243 17.87 14.868 18.737L13.972 16.946C15.503 16.0702 16.7016 14.7129 17.3814 13.0854C18.0612 11.4579 18.1841 9.65135 17.731 7.94676C17.2779 6.24217 16.2741 4.73511 14.8759 3.66C13.4776 2.58488 11.7633 2.00199 9.9995 2.00199C8.23571 2.00199 6.52136 2.58488 5.12312 3.66C3.72488 4.73511 2.72113 6.24217 2.268 7.94676C1.81488 9.65135 1.93779 11.4579 2.6176 13.0854C3.29742 14.7129 4.49603 16.0702 6.027 16.946L5.132 18.737ZM6.924 15.153C5.79634 14.4798 4.9207 13.4552 4.43143 12.2365C3.94215 11.0177 3.86627 9.67207 4.21543 8.40602C4.56459 7.13997 5.31949 6.02345 6.36432 5.22776C7.40915 4.43208 8.68619 4.00117 9.9995 4.00117C11.3128 4.00117 12.5899 4.43208 13.6347 5.22776C14.6795 6.02345 15.4344 7.13997 15.7836 8.40602C16.1327 9.67207 16.0568 11.0177 15.5676 12.2365C15.0783 13.4552 14.2027 14.4798 13.075 15.153L12.177 13.356C12.9008 12.8864 13.4534 12.1954 13.7523 11.3861C14.0512 10.5767 14.0804 9.69244 13.8355 8.86514C13.5907 8.03783 13.0849 7.31187 12.3937 6.79557C11.7024 6.27927 10.8628 6.00031 10 6.00031C9.13723 6.00031 8.29757 6.27927 7.60633 6.79557C6.91509 7.31187 6.40931 8.03783 6.16446 8.86514C5.91961 9.69244 5.94881 10.5767 6.24772 11.3861C6.54662 12.1954 7.0992 12.8864 7.823 13.356L6.924 15.153ZM10 14L13 20H7L10 14Z" fill="#CECECE"/>
</svg>
