<svg width="52" height="50" viewBox="0 0 52 50" fill="none" xmlns="http://www.w3.org/2000/svg">
<path fill-rule="evenodd" clip-rule="evenodd" d="M4.55201 0.250334L50.7497 46.4503L47.448 49.7497L39.7247 42.0263C35.6208 44.6293 30.8597 46.0078 26 46C13.4187 46 2.95134 36.9467 0.755676 25C1.75908 19.565 4.49281 14.6001 8.54901 10.846H8.54668L1.25034 3.552L4.55201 0.250334ZM16.2653 18.567C13.2045 23.1923 13.8231 29.3332 17.745 33.2551C21.6668 37.1769 27.8077 37.7955 32.433 34.7347L29.017 31.3187C26.3394 32.5998 23.1449 32.0529 21.046 29.954C18.9471 27.8551 18.4002 24.6606 19.6813 21.983L16.2653 18.567ZM26 4C38.5813 4 49.0487 13.0533 51.2443 25C50.5294 28.8866 48.9223 32.5544 46.5497 35.7147L37.543 26.708C38.0855 23.0534 36.8649 19.3578 34.2524 16.7453C31.6399 14.1328 27.9443 12.9121 24.2897 13.4547L16.606 5.77567V5.77333C19.5157 4.63 22.6867 4 26 4Z" fill="#000091"/>
</svg>
