<svg width="52" height="42" viewBox="0 0 52 42" fill="none" xmlns="http://www.w3.org/2000/svg">
<path fill-rule="evenodd" clip-rule="evenodd" d="M26 0C38.5813 0 49.0487 9.05333 51.2443 21C49.051 32.9467 38.5813 42 26 42C13.4187 42 2.95134 32.9467 0.755669 21C2.949 9.05333 13.4187 0 26 0ZM26 9.33333C19.5567 9.33333 14.3333 14.5567 14.3333 21C14.3333 27.4433 19.5567 32.6667 26 32.6667C32.4433 32.6667 37.6667 27.4433 37.6667 21C37.6667 14.5567 32.4433 9.33333 26 9.33333ZM26 14C29.866 14 33 17.134 33 21C33 24.866 29.866 28 26 28C22.134 28 19 24.866 19 21C19 17.134 22.134 14 26 14Z" fill="#000091"/>
</svg>
