<svg width="384" height="216" viewBox="0 0 384 216" fill="none" xmlns="http://www.w3.org/2000/svg">
<path fill-rule="evenodd" clip-rule="evenodd" d="M176.016 70.6667L144 102.667V171.963C143.99 173.377 144.542 174.738 145.536 175.745C146.529 176.752 147.882 177.323 149.296 177.333H189V166.667H154.667V108H181.333V81.3333L229.333 81.3333V134H240V75.9573C240 73.0933 237.6 70.6667 234.656 70.6667L176.016 70.6667Z" fill="#E5E5E5"/>
<path d="M206.212 184.667L194.333 194V144.667C194.333 143.194 195.527 142 197 142H245C246.473 142 247.667 143.194 247.667 144.667V182C247.667 183.473 246.473 184.667 245 184.667H206.212ZM218.333 171.333V176.667H223.667V171.333H218.333ZM211.846 157.503L217.077 158.549C217.442 156.715 219.059 155.333 221 155.333C223.209 155.333 225 157.124 225 159.333C225 161.542 223.209 163.333 221 163.333H218.333V168.667H221C226.155 168.667 230.333 164.488 230.333 159.333C230.333 154.179 226.155 150 221 150C216.472 150 212.697 153.225 211.846 157.503Z" fill="#009EBF"/>
<path d="M70.306 212.803L73.2347 212.803L74.6282 201.499L70.3055 201.499L70.306 212.803Z" fill="#CBE8EA"/>
<path d="M97.3012 212.803L100.23 212.803L101.623 201.499L97.3007 201.499L97.3012 212.803Z" fill="#CBE8EA"/>
<path d="M93.7651 121.985L95.6763 134.177L77.5201 134.416L79.9091 122.703L93.7651 121.985Z" fill="#CBE8EA"/>
<path d="M70.3449 143.212C70.8505 143.074 71.3196 142.827 71.7194 142.488C72.1192 142.149 72.4398 141.727 72.6588 141.251C72.8777 140.774 72.9896 140.256 72.9866 139.731C72.9836 139.207 72.8657 138.69 72.6413 138.216L80.3652 113.017L74.684 111.891L67.6197 136.59C66.8492 137.02 66.2632 137.718 65.9726 138.552C65.682 139.385 65.7071 140.296 66.043 141.113C66.3789 141.929 67.0024 142.593 67.7953 142.98C68.5882 143.367 69.4953 143.45 70.3449 143.212Z" fill="#CBE8EA"/>
<path d="M118.584 106.586C118.508 106.755 118.447 106.929 118.399 107.108L102.733 112.435L99.7059 109.788L95.1177 113.838L100.022 119.044C100.418 119.464 100.94 119.745 101.509 119.843C102.078 119.942 102.664 119.853 103.178 119.59L119.941 111.022C120.548 111.394 121.253 111.573 121.963 111.534C122.673 111.495 123.355 111.241 123.917 110.805C124.479 110.37 124.896 109.773 125.111 109.095C125.326 108.416 125.329 107.689 125.121 107.008C124.913 106.328 124.503 105.727 123.945 105.286C123.387 104.844 122.708 104.583 121.998 104.537C121.288 104.492 120.582 104.663 119.972 105.029C119.362 105.395 118.878 105.938 118.584 106.586Z" fill="#CBE8EA"/>
<path d="M80.2508 95.3483C78.3157 91.8062 79.6167 87.3651 83.1564 85.4288C86.6962 83.4925 91.1344 84.7943 93.0695 88.3364C95.0045 91.8785 93.7036 96.3196 90.1638 98.2559C86.624 100.192 82.1858 98.8904 80.2508 95.3483Z" fill="#CBE8EA"/>
<path d="M46.1764 200.908L50.7499 205.121L47.1152 199.018C49.9788 193.822 54.6622 189.331 54.6622 189.331C54.6622 189.331 64.3787 198.646 64.3787 205.969C64.3787 213.291 60.0285 215.848 54.6622 215.848C49.2961 215.848 44.9459 213.291 44.9459 205.969C44.9459 204.339 45.4279 202.61 46.1764 200.908Z" fill="#E5E5E5"/>
<path d="M51.9261 205.35V205.711C51.9475 209.906 52.6546 213.18 54.042 215.485C54.0617 215.519 54.0831 215.551 54.1027 215.585L54.2581 215.49L54.4063 215.397C52.8671 212.908 52.3225 209.39 52.3029 205.731C52.3011 205.613 52.2993 205.493 52.3011 205.373C52.3064 203.824 52.4011 202.257 52.5528 200.735C52.5635 200.617 52.576 200.497 52.5885 200.377C52.7992 198.369 53.1028 196.45 53.4135 194.783C53.4349 194.665 53.4581 194.547 53.4813 194.431C54.0188 191.611 54.567 189.569 54.692 189.117C54.7063 189.062 54.7152 189.031 54.717 189.024L54.5474 188.976L54.5456 188.974L54.3742 188.926C54.3724 188.933 54.342 189.035 54.292 189.224C54.101 189.932 53.6046 191.853 53.1171 194.386C53.0957 194.501 53.0725 194.619 53.051 194.737C52.7975 196.089 52.5493 197.601 52.3528 199.187C52.3029 199.586 52.2582 199.979 52.2189 200.367C52.2047 200.486 52.1921 200.606 52.1814 200.724C52.0171 202.37 51.932 203.912 51.9261 205.35Z" fill="white"/>
<path d="M53.1174 194.385C53.237 194.401 53.3584 194.417 53.4817 194.429C53.8163 194.464 54.1524 194.481 54.4887 194.481C55.9222 194.483 57.3379 194.163 58.6314 193.545C58.7064 193.64 58.7814 193.734 58.8582 193.831C57.4974 194.495 56.0029 194.84 54.4887 194.838C54.1297 194.838 53.7709 194.819 53.4138 194.781C53.2924 194.769 53.171 194.753 53.0513 194.735C52.0638 194.593 51.1035 194.302 50.2033 193.872C50.2801 193.774 50.355 193.677 50.4283 193.582C51.2803 193.981 52.1864 194.251 53.1174 194.385Z" fill="white"/>
<path d="M52.2188 200.366C52.3421 200.373 52.4653 200.376 52.5885 200.376C52.626 200.378 52.6653 200.378 52.7028 200.378C54.256 200.378 55.7863 200.002 57.163 199.283C58.5397 198.563 59.7222 197.521 60.6095 196.245C60.6809 196.351 60.7523 196.456 60.8219 196.563C59.8971 197.854 58.6782 198.906 57.2663 199.631C55.8544 200.357 54.29 200.735 52.7028 200.736C52.6528 200.736 52.6028 200.736 52.5527 200.734C52.4278 200.732 52.3046 200.728 52.1814 200.723C50.2748 200.625 48.4368 199.98 46.887 198.865C46.9441 198.759 47.0013 198.654 47.0602 198.549C48.5664 199.644 50.3592 200.275 52.2188 200.366Z" fill="white"/>
<path d="M51.9256 205.349C52.0506 205.36 52.1755 205.367 52.3005 205.373C52.4345 205.378 52.5684 205.382 52.7023 205.382C54.7895 205.379 56.8197 204.7 58.4891 203.447C60.1584 202.193 61.377 200.432 61.9625 198.427C62.0429 198.572 62.1232 198.715 62.2 198.86C61.5403 200.86 60.2676 202.601 58.5626 203.836C56.8576 205.071 54.8071 205.737 52.7023 205.739C52.5684 205.739 52.4345 205.737 52.3023 205.73C52.1756 205.726 52.0506 205.719 51.9256 205.71C49.4009 205.513 47.0456 204.362 45.3366 202.492C45.3741 202.36 45.417 202.23 45.4599 202.097C47.1105 203.982 49.4297 205.148 51.9256 205.349Z" fill="white"/>
<path d="M76.0173 100.453H91.4453V87.027C91.4294 86.1957 91.0848 85.4046 90.4869 84.8271C89.8891 84.2496 89.0868 83.9329 88.256 83.9464H83.1277C79.207 83.9464 76.0173 87.0274 76.0173 90.8143V100.453Z" fill="#00778F"/>
<path d="M69.5583 215.643L79.0021 215.643V215.524C79.0021 214.548 78.6148 213.613 77.9255 212.923C77.2361 212.233 76.3012 211.845 75.3263 211.845L69.5581 211.846L69.5583 215.643Z" fill="#00778F"/>
<path d="M96.5543 215.643L105.998 215.643V215.524C105.998 214.548 105.611 213.613 104.921 212.923C104.232 212.233 103.297 211.845 102.322 211.845L96.5541 211.846L96.5543 215.643Z" fill="#00778F"/>
<path d="M95.1495 131.203L100.932 146.61L101.649 210.462H96.7515L85.0455 159.161L74.295 209.123H69.5171L72.8617 152.945C72.8617 152.945 71.8754 141.67 76.9229 135.016L78.1515 131.464L95.1495 131.203Z" fill="#00778F"/>
<path d="M80.5666 128.722L93.0822 128.48C93.4399 128.472 93.7853 128.348 94.0654 128.125C94.3455 127.902 94.5449 127.594 94.6331 127.247C95.304 124.588 96.7802 117.661 95.9972 110.761C95.8427 109.424 95.4218 108.132 94.7595 106.961C94.0972 105.79 93.2069 104.764 92.1413 103.943C91.0756 103.123 89.8564 102.524 88.5555 102.183C87.2547 101.842 85.8988 101.766 84.568 101.959C83.1641 102.16 81.8186 102.656 80.6197 103.414C79.4208 104.172 78.3957 105.175 77.6115 106.358C76.8273 107.54 76.3018 108.875 76.0695 110.275C75.8372 111.675 75.9033 113.108 76.2635 114.481C77.8389 120.467 78.7288 124.75 78.9084 127.211C78.9349 127.567 79.0772 127.904 79.3133 128.171C79.5495 128.438 79.8665 128.621 80.2161 128.691C80.3201 128.712 80.4258 128.722 80.5318 128.722C80.5435 128.722 80.555 128.722 80.5666 128.722Z" fill="#33B1CC"/>
<path d="M102.7 111.586C102.699 111.37 102.651 111.157 102.56 110.961C102.469 110.766 102.337 110.592 102.173 110.452L96.4368 105.563C95.7109 104.73 94.6847 104.22 93.5834 104.143C92.482 104.067 91.3953 104.431 90.5616 105.155C89.728 105.88 89.2154 106.905 89.1364 108.007C89.0574 109.109 89.4184 110.197 90.1402 111.033L94.225 117.398C94.3416 117.58 94.4959 117.734 94.6775 117.851C94.8591 117.968 95.0637 118.044 95.2773 118.074C95.4909 118.104 95.7085 118.088 95.9153 118.027C96.1222 117.965 96.3133 117.86 96.4758 117.718L102.187 112.727C102.349 112.585 102.479 112.409 102.568 112.213C102.657 112.016 102.702 111.802 102.7 111.586Z" fill="#33B1CC"/>
<path d="M80.7106 119.402C80.9016 119.301 81.0686 119.161 81.2003 118.99C81.332 118.819 81.4253 118.621 81.4739 118.411L83.1698 111.064C83.5738 110.036 83.5538 108.89 83.1143 107.876C82.6749 106.863 81.8517 106.066 80.8254 105.659C79.7992 105.252 78.6535 105.269 77.6397 105.706C76.6259 106.143 75.8267 106.964 75.4173 107.99L71.6518 114.55C71.5444 114.737 71.4785 114.945 71.4587 115.16C71.4389 115.375 71.4657 115.592 71.5371 115.795C71.6086 115.999 71.723 116.185 71.8728 116.34C72.0225 116.496 72.2039 116.617 72.4047 116.696L79.4622 119.47C79.663 119.55 79.8785 119.584 80.0939 119.572C80.3094 119.56 80.5197 119.502 80.7106 119.402Z" fill="#33B1CC"/>
<path d="M74.6396 85.2579C74.0601 83.9004 75.0566 82.1732 76.8654 81.4C78.6742 80.6269 80.6103 81.1006 81.1898 82.4581C81.7693 83.8155 80.7728 85.5428 78.9639 86.316C77.1551 87.0891 75.219 86.6154 74.6396 85.2579Z" fill="#00778F"/>
<path d="M82.6533 83.4701H91.0084C91.6209 83.4621 92.2138 83.6862 92.6681 84.0974C93.1224 84.5085 93.4046 85.0764 93.4581 85.687C93.4797 86.0115 93.4345 86.337 93.3252 86.6433C93.216 86.9496 93.045 87.2302 92.823 87.4677C92.6009 87.7052 92.3325 87.8945 92.0344 88.024C91.7362 88.1534 91.4147 88.2202 91.0897 88.2202C90.4602 88.2202 89.8564 88.4705 89.4113 88.9159C88.9662 89.3613 88.7161 89.9654 88.7161 90.5953V100.333H75.6616V90.4663C75.6616 89.5475 75.8425 88.6378 76.1939 87.7889C76.5452 86.9401 77.0602 86.1689 77.7095 85.5192C78.3587 84.8695 79.1294 84.3542 79.9777 84.0026C80.826 83.651 81.7351 83.4701 82.6533 83.4701Z" fill="#00778F"/>
<path d="M41.4666 216H131.898C131.961 216 132.022 215.975 132.066 215.93C132.111 215.886 132.136 215.825 132.136 215.762C132.136 215.699 132.111 215.639 132.066 215.594C132.022 215.55 131.961 215.525 131.898 215.525H41.4666C41.4036 215.525 41.3432 215.55 41.2987 215.594C41.2542 215.639 41.2292 215.699 41.2292 215.762C41.2292 215.825 41.2542 215.886 41.2987 215.93C41.3432 215.975 41.4036 216 41.4666 216Z" fill="#E5E5E5"/>
</svg>
