<svg width="384" height="216" viewBox="0 0 384 216" fill="none" xmlns="http://www.w3.org/2000/svg">
<g clip-path="url(#clip0_0_10)">
<path fill-rule="evenodd" clip-rule="evenodd" d="M173.016 70.6667L141 102.667V171.963C140.99 173.377 141.542 174.738 142.536 175.745C143.529 176.752 144.882 177.323 146.296 177.333H183.837C182.041 174.031 180.697 170.448 179.887 166.667H151.667V108H178.333V81.3333L226.333 81.3333V118.921C230.101 119.619 233.683 120.845 237 122.519V75.9573C237 73.0933 234.6 70.6667 231.656 70.6667L173.016 70.6667Z" fill="#E5E5E5"/>
<path d="M189 158.408C189 175.086 202.537 188.623 219.214 188.623C235.892 188.623 249.429 175.142 249.429 158.408C249.429 141.749 235.892 128.25 219.214 128.25C202.499 128.213 189 141.749 189 158.408Z" fill="#009EBF"/>
<path d="M241.427 147.041C243.091 148.836 244.044 151.416 244.325 154.725C244.362 155.286 243.764 155.753 243.165 155.753H226.095C225.497 155.753 224.861 155.23 224.936 154.65C225.328 151.378 226.338 148.836 227.965 147.097C229.685 145.227 231.947 144.273 234.565 144.311C237.407 144.292 239.706 145.208 241.427 147.041ZM229.61 139.038C228.656 139.244 227.778 139.524 226.899 139.88C224.468 140.833 222.486 142.179 220.841 143.937C219.214 145.694 217.943 147.788 217.102 150.294C216.99 150.687 216.821 151.135 216.709 151.528V165.457C217.55 168.449 219.009 170.954 221.047 173.011C224.506 176.601 229.367 178.377 235.724 178.377C238.435 178.377 240.866 178.022 242.922 177.349C246.699 176.04 250.962 172.207 251.71 168.673C252.177 166.373 250.756 165.85 249.99 165.719C249.84 165.719 249.709 165.682 249.541 165.682C248.662 165.682 247.952 165.962 247.503 166.392C246.98 166.859 245.428 168.337 244.642 169.01C243.801 169.72 242.922 170.393 241.969 170.992C241.015 171.627 239.987 172.095 238.902 172.431C237.874 172.712 236.678 172.861 235.444 172.861C233.536 172.861 231.779 172.375 230.19 171.422C228.6 170.468 227.329 169.066 226.413 167.252C225.534 165.551 225.067 163.625 224.973 161.475C224.936 160.764 225.497 160.316 226.132 160.316H245.278C247.858 160.316 249.822 159.923 251.13 159.25C252.327 158.651 253 157.305 253 154.837C253 152.22 252.327 149.621 250.962 147.078C249.616 144.535 247.578 142.46 244.829 140.871C243.446 140.029 241.931 139.431 240.249 139.038H229.535H229.61Z" fill="#009EBF"/>
<path d="M241.427 147.041C243.091 148.836 244.044 151.416 244.325 154.725C244.362 155.286 243.764 155.753 243.165 155.753H226.095C225.497 155.753 224.861 155.23 224.936 154.65C225.328 151.378 226.338 148.836 227.965 147.097C229.685 145.227 231.947 144.273 234.565 144.311C237.407 144.292 239.706 145.208 241.427 147.041ZM226.899 139.88C224.468 140.833 222.486 142.179 220.841 143.937C219.214 145.694 217.943 147.788 217.102 150.294C216.26 152.799 215.793 155.51 215.793 158.408C215.793 164.616 217.55 169.477 221.047 173.048C224.506 176.638 229.367 178.414 235.724 178.414C238.341 178.414 240.66 178.096 242.698 177.461C245.409 174.114 247.428 170.169 248.513 165.887C248.12 165.999 247.802 166.205 247.522 166.448C247.329 166.62 246.996 166.93 246.614 167.286C245.958 167.895 245.157 168.641 244.661 169.066C243.82 169.776 242.96 170.468 241.987 171.048C241.034 171.683 240.006 172.169 238.921 172.487C237.893 172.768 236.696 172.936 235.462 172.936C233.555 172.936 231.798 172.469 230.208 171.496C228.619 170.543 227.348 169.141 226.431 167.327C225.553 165.607 225.085 163.7 224.992 161.55C224.954 160.839 225.515 160.39 226.151 160.39H245.297C246.886 160.39 248.288 160.241 249.391 159.96C249.429 159.493 249.429 158.969 249.429 158.446C249.429 151.528 247.073 145.152 243.184 140.011C240.828 138.982 238.136 138.459 235.032 138.459C231.984 138.44 229.33 138.907 226.899 139.88Z" fill="white"/>
<path d="M241.427 147.041C243.091 148.836 244.044 151.416 244.325 154.725C244.362 155.286 243.764 155.753 243.165 155.753H226.095C225.497 155.753 224.861 155.23 224.936 154.65C225.328 151.378 226.338 148.836 227.965 147.097C229.685 145.227 231.947 144.273 234.565 144.311C237.407 144.292 239.706 145.208 241.427 147.041ZM226.899 139.88C224.468 140.833 222.486 142.179 220.841 143.937C219.214 145.694 217.943 147.788 217.102 150.294C216.26 152.799 215.793 155.51 215.793 158.408C215.793 164.616 217.55 169.477 221.047 173.048C224.506 176.638 229.367 178.414 235.724 178.414C238.341 178.414 240.66 178.096 242.698 177.461C245.409 174.114 247.428 170.169 248.513 165.887C248.12 165.999 247.802 166.205 247.522 166.448C247.329 166.62 246.996 166.93 246.614 167.286C245.958 167.895 245.157 168.641 244.661 169.066C243.82 169.776 242.96 170.468 241.987 171.048C241.034 171.683 240.006 172.169 238.921 172.487C237.893 172.768 236.696 172.936 235.462 172.936C233.555 172.936 231.798 172.469 230.208 171.496C228.619 170.543 227.348 169.141 226.431 167.327C225.553 165.607 225.085 163.7 224.992 161.55C224.954 160.839 225.515 160.39 226.151 160.39H245.297C246.886 160.39 248.288 160.241 249.391 159.96C249.429 159.493 249.429 158.969 249.429 158.446C249.429 151.528 247.073 145.152 243.184 140.011C240.828 138.982 238.136 138.459 235.032 138.459C231.984 138.44 229.33 138.907 226.899 139.88Z" stroke="white"/>
<path d="M280.587 211.778L276.673 211.778L274.812 196.592L280.588 196.593L280.587 211.778Z" fill="#80CEDF"/>
<path d="M301.68 211.778L297.767 211.778L295.906 196.592L301.681 196.593L301.68 211.778Z" fill="#80CEDF"/>
<path d="M294.971 210.654H302.518V215.435H290.219C290.219 214.807 290.342 214.185 290.581 213.605C290.82 213.025 291.17 212.498 291.611 212.054C292.052 211.61 292.576 211.258 293.153 211.018C293.729 210.778 294.347 210.654 294.971 210.654Z" fill="#00778F"/>
<path d="M290.219 103.823C294.862 103.823 298.627 100.036 298.627 95.3649C298.627 90.6936 294.862 86.9067 290.219 86.9067C285.576 86.9067 281.812 90.6936 281.812 95.3649C281.812 100.036 285.576 103.823 290.219 103.823Z" fill="#80CEDF"/>
<path d="M261.471 150.526C261.53 150.058 261.69 149.608 261.94 149.209C262.191 148.809 262.525 148.47 262.919 148.215C263.314 147.959 263.76 147.794 264.225 147.73C264.69 147.667 265.163 147.707 265.611 147.847L270.309 142.181L274.428 144.213L267.681 152.122C267.397 152.863 266.852 153.474 266.15 153.839C265.448 154.203 264.637 154.296 263.872 154.099C263.107 153.902 262.439 153.43 261.997 152.771C261.555 152.113 261.368 151.314 261.471 150.526Z" fill="#80CEDF"/>
<path d="M301.909 156.258C301.709 155.831 301.604 155.365 301.603 154.893C301.601 154.421 301.702 153.954 301.899 153.526C302.095 153.097 302.383 152.717 302.742 152.413C303.1 152.108 303.521 151.887 303.974 151.763L304.917 144.445L309.477 143.937L308.001 154.253C308.157 155.032 308.022 155.842 307.624 156.528C307.226 157.215 306.591 157.73 305.841 157.978C305.09 158.225 304.275 158.186 303.55 157.869C302.826 157.552 302.242 156.979 301.909 156.258Z" fill="#80CEDF"/>
<path d="M280.587 211.779L276.673 211.778L274.812 196.593L280.588 196.593L280.587 211.779Z" fill="#CBE8EA"/>
<path d="M290.219 103.823C294.862 103.823 298.626 100.036 298.626 95.3645C298.626 90.6931 294.862 86.9062 290.219 86.9062C285.576 86.9062 281.812 90.6931 281.812 95.3645C281.812 100.036 285.576 103.823 290.219 103.823Z" fill="#CBE8EA"/>
<path d="M261.472 150.526C261.53 150.058 261.69 149.608 261.94 149.209C262.191 148.809 262.525 148.47 262.919 148.215C263.314 147.959 263.76 147.794 264.225 147.73C264.69 147.667 265.163 147.707 265.611 147.847L270.309 142.181L274.429 144.213L267.682 152.122C267.397 152.863 266.852 153.474 266.15 153.839C265.448 154.203 264.638 154.296 263.872 154.099C263.107 153.902 262.439 153.43 261.997 152.771C261.555 152.113 261.368 151.314 261.472 150.526Z" fill="#CBE8EA"/>
<path d="M301.909 156.258C301.709 155.831 301.604 155.365 301.603 154.893C301.601 154.421 301.702 153.955 301.899 153.526C302.095 153.097 302.383 152.718 302.742 152.413C303.1 152.108 303.521 151.887 303.974 151.763L304.917 144.445L309.477 143.938L308.001 154.253C308.156 155.032 308.022 155.842 307.624 156.528C307.226 157.215 306.591 157.731 305.84 157.978C305.09 158.225 304.275 158.186 303.55 157.87C302.826 157.553 302.242 156.979 301.909 156.258Z" fill="#CBE8EA"/>
<path d="M301.68 211.779L297.767 211.778L295.906 196.593L301.681 196.593L301.68 211.779Z" fill="#CBE8EA"/>
<path d="M273.878 210.654H281.425V215.435H269.126C269.126 214.807 269.249 214.185 269.488 213.605C269.727 213.025 270.077 212.498 270.518 212.055C270.959 211.611 271.483 211.258 272.06 211.018C272.636 210.778 273.254 210.654 273.878 210.654Z" fill="#00778F"/>
<path d="M294.971 210.654H302.518V215.435H290.219C290.219 214.807 290.342 214.185 290.581 213.605C290.82 213.025 291.17 212.498 291.611 212.055C292.052 211.611 292.576 211.258 293.153 211.018C293.729 210.778 294.347 210.654 294.971 210.654Z" fill="#00778F"/>
<path d="M297.246 111.342C297.693 110.765 298.283 110.316 298.958 110.042C299.632 109.767 300.367 109.676 301.087 109.779C301.808 109.881 302.489 110.173 303.061 110.625C303.634 111.076 304.078 111.672 304.348 112.351L311.239 129.653C311.944 131.421 312.168 133.346 311.89 135.23L309.646 150.437C309.617 150.633 309.546 150.821 309.438 150.987C309.33 151.153 309.188 151.294 309.022 151.4C308.855 151.505 308.667 151.574 308.472 151.6C308.276 151.626 308.078 151.609 307.889 151.551L304.932 150.638C304.626 150.543 304.362 150.343 304.187 150.073C304.012 149.804 303.937 149.48 303.974 149.16C305.018 140.207 303.638 131.137 299.981 122.908L296.733 115.598C296.426 114.908 296.312 114.148 296.403 113.398C296.493 112.649 296.784 111.938 297.246 111.342Z" fill="#33B1CC"/>
<path d="M292.266 103.824C293.531 103.852 294.788 103.61 295.954 103.114C297.12 102.618 298.168 101.879 299.03 100.947C299.891 100.014 300.547 98.9087 300.954 97.703C301.361 96.4973 301.509 95.2186 301.39 93.951C301.271 92.6834 300.886 91.4555 300.261 90.3481C299.637 89.2407 298.786 88.2789 297.766 87.5257C296.745 86.7726 295.578 86.2452 294.34 85.9783C293.103 85.7114 291.823 85.711 290.585 85.9771C288.737 84.8477 286.587 84.0877 284.432 84.281C282.278 84.4743 280.147 85.7611 279.342 87.7806C278.536 89.8001 279.402 92.4621 281.405 93.2828C282.689 93.809 284.139 93.5538 285.51 93.3416C286.881 93.1294 288.376 92.991 289.568 93.7024C290.761 94.4139 291.297 96.3216 290.229 97.2111C289.663 97.7013 289.259 98.3534 289.07 99.0806C288.881 99.8079 288.917 100.576 289.173 101.282C289.71 102.679 291.176 103.801 292.266 103.824Z" fill="#00778F"/>
<path d="M302.697 150.192L304.189 207.131C304.194 207.321 304.16 207.51 304.089 207.686C304.018 207.862 303.911 208.021 303.776 208.153C303.641 208.286 303.48 208.389 303.304 208.456C303.127 208.523 302.939 208.553 302.75 208.543L297.837 208.291C297.524 208.275 297.225 208.151 296.992 207.94C296.758 207.729 296.604 207.443 296.555 207.132L290.711 170.149C290.686 169.991 290.607 169.847 290.488 169.741C290.368 169.635 290.216 169.574 290.057 169.569C289.897 169.564 289.741 169.615 289.616 169.713C289.49 169.812 289.402 169.951 289.367 170.107L281.457 205.715C281.415 205.905 281.333 206.084 281.217 206.24C281.101 206.396 280.953 206.526 280.783 206.62C280.613 206.714 280.426 206.771 280.233 206.787C280.039 206.803 279.845 206.777 279.662 206.712L274.787 206.412C274.505 206.312 274.263 206.12 274.099 205.868C273.936 205.616 273.858 205.317 273.88 205.017L278.136 149.653L302.697 150.192Z" fill="#00778F"/>
<path d="M305.091 123.15C305.913 114.522 299.607 106.717 291.013 106.103C287.31 105.839 281.561 105.744 279.666 110.627C273.957 125.337 283.951 124.979 280.508 137.724C277.065 150.468 274.024 151.199 278.748 152.119C283.472 153.039 304.717 158.472 303.845 149.502C303.309 143.988 304.27 131.757 305.091 123.15Z" fill="#33B1CC"/>
<path d="M280.677 109.129C281.355 108.865 282.091 108.785 282.81 108.899C283.529 109.012 284.205 109.314 284.771 109.774C285.337 110.235 285.772 110.837 286.032 111.52C286.293 112.204 286.369 112.944 286.254 113.667L283.571 130.539C283.112 133.424 281.899 136.134 280.057 138.393L271.342 149.077C271.217 149.23 271.061 149.354 270.883 149.441C270.706 149.528 270.512 149.575 270.315 149.58C270.118 149.585 269.922 149.546 269.741 149.468C269.56 149.389 269.398 149.272 269.266 149.125L267.196 146.812C266.982 146.572 266.858 146.265 266.845 145.943C266.833 145.621 266.934 145.305 267.129 145.049L267.739 144.253C272.809 137.634 276.007 129.76 276.996 121.463L278.063 112.514C278.152 111.765 278.443 111.053 278.903 110.457C279.364 109.861 279.977 109.402 280.677 109.129Z" fill="#33B1CC"/>
<path d="M326.657 216.25H238.342C238.252 216.25 238.164 216.214 238.1 216.15C238.036 216.085 238 215.997 238 215.906C238 215.815 238.036 215.727 238.1 215.662C238.164 215.598 238.252 215.562 238.342 215.562H326.657C326.748 215.562 326.835 215.598 326.899 215.662C326.963 215.727 326.999 215.815 326.999 215.906C326.999 215.997 326.963 216.085 326.899 216.15C326.835 216.214 326.748 216.25 326.657 216.25Z" fill="#E5E5E5"/>
</g>
<defs>
<clipPath id="clip0_0_10">
<rect width="384" height="216" fill="white"/>
</clipPath>
</defs>
</svg>
