<svg width="384" height="216" viewBox="0 0 384 216" fill="none" xmlns="http://www.w3.org/2000/svg">
<g clip-path="url(#clip0_23_17823)">
<path d="M240 96.0386L229.333 106.705V81.3327L181.333 81.3327V107.999H154.667V166.666H229.333V151.96L240 141.293V172.043C240 174.965 237.627 177.333 234.702 177.333H149.298C146.372 177.333 144 174.933 144 171.963V102.666L176.017 70.666L234.655 70.666C237.607 70.666 240 73.0943 240 75.9556V96.0386ZM244.15 106.973L251.693 114.516L210.209 155.999L202.655 155.988L202.667 148.457L244.15 106.973Z" fill="#E5E5E5"/>
<path d="M251.693 114.516L244.15 106.974L202.667 148.457L202.656 155.989L210.209 156L251.693 114.516Z" fill="#E5E5E5"/>
</g>
<path d="M251.693 114.517L244.15 106.975L202.666 148.458L202.655 155.989L210.209 156.001L251.693 114.517Z" fill="#009EBF"/>
<circle cx="115.917" cy="170.917" r="44.9167" fill="#008F98"/>
<path d="M139.439 208.469C132.474 212.93 124.404 215.362 116.135 215.494C107.865 215.625 99.7225 213.451 92.6191 209.214C93.8688 206.888 95.4521 204.757 97.3188 202.889C100.199 199.995 103.704 197.8 107.565 196.472C111.426 195.144 115.54 194.719 119.591 195.229C123.642 195.739 127.523 197.172 130.934 199.416C134.345 201.66 137.196 204.656 139.269 208.174C139.324 208.269 139.384 208.369 139.439 208.469Z" fill="#80C6CB"/>
<path d="M114.074 184.56C126.279 184.56 136.172 174.665 136.172 162.46C136.172 150.254 126.279 140.359 114.074 140.359C101.87 140.359 91.9761 150.254 91.9761 162.46C91.9761 174.665 101.87 184.56 114.074 184.56Z" fill="#006A6F"/>
<path d="M128.351 178.048C132.708 170.077 129.779 160.082 121.808 155.725C113.838 151.368 103.845 154.297 99.4876 162.268C95.1307 170.239 98.0599 180.234 106.03 184.591C114.001 188.948 123.994 186.019 128.351 178.048Z" fill="#FFB8B8"/>
<path d="M128.351 178.048C132.708 170.077 129.779 160.082 121.808 155.725C113.838 151.368 103.845 154.297 99.4876 162.268C95.1307 170.239 98.0599 180.234 106.03 184.591C114.001 188.948 123.994 186.019 128.351 178.048Z" fill="#CBE8EA"/>
<path d="M98.8037 159.81C102.562 162.401 107.023 163.78 111.588 163.761C109.959 164.89 108.106 165.653 106.154 165.997C112.223 167.299 118.496 167.334 124.579 166.1C125.931 165.884 127.236 165.435 128.436 164.776C129.034 164.442 129.555 163.985 129.965 163.437C130.375 162.888 130.665 162.259 130.817 161.591C131.221 159.282 129.421 157.184 127.551 155.769C124.688 153.637 121.387 152.168 117.887 151.469C114.386 150.769 110.774 150.857 107.312 151.725C105.051 152.309 102.786 153.297 101.318 155.112C99.8491 156.928 99.414 159.728 100.813 161.598L98.8037 159.81Z" fill="#006A6F"/>
<path d="M115.998 126C104.069 126.013 92.6321 130.758 84.1963 139.194C75.7605 147.629 71.0147 159.067 71 170.997C71.0018 174.637 71.4493 178.262 72.3324 181.793C72.4244 182.156 72.5165 182.519 72.614 182.876C75.2095 192.393 80.8631 200.792 88.7033 206.778C96.5434 212.764 106.135 216.005 115.998 216C125.864 216 135.456 212.758 143.3 206.773C151.143 200.788 156.803 192.392 159.41 182.876C159.507 182.513 159.599 182.156 159.686 181.793C161.317 175.164 161.421 168.251 159.988 161.577C158.555 154.902 155.624 148.641 151.415 143.266C147.207 137.892 141.831 133.544 135.695 130.553C129.56 127.562 122.824 126.005 115.998 126ZM158.657 181.793C158.57 182.156 158.473 182.519 158.37 182.876C156.542 189.385 153.24 195.386 148.72 200.413C144.2 205.44 138.583 209.358 132.304 211.863C126.025 214.369 119.254 215.394 112.515 214.86C105.776 214.327 99.2509 212.248 93.4449 208.785C83.7956 202.978 76.7192 193.714 73.6539 182.876C73.5511 182.513 73.4535 182.156 73.3614 181.793C72.4588 178.265 72.0022 174.639 72.0021 170.997C72.0091 164.764 73.3402 158.604 75.9072 152.925C78.4742 147.245 82.2185 142.176 86.8921 138.052C91.5657 133.929 97.062 130.846 103.017 129.007C108.972 127.168 115.249 126.616 121.434 127.386C127.618 128.157 133.568 130.233 138.89 133.476C144.212 136.72 148.784 141.057 152.303 146.201C155.823 151.345 158.209 157.179 159.304 163.314C160.4 169.45 160.179 175.749 158.657 181.793Z" fill="#008F98"/>
<circle cx="295.934" cy="124.065" r="34.9345" fill="#A4589F"/>
<path d="M312.123 155.043C311.52 155.358 310.907 155.657 310.284 155.938C309.716 156.195 309.139 156.436 308.554 156.661C308.34 156.743 308.122 156.824 307.904 156.906C306.183 157.531 304.415 158.018 302.616 158.364C301.726 158.539 300.824 158.677 299.91 158.777C299.156 158.862 298.393 158.923 297.624 158.959C297.075 158.987 296.527 158.998 295.975 158.998C293.788 158.999 291.606 158.795 289.458 158.388C288.898 158.287 288.35 158.166 287.802 158.034C285.15 157.398 282.582 156.451 280.153 155.211C279.935 155.102 279.718 154.985 279.5 154.872C279.177 154.701 278.862 154.522 278.547 154.336C278.699 154.126 278.862 153.92 279.029 153.717C280.849 151.462 283.123 149.616 285.704 148.299C288.284 146.982 291.114 146.223 294.007 146.073C296.901 145.922 299.793 146.383 302.497 147.426C305.2 148.468 307.653 150.069 309.697 152.123C310.406 152.835 311.064 153.596 311.664 154.402C311.824 154.612 311.975 154.826 312.123 155.043Z" fill="#D1AACE"/>
<path d="M296.751 137.963C306.18 137.963 313.825 130.318 313.825 120.888C313.825 111.457 306.18 103.812 296.751 103.812C287.321 103.812 279.677 111.457 279.677 120.888C279.677 130.318 287.321 137.963 296.751 137.963Z" fill="#6E445A"/>
<path d="M301.292 137.986C307.45 134.619 309.714 126.898 306.347 120.739C302.981 114.58 295.26 112.317 289.102 115.683C282.944 119.05 280.681 126.772 284.047 132.931C287.413 139.089 295.134 141.353 301.292 137.986Z" fill="#C78991"/>
<path d="M301.292 137.986C307.45 134.619 309.714 126.898 306.347 120.739C302.981 114.58 295.26 112.317 289.102 115.683C282.944 119.05 280.681 126.772 284.047 132.931C287.413 139.089 295.134 141.353 301.292 137.986Z" fill="#E7D4E6"/>
<path d="M308.549 118.841C305.645 120.842 302.199 121.908 298.672 121.893C299.93 122.766 301.362 123.355 302.87 123.621C298.181 124.627 293.335 124.654 288.635 123.701C287.59 123.533 286.582 123.187 285.655 122.677C285.193 122.419 284.79 122.067 284.473 121.643C284.156 121.219 283.932 120.733 283.815 120.217C283.503 118.432 284.893 116.811 286.338 115.719C288.55 114.071 291.101 112.936 293.805 112.396C296.51 111.855 299.3 111.923 301.976 112.593C303.723 113.045 305.472 113.808 306.607 115.211C307.742 116.614 308.078 118.777 306.997 120.222L308.549 118.841Z" fill="#6E445A"/>
<path d="M298.555 89.0927C298.277 89.0716 297.995 89.0548 297.712 89.0421C297.144 89.0126 296.571 89 295.994 89C290.255 89.0001 284.605 90.4117 279.54 93.1102C274.475 95.8087 270.152 99.7115 266.951 104.475C263.75 109.238 261.769 114.715 261.183 120.424C260.597 126.133 261.424 131.899 263.591 137.213C263.704 137.496 263.823 137.778 263.949 138.056C266.844 144.615 271.67 150.135 277.783 153.88L278.006 154.01C278.196 154.124 278.381 154.234 278.566 154.335C278.882 154.524 279.198 154.701 279.518 154.874C279.737 154.988 279.956 155.102 280.171 155.211C282.601 156.452 285.169 157.399 287.821 158.034C288.369 158.169 288.917 158.287 289.477 158.388C291.625 158.795 293.807 158.999 295.994 158.999C296.546 158.999 297.093 158.986 297.645 158.961C298.412 158.927 299.174 158.864 299.928 158.779C300.842 158.678 301.745 158.541 302.637 158.367C304.434 158.019 306.202 157.532 307.924 156.909C308.143 156.825 308.362 156.745 308.572 156.66C309.162 156.437 309.735 156.197 310.304 155.94C310.927 155.658 311.541 155.359 312.145 155.043C318.197 151.871 323.2 147.012 326.547 141.055C326.563 141.024 326.579 140.993 326.598 140.963C329.448 135.826 330.959 130.053 330.991 124.178C331.023 118.303 329.575 112.515 326.781 107.346C323.987 102.178 319.937 97.7972 315.004 94.6071C310.071 91.4169 304.414 89.5205 298.555 89.0927ZM329.61 130.422C328.933 133.956 327.701 137.36 325.958 140.508C325.928 140.563 325.899 140.617 325.869 140.668C322.59 146.538 317.658 151.314 311.685 154.402C311.087 154.714 310.482 155.006 309.87 155.278C309.36 155.506 308.838 155.725 308.311 155.927C308.092 156.012 307.865 156.1 307.641 156.176C306.154 156.719 304.629 157.156 303.079 157.482C301.93 157.727 300.769 157.91 299.6 158.03C298.879 158.11 298.15 158.164 297.413 158.19C296.941 158.211 296.47 158.223 295.994 158.223C293.878 158.224 291.767 158.027 289.688 157.634C288.422 157.402 287.172 157.095 285.943 156.715C284.07 156.138 282.25 155.401 280.504 154.512C280.302 154.406 280.1 154.301 279.902 154.192C279.615 154.04 279.329 153.884 279.051 153.72C278.84 153.602 278.63 153.475 278.423 153.353C278.301 153.282 278.183 153.21 278.061 153.134C272.241 149.536 267.625 144.287 264.8 138.056C264.673 137.778 264.551 137.496 264.433 137.213C262.256 132.012 261.398 126.354 261.935 120.742C262.472 115.129 264.387 109.736 267.51 105.042C270.633 100.348 274.867 96.4988 279.837 93.8361C284.806 91.1733 290.356 89.7798 295.994 89.7794C296.571 89.7794 297.144 89.7921 297.712 89.8258C297.995 89.8342 298.277 89.8553 298.555 89.8763C303.362 90.2407 308.037 91.6158 312.276 93.9119C316.515 96.208 320.221 99.3732 323.153 103.2C326.084 107.028 328.175 111.431 329.287 116.122C330.4 120.813 330.51 125.686 329.61 130.422Z" fill="#A4589F"/>
<path d="M288.105 104.046C287.921 102.114 285.555 100.925 283.704 101.508C281.853 102.092 280.638 103.956 280.271 105.861C280.094 106.664 280.078 107.493 280.222 108.302C280.367 109.111 280.669 109.883 281.113 110.575C282.048 111.922 283.768 112.762 285.371 112.42C287.201 112.03 288.469 110.242 288.832 108.406C289.195 106.57 288.835 104.677 288.475 102.841L288.105 104.046Z" fill="#6E445A"/>
<path d="M314.15 106.806C313.966 104.874 311.6 103.685 309.749 104.268C307.898 104.852 306.683 106.715 306.316 108.621C306.139 109.423 306.123 110.253 306.267 111.062C306.412 111.871 306.714 112.643 307.158 113.335C308.093 114.681 309.812 115.522 311.416 115.18C313.246 114.79 314.514 113.002 314.877 111.166C315.24 109.33 314.879 107.437 314.52 105.601L314.15 106.806Z" fill="#6E445A"/>
<circle cx="120.437" cy="65.4606" r="22.4606" fill="#417DC3"/>
<path d="M132.484 84.1612C129.002 86.3917 124.967 87.6082 120.832 87.6742C116.697 87.7402 112.625 86.6532 109.073 84.535C109.111 84.4618 109.151 84.3887 109.195 84.3183C110.334 82.2642 111.994 80.5467 114.009 79.3387C116.023 78.1307 118.32 77.4749 120.668 77.4373C123.017 77.3996 125.334 77.9816 127.386 79.1244C129.438 80.2673 131.152 81.9307 132.357 83.9472C132.373 83.9689 132.387 83.9932 132.4 84.0149C132.427 84.061 132.457 84.1124 132.484 84.1612Z" fill="#9FBDE0"/>
<path d="M130.851 61.1531C130.851 63.3388 130.203 65.4754 128.989 67.2928C127.774 69.1102 126.049 70.5267 124.029 71.3631C122.01 72.1995 119.788 72.4184 117.645 71.992C115.501 71.5655 113.532 70.513 111.987 68.9675C110.442 67.4219 109.389 65.4527 108.963 63.309C108.536 61.1652 108.755 58.9432 109.592 56.9238C110.428 54.9045 111.844 53.1785 113.662 51.9642C115.479 50.7498 117.615 50.1017 119.801 50.1017C121.254 50.0947 122.694 50.3759 124.038 50.9288C125.381 51.4817 126.602 52.2955 127.63 53.3231C128.657 54.3507 129.471 55.5717 130.024 56.9157C130.577 58.2596 130.858 59.6998 130.851 61.1531Z" fill="#3558A1"/>
<path d="M128.46 68.0194C128.333 68.3376 128.188 68.6479 128.024 68.9485C126.977 70.8625 125.214 72.2824 123.12 72.8961C121.027 73.5097 118.776 73.2667 116.862 72.2205C115.914 71.7029 115.077 71.0034 114.399 70.162C113.72 69.3207 113.215 68.3539 112.911 67.317C112.606 66.2801 112.509 65.1934 112.625 64.119C112.741 63.0446 113.067 62.0036 113.585 61.0554C114.104 60.1072 114.804 59.2704 115.645 58.5929C116.487 57.9153 117.454 57.4103 118.491 57.1067C119.528 56.8031 120.615 56.7068 121.689 56.8234C122.763 56.9399 123.804 57.2671 124.752 57.7861C126.51 58.7475 127.857 60.3178 128.539 62.2019C129.222 64.0861 129.194 66.1547 128.46 68.0194Z" fill="#B48087"/>
<path d="M128.46 68.0213C128.333 68.3395 128.188 68.6498 128.024 68.9504C126.977 70.8644 125.214 72.2844 123.12 72.898C121.027 73.5116 118.776 73.2686 116.862 72.2225C115.914 71.7048 115.077 71.0054 114.399 70.164C113.72 69.3226 113.215 68.3559 112.911 67.319C112.606 66.2821 112.509 65.1954 112.625 64.121C112.741 63.0466 113.067 62.0055 113.585 61.0573C114.104 60.1091 114.804 59.2723 115.645 58.5948C116.487 57.9173 117.454 57.4123 118.491 57.1087C119.528 56.805 120.615 56.7088 121.689 56.8253C122.763 56.9419 123.804 57.269 124.752 57.788C126.51 58.7495 127.857 60.3197 128.539 62.2039C129.222 64.0881 129.194 66.1566 128.46 68.0213Z" fill="#CEDDEF"/>
<path d="M136.858 50.0735C136.685 49.8839 136.503 49.697 136.317 49.5155C133.307 46.5327 129.516 44.4609 125.381 43.5389C121.245 42.6168 116.933 42.882 112.942 44.3039C108.951 45.7258 105.442 48.2465 102.821 51.5756C100.199 54.9047 98.5718 58.9068 98.1256 63.1207C97.6793 67.3345 98.4325 71.5887 100.298 75.3932C102.164 79.1976 105.067 82.3974 108.672 84.6239C112.277 86.8504 116.438 88.013 120.675 87.9778C124.911 87.9426 129.052 86.7109 132.62 84.4248C133.952 83.5698 135.191 82.5775 136.317 81.4642C136.501 81.2827 136.682 81.0985 136.858 80.9089C140.788 76.7374 142.976 71.2225 142.976 65.4912C142.976 59.7599 140.788 54.245 136.858 50.0735ZM136.317 80.7518C135.127 81.9844 133.798 83.0743 132.357 83.9995C132.354 84.0022 132.351 84.0022 132.349 84.0049C128.905 86.2099 124.915 87.4123 120.827 87.4774C116.738 87.5425 112.712 86.4676 109.2 84.3733C109.197 84.3733 109.197 84.3706 109.195 84.3706C106.501 82.7641 104.182 80.6002 102.393 78.0239C100.604 75.4476 99.3866 72.5185 98.8223 69.433C98.2581 66.3476 98.3601 63.1772 99.1215 60.1344C99.8828 57.0917 101.286 54.2469 103.237 51.7909C105.188 49.3349 107.641 47.3245 110.432 45.8945C113.224 44.4645 116.289 43.648 119.421 43.4997C122.554 43.3514 125.682 43.8748 128.596 45.0348C131.51 46.1947 134.143 47.9644 136.317 50.2251C136.503 50.4148 136.682 50.6098 136.858 50.8075C140.475 54.842 142.475 60.0699 142.475 65.4885C142.475 70.9071 140.475 76.135 136.858 80.1695C136.685 80.3672 136.503 80.5622 136.317 80.7518Z" fill="#417DC3"/>
<path d="M128.757 51.9748C128.212 51.0507 127.423 50.2951 126.476 49.7913C125.53 49.2875 124.462 49.0552 123.392 49.12C122.268 49.2042 121.199 49.6182 120.149 50.0277L114.812 52.1097C113.432 52.6485 111.919 53.3084 111.32 54.6643C110.764 55.9227 111.179 57.3762 111.599 58.6864L113.595 64.9144C113.869 63.5154 114.147 62.1025 114.727 60.8003C115.307 59.4981 116.224 58.2974 117.492 57.6467C118.879 56.9355 120.513 56.9503 122.069 57.0252C124.273 57.1312 126.669 57.4117 128.235 58.9664C129.066 59.8493 129.63 60.9501 129.86 62.1407C130.087 63.325 130.201 64.5281 130.201 65.7339C131.105 64.1802 131.866 62.5478 132.476 60.8569C132.977 59.5977 133.263 58.2631 133.321 56.9091C133.333 55.5568 132.95 54.1618 132.048 53.154C131.147 52.1462 129.678 51.6022 128.386 52.0011" fill="#3558A1"/>
<defs>
<clipPath id="clip0_23_17823">
<rect width="128" height="128" fill="white" transform="translate(128 60)"/>
</clipPath>
</defs>
</svg>
