<svg width="160" height="80" viewBox="0 0 490 220" fill="none" xmlns="http://www.w3.org/2000/svg">
<path d="M195.1 155.4C195.1 165.5 186.9 173.8 176.7 173.8C166.5 173.8 158.3 165.6 158.3 155.4C158.3 145.3 166.5 137 176.7 137C186.9 137 195.1 145.3 195.1 155.4Z" fill="#283276"/>
<path d="M74.1 86.9C74.1 97 65.9 105.3 55.7 105.3C45.5 105.3 37.3 97.1 37.3 86.9C37.3 76.8 45.5 68.5 55.7 68.5C65.9 68.5 74.1 76.7 74.1 86.9Z" fill="#F29FC5"/>
<path d="M160.4 135.3C160.4 145.4 152.2 153.7 142 153.7C131.9 153.7 123.6 145.5 123.6 135.3C123.6 125.2 131.8 116.9 142 116.9C152.2 117 160.4 125.2 160.4 135.3Z" fill="#008ECF"/>
<path d="M116 157.5C116 167.6 107.8 175.9 97.6 175.9C87.5 175.9 79.2 167.7 79.2 157.5C79.2 147.4 87.4 139.1 97.6 139.1C107.8 139.2 116 147.4 116 157.5Z" fill="#F29FC5"/>
<path d="M116 200.8C116 210.9 107.8 219.2 97.6 219.2C87.5 219.2 79.2 211 79.2 200.8C79.2 190.7 87.4 182.4 97.6 182.4C107.8 182.5 116 190.7 116 200.8Z" fill="#283276"/>
<path d="M195.1 64C195.1 74.1 186.9 82.4 176.7 82.4C166.5 82.4 158.3 74.2 158.3 64C158.3 53.9 166.5 45.6 176.7 45.6C186.9 45.6 195.1 53.9 195.1 64Z" fill="#283276"/>
<path d="M160.4 86.9C160.4 97 152.2 105.3 142 105.3C131.9 105.3 123.6 97.1 123.6 86.9C123.6 76.8 131.8 68.5 142 68.5C152.2 68.5 160.4 76.7 160.4 86.9Z" fill="#283276"/>
<path d="M71.4 137C71.4 147.1 63.2 155.4 53 155.4C42.8 155.4 34.6 147.2 34.6 137C34.6 126.9 42.8 118.6 53 118.6C63.2 118.6 71.4 126.8 71.4 137Z" fill="#283276"/>
<path d="M36.4 60.0001C38.6 69.9001 32.4 79.7001 22.5 81.9001C12.6 84.1001 2.8 77.9001 0.600001 68.0001C-1.6 58.1001 4.6 48.3001 14.5 46.1001C24.4 43.9001 34.2 50.1001 36.4 60.0001Z" fill="#283276"/>
<path d="M34.6 99.7C33.8 105.4 28.5 109.4 22.8 108.6C17.1 107.8 13.1 102.5 13.9 96.8C14.7 91.1 20 87.1 25.7 87.9C31.4 88.7 35.4 94 34.6 99.7Z" fill="#E1000F"/>
<path d="M139.9 175.4C139 182 132.9 186.5 126.3 185.6C119.7 184.7 115.2 178.6 116.1 172C117 165.4 123.1 160.9 129.7 161.8C136.3 162.7 140.8 168.8 139.9 175.4Z" fill="#E1000F"/>
<path d="M175.5 99.3C174.9 103.3 171.3 106 167.3 105.4C163.3 104.8 160.6 101.2 161.1 97.2C161.7 93.2 165.3 90.5 169.3 91.1C173.3 91.7 176.1 95.3 175.5 99.3Z" fill="#E1000F"/>
<path d="M104 65.2C103.2 70.9 97.9 74.9 92.2 74.1C86.5 73.3 82.5 68 83.3 62.3C84.1 56.6 89.4 52.6 95.1 53.4C100.8 54.2 104.8 59.5 104 65.2Z" fill="#E1000F"/>
<path d="M134 51.6C133.2 57.3 127.9 61.3 122.2 60.5C116.5 59.7 112.5 54.4 113.3 48.7C114.1 43 119.4 39 125.1 39.8C130.9 40.6 134.9 45.9 134 51.6Z" fill="#F29FC5"/>
<path d="M66.1 166.5C65.3 172.2 60 176.2 54.3 175.4C48.6 174.6 44.6 169.3 45.4 163.6C46.2 157.9 51.5 153.9 57.2 154.7C63 155.5 66.9 160.8 66.1 166.5Z" fill="#FFE000"/>
<path d="M168.9 119.6C168.1 125.3 162.8 129.3 157.1 128.5C151.4 127.7 147.4 122.4 148.2 116.7C149 111 154.3 107 160 107.8C165.7 108.5 169.7 113.8 168.9 119.6Z" fill="#FFE000"/>
<path d="M156.9 168.1C160 173 158.5 179.4 153.6 182.5C148.7 185.6 142.3 184.1 139.2 179.2C136.1 174.3 137.6 167.9 142.5 164.8C147.4 161.8 153.8 163.2 156.9 168.1Z" fill="#283276"/>
<path d="M77.1 45.4C76.3 51.1 71 55.1 65.3 54.3C59.6 53.5 55.6 48.2 56.4 42.5C57.2 36.8 62.5 32.8 68.2 33.6C73.9 34.4 77.9 39.7 77.1 45.4Z" fill="#FFE000"/>
<path d="M116.9 19.3C116.9 29.9 108.3 38.6 97.6 38.6C87 38.6 78.3 30 78.3 19.3C78.3 8.7 86.9 0 97.6 0C108.3 0 116.9 8.6 116.9 19.3Z" fill="#008ECF"/>
<path d="M36.7 155.3C36.7 165.4 28.5 173.7 18.3 173.7C8.09999 173.7 0 165.5 0 155.3C0 145.2 8.19999 136.9 18.4 136.9C28.6 136.9 36.7 145.2 36.7 155.3Z" fill="#008ECF"/>
<path d="M127.2 105.9C127.2 123.6 112.9 137.9 95.2 137.9C77.5 137.9 63.2 123.6 63.2 105.9C63.2 88.2 77.5 73.9001 95.2 73.9001C112.8 73.8001 127.2 88.2 127.2 105.9Z" fill="#008ECF"/>
<path d="M238.1 42.6H270.5V50.7H247.6V67.1H267.2V75.1H247.6V100.7H238.1V42.6Z" fill="#283276"/>
<path d="M278.1 58.9H286.6V63.6C289.5 60.4 293.2 58 298.3 58C299.6 58 300.9 58.2 302 58.6V67C300.7 66.7 299.3 66.4 297.6 66.4C292.3 66.4 288.8 69.2 286.6 72.8V100.7H278.1V58.9Z" fill="#283276"/>
<path d="M307.1 89.8C307.1 83.5 312 78.9 320.9 77.4L334.4 75.2V73C334.4 67.9 330.6 64.7 325.2 64.7C320.6 64.7 317.1 66.8 314.7 70.2L308.3 65.3C312 60.3 318 57.2 325.5 57.2C336.8 57.2 343 63.8 343 73.1V100.7H334.5V96C331.5 99.7 326.3 102 321.1 102C312.7 102 307.1 97.2 307.1 89.8ZM322.6 95C327.8 95 331.9 92.5 334.4 88.5V81.3L323.1 83.2C317.9 84.1 315.7 86.4 315.7 89.5C315.7 92.7 318.3 95 322.6 95Z" fill="#283276"/>
<path d="M355 58.8999H363.5V62.9999C366.7 59.6999 370.8 57.2999 376.8 57.2999C386 57.2999 393.1 63.4999 393.1 75.5999V100.7H384.5V75.8999C384.5 69.2999 380.8 65.2999 374.9 65.2999C369.2 65.2999 365.8 68.8999 363.6 72.4999V100.7H355V58.8999Z" fill="#283276"/>
<path d="M436.8 88.8L443.5 93.8999C439.7 98.9999 433.5 102.4 425.8 102.4C411.8 102.4 403 92 403 79.8C403 67.6 411.8 57.2 425.8 57.2C433.4 57.2 439.7 60.5 443.5 65.7L436.8 70.8C434.5 67.6 430.7 65.2 425.8 65.2C417.7 65.2 411.9 71.5 411.9 79.7C411.9 88 417.7 94.2 425.8 94.2C430.6 94.3 434.5 92 436.8 88.8Z" fill="#283276"/>
<path d="M471.8 102.4C457.4 102.4 448.8 92 448.8 79.8C448.8 67.3 456.8 57.2 470 57.2C481.5 57.2 489 65.1 489 75.7C489 77.6 488.8 79.5 488.4 80.8H457.5C458.1 89.9 463.6 94.7 471.7 94.7C476.8 94.7 481 92.5 483.6 89L489.8 94C486 99.1 479.6 102.4 471.8 102.4ZM458.1 74.4H480.6C480.4 69.2 476.7 64.4 470 64.4C463.7 64.4 459.4 67.9 458.1 74.4Z" fill="#283276"/>
<path d="M231.9 117.3H278.8V126H260.1V175.4H250.6V126H231.9V117.3Z" fill="#283276"/>
<path d="M282.9 133.5H291.4V138.2C294.3 135 298 132.6 303.1 132.6C304.4 132.6 305.7 132.8 306.8 133.2V141.6C305.5 141.3 304.1 141 302.4 141C297.1 141 293.6 143.8 291.4 147.4V175.3H282.9V133.5Z" fill="#283276"/>
<path d="M311.8 164.5C311.8 158.2 316.7 153.6 325.6 152.1L339.1 149.9V147.7C339.1 142.6 335.3 139.4 329.9 139.4C325.3 139.4 321.8 141.5 319.4 144.9L313 140C316.7 135 322.7 131.9 330.2 131.9C341.5 131.9 347.7 138.5 347.7 147.8V175.4H339.2V170.7C336.2 174.4 331 176.7 325.8 176.7C317.5 176.6 311.8 171.9 311.8 164.5ZM327.3 169.6C332.5 169.6 336.6 167.1 339.1 163.1V155.9L327.8 157.8C322.6 158.7 320.4 161 320.4 164.1C320.5 167.4 323 169.6 327.3 169.6Z" fill="#283276"/>
<path d="M363.7 133.5L376 166.1L388.2 133.5H397.5L381.6 175.4H370.3L354.5 133.5H363.7Z" fill="#283276"/>
<path d="M402 164.5C402 158.2 406.9 153.6 415.8 152.1L429.3 149.9V147.7C429.3 142.6 425.5 139.4 420.1 139.4C415.5 139.4 412 141.5 409.6 144.9L403.2 140C406.9 135 412.9 131.9 420.4 131.9C431.7 131.9 437.9 138.5 437.9 147.8V175.4H429.4V170.7C426.4 174.4 421.2 176.7 416 176.7C407.6 176.6 402 171.9 402 164.5ZM417.5 169.6C422.7 169.6 426.8 167.1 429.3 163.1V155.9L418 157.8C412.8 158.7 410.6 161 410.6 164.1C410.6 167.4 413.2 169.6 417.5 169.6Z" fill="#283276"/>
<path d="M459.7 133.5H451.2V175.3H459.7V133.5Z" fill="#283276"/>
<path d="M482.2 113.1H473.7V175.3H482.2V113.1Z" fill="#283276"/>
<path d="M450.4 120.8C450.4 118 452.7 115.7 455.5 115.7C458.3 115.7 460.6 118 460.6 120.8C460.6 123.6 458.3 125.9 455.5 125.9C452.7 125.9 450.4 123.5 450.4 120.8Z" fill="#283276"/>
</svg>
