<svg width="185" height="60" viewBox="0 0 185 60" fill="none" xmlns="http://www.w3.org/2000/svg">
<path fill-rule="evenodd" clip-rule="evenodd" d="M55.1111 37.5999C55.0977 37.8345 55.1326 38.0693 55.2136 38.2899C55.2947 38.5104 55.4202 38.712 55.5824 38.8823C55.7506 39.0545 55.9524 39.1904 56.1754 39.2815C56.3984 39.3726 56.6377 39.4169 56.8786 39.4117C57.1144 39.4235 57.3501 39.3868 57.571 39.3038C57.792 39.2209 57.9935 39.0934 58.163 38.9293C58.3268 38.7597 58.4541 38.5585 58.5372 38.338C58.6203 38.1174 58.6573 37.8823 58.6461 37.647V33.2352H62.4522C63.9252 33.3204 65.3752 32.8407 66.5057 31.894C66.9974 31.4247 67.3815 30.8547 67.6317 30.2231C67.8819 29.5915 67.9922 28.9134 67.955 28.2352C67.9905 27.559 67.8794 26.8831 67.6293 26.2536C67.3792 25.6242 66.9959 25.0561 66.5057 24.5881C65.3649 23.6634 63.9192 23.1976 62.4522 23.2823H56.7608C56.5382 23.2581 56.3131 23.284 56.1019 23.3583C55.8907 23.4325 55.6989 23.5531 55.5406 23.7111C55.3823 23.8692 55.2615 24.0606 55.1872 24.2715C55.1129 24.4823 55.0869 24.7071 55.1111 24.9293V37.5999ZM64.6439 28.2648V28.294V28.2352V28.2648ZM61.9926 25.9411C63.7491 25.9411 64.6328 26.7425 64.6439 28.2648C64.6328 29.8098 63.7491 30.5881 61.9926 30.5881H58.6461V25.9411H61.9926Z" fill="#000638"/>
<path d="M70.4533 38.953C70.2911 38.8045 70.1636 38.622 70.0801 38.4186C69.9966 38.2153 69.9591 37.996 69.9702 37.7765V24.8354C69.9591 24.6159 69.9966 24.3966 70.0801 24.1933C70.1636 23.9899 70.2911 23.8074 70.4533 23.6589C70.7878 23.392 71.2034 23.2468 71.6316 23.2471C72.0603 23.2439 72.4769 23.3894 72.81 23.6589C72.9742 23.8059 73.103 23.9881 73.1867 24.1918C73.2703 24.3956 73.3067 24.6156 73.2931 24.8354V37.7765C73.3067 37.9963 73.2703 38.2163 73.1866 38.4201C73.103 38.6238 72.9742 38.806 72.81 38.953C72.4769 39.2225 72.0603 39.368 71.6316 39.3648C71.2034 39.365 70.7879 39.2198 70.4533 38.953Z" fill="#000638"/>
<path fill-rule="evenodd" clip-rule="evenodd" d="M85.8306 32.6704C85.9354 31.3506 85.5116 30.0433 84.6523 29.0351C84.1591 28.6006 83.5841 28.2686 82.961 28.0585C82.3378 27.8484 81.679 27.7645 81.023 27.8115C80.2661 27.8129 79.5115 27.8958 78.7723 28.0586C78.0973 28.2007 77.4437 28.4301 76.8281 28.7409C76.5745 28.8711 76.3531 29.056 76.18 29.2821C76.0317 29.5046 75.9575 29.7681 75.9679 30.0351C75.955 30.3624 76.0595 30.6836 76.2625 30.9409C76.36 31.0572 76.483 31.1495 76.6219 31.2107C76.7608 31.2719 76.912 31.3003 77.0637 31.2939C77.3725 31.2747 77.6737 31.1905 77.9475 31.0468C78.8395 30.6704 79.7865 30.44 80.752 30.3645C81.0004 30.318 81.2565 30.3327 81.4979 30.4073C81.7394 30.4819 81.959 30.6142 82.1378 30.7926C82.3165 30.9711 82.449 31.1904 82.5237 31.4315C82.5984 31.6725 82.6132 31.9282 82.5666 32.1762V32.588H81.9774C80.7088 32.5579 79.4407 32.6644 78.195 32.9057C77.4398 33.032 76.7411 33.3849 76.1918 33.9174C75.7464 34.4584 75.5232 35.1479 75.5672 35.8468C75.5613 36.486 75.7459 37.1126 76.0975 37.6468C76.4353 38.2131 76.9251 38.6736 77.5115 38.9762C78.1503 39.284 78.8527 39.4372 79.5618 39.4233C80.214 39.441 80.8584 39.2781 81.4236 38.9527C81.9476 38.6562 82.3611 38.198 82.602 37.6468V37.7527C82.5872 37.9684 82.6185 38.1848 82.6936 38.3876C82.7688 38.5904 82.8861 38.775 83.0379 38.9292C83.1931 39.0805 83.3778 39.1982 83.5805 39.2752C83.7832 39.3521 83.9997 39.3865 84.2163 39.3762C84.431 39.3869 84.6457 39.3549 84.8479 39.2822C85.0502 39.2095 85.236 39.0975 85.3946 38.9527C85.5441 38.7969 85.6599 38.612 85.7349 38.4097C85.8099 38.2073 85.8425 37.9917 85.8306 37.7762V32.6704ZM82.5666 34.6586C82.5887 35.2917 82.3698 35.9096 81.9539 36.388C81.7494 36.6097 81.4992 36.7845 81.2205 36.9003C80.9418 37.0161 80.6412 37.0701 80.3395 37.0586C79.951 37.0673 79.5745 36.9237 79.2908 36.6586C79.1503 36.5262 79.0397 36.3653 78.9665 36.1868C78.8934 36.0082 78.8593 35.8161 78.8666 35.6233C78.8579 35.3902 78.9257 35.1606 79.0597 34.9694C79.1937 34.7783 79.3866 34.6361 79.609 34.5645C80.4434 34.3271 81.3112 34.2277 82.1778 34.2704H82.5666V34.6586Z" fill="#000638"/>
<path d="M95.5636 37.2117C95.6715 37.3263 95.7552 37.4614 95.8099 37.6089C95.8645 37.7564 95.889 37.9134 95.8817 38.0705C95.886 38.2672 95.8408 38.4618 95.7502 38.6365C95.6596 38.8112 95.5266 38.9604 95.3633 39.0705C94.906 39.3176 94.3817 39.4124 93.8668 39.3411H93.2305C90.591 39.1294 89.2712 37.7489 89.2712 35.1999V30.6705H88.3757C87.9574 30.7098 87.539 30.597 87.1973 30.3529C87.0661 30.2351 86.963 30.0893 86.8957 29.9264C86.8284 29.7635 86.7986 29.5876 86.8085 29.4117C86.795 29.2319 86.823 29.0514 86.8904 28.8841C86.9578 28.7169 87.0628 28.5673 87.1973 28.447C87.5373 28.1986 87.9559 28.0816 88.3757 28.1176H89.283V26.3529C89.2728 26.1356 89.3085 25.9186 89.3876 25.7159C89.4668 25.5132 89.5877 25.3294 89.7426 25.1764C90.0826 24.8646 90.5301 24.696 90.9916 24.7058C91.4471 24.6806 91.8947 24.8324 92.2407 25.1294C92.3917 25.2846 92.5093 25.4691 92.5863 25.6714C92.6633 25.8737 92.6981 26.0896 92.6884 26.3058V28.0705H94.2674C95.2926 28.0705 95.7993 28.5058 95.7993 29.3646C95.8106 29.5397 95.7827 29.715 95.7175 29.8779C95.6522 30.0407 95.5513 30.1869 95.4222 30.3058C95.0783 30.5452 94.6617 30.6575 94.2438 30.6235H92.6884V35.3294C92.6611 35.702 92.7746 36.0714 93.0066 36.3647C93.1275 36.4887 93.2723 36.587 93.4323 36.6538C93.5923 36.7205 93.7641 36.7542 93.9375 36.7529H94.5738C94.9476 36.7845 95.2982 36.947 95.5636 37.2117Z" fill="#000638"/>
<path fill-rule="evenodd" clip-rule="evenodd" d="M107.1 37.2116C107.113 36.8789 107.013 36.5515 106.817 36.2822C106.735 36.1745 106.63 36.086 106.51 36.023C106.39 35.96 106.257 35.924 106.122 35.9175C105.944 35.9219 105.769 35.9578 105.603 36.0234L104.991 36.2587C104.607 36.427 104.213 36.5723 103.812 36.694C103.429 36.8022 103.032 36.8537 102.634 36.8469C101.952 36.8902 101.279 36.676 100.749 36.2469C100.254 35.7221 99.9657 35.0372 99.9355 34.3175H106.275C106.399 34.327 106.524 34.3086 106.64 34.2639C106.756 34.2191 106.861 34.149 106.947 34.0587C107.121 33.848 107.205 33.5778 107.182 33.3057C107.206 32.3041 106.987 31.3115 106.546 30.4116C106.152 29.6235 105.538 28.9658 104.778 28.5175C103.968 28.0584 103.047 27.8267 102.115 27.8469C101.119 27.8303 100.137 28.0866 99.2756 28.5881C98.4474 29.0741 97.7734 29.7836 97.3313 30.6352C96.8585 31.5773 96.6123 32.6166 96.6123 33.6705C96.6123 34.7243 96.8585 35.7636 97.3313 36.7057C97.8073 37.5641 98.5295 38.2606 99.4052 38.7057C100.385 39.1908 101.47 39.4291 102.563 39.3999C103.2 39.3935 103.834 39.3065 104.449 39.141C105.067 38.9958 105.664 38.7745 106.228 38.4822C106.48 38.3493 106.698 38.1601 106.864 37.9293C107.015 37.7201 107.097 37.4694 107.1 37.2116ZM99.9119 32.6234C99.9376 31.961 100.187 31.3267 100.619 30.8234C100.819 30.6153 101.061 30.4521 101.329 30.3446C101.598 30.2371 101.886 30.1878 102.174 30.1999C102.456 30.1811 102.738 30.2264 102.999 30.3324C103.26 30.4384 103.494 30.6022 103.683 30.8116C104.076 31.3337 104.287 31.9701 104.284 32.6234H99.9119Z" fill="#000638"/>
<path d="M113.828 26.3292C113.527 26.736 113.381 27.2364 113.416 27.741V28.1174H115.006C116.032 28.1174 116.538 28.5527 116.538 29.4115C116.538 30.2704 116.032 30.6704 115.006 30.6704H113.416V37.7292C113.427 37.9487 113.389 38.1679 113.306 38.3713C113.222 38.5747 113.095 38.7571 112.932 38.9057C112.599 39.1751 112.183 39.3206 111.754 39.3174C111.326 39.3195 110.909 39.1741 110.576 38.9057C110.412 38.7587 110.283 38.5765 110.199 38.3727C110.115 38.169 110.079 37.949 110.093 37.7292V30.6704H109.185C108.172 30.6704 107.665 30.2586 107.665 29.4115C107.665 28.5645 108.172 28.1174 109.185 28.1174H110.093C110.055 27.4993 110.139 26.8797 110.341 26.2943C110.543 25.7088 110.859 25.169 111.271 24.7057C112.154 23.8398 113.333 23.3396 114.57 23.3057H115.572C116.609 23.3057 117.127 23.6979 117.127 24.4821C117.127 25.2704 116.691 25.6586 115.819 25.7763H115.23C114.97 25.7619 114.711 25.8039 114.468 25.8994C114.226 25.9948 114.008 26.1415 113.828 26.3292Z" fill="#000638"/>
<path fill-rule="evenodd" clip-rule="evenodd" d="M117.693 36.6824C118.164 37.5434 118.882 38.244 119.755 38.6942C120.724 39.1585 121.785 39.3996 122.86 39.3996C123.935 39.3996 124.996 39.1585 125.965 38.6942C126.836 38.2405 127.553 37.5408 128.027 36.6824C128.5 35.7297 128.746 34.6809 128.746 33.6177C128.746 32.5546 128.5 31.5058 128.027 30.553C127.552 29.6982 126.835 29.0024 125.965 28.553C124.996 28.0887 123.935 27.8477 122.86 27.8477C121.785 27.8477 120.724 28.0887 119.755 28.553C118.883 28.9989 118.165 29.6955 117.693 30.553C117.22 31.5057 116.975 32.5546 116.975 33.6177C116.975 34.6809 117.22 35.7297 117.693 36.6824ZM124.704 31.2589C125.182 31.9469 125.41 32.7768 125.352 33.6119C125.352 35.7413 124.516 36.8354 122.854 36.8354C121.193 36.8354 120.368 35.7648 120.368 33.6471C120.368 31.5295 121.193 30.4589 122.854 30.4589C123.204 30.4385 123.553 30.5003 123.875 30.6392C124.196 30.7782 124.48 30.9904 124.704 31.2589Z" fill="#000638"/>
<path d="M138.55 28.2353C138.685 28.3721 138.79 28.5363 138.857 28.7168C138.924 28.8974 138.952 29.0902 138.938 29.2823C138.963 29.4921 138.944 29.7047 138.883 29.9069C138.822 30.1092 138.721 30.297 138.585 30.4588C138.213 30.7447 137.758 30.9016 137.289 30.9058L136.605 30.9764C135.921 30.9985 135.272 31.2904 134.802 31.7882C134.42 32.2861 134.224 32.9022 134.249 33.5294V37.847C134.262 38.0668 134.226 38.2868 134.142 38.4906C134.059 38.6943 133.93 38.8765 133.766 39.0235C133.432 39.293 133.016 39.4385 132.587 39.4353C132.139 39.4493 131.7 39.3033 131.35 39.0235C131.188 38.8749 131.06 38.6925 130.977 38.4891C130.893 38.2858 130.856 38.0665 130.867 37.847V29.4117C130.85 29.1905 130.886 28.9685 130.972 28.7639C131.058 28.5594 131.192 28.3782 131.362 28.2353C131.696 27.9684 132.112 27.8231 132.54 27.8235C132.753 27.8083 132.967 27.8359 133.17 27.9046C133.372 27.9733 133.559 28.0817 133.718 28.2235C133.873 28.359 133.995 28.528 134.075 28.7176C134.154 28.9071 134.19 29.1124 134.178 29.3176V29.9294C134.424 29.3144 134.856 28.7918 135.415 28.4353C135.957 28.0918 136.577 27.8895 137.218 27.847H137.524C137.904 27.8386 138.271 27.9778 138.55 28.2353ZM156.402 28.9529C157.135 29.9771 157.481 31.2274 157.38 32.4823V37.7058C157.393 37.9245 157.358 38.1435 157.276 38.3469C157.195 38.5503 157.069 38.7332 156.908 38.8823C156.576 39.1527 156.159 39.2984 155.73 39.2941C155.301 39.2953 154.886 39.15 154.551 38.8823C154.385 38.7365 154.254 38.5548 154.168 38.351C154.083 38.1472 154.044 37.9266 154.057 37.7058V32.4823C154.108 31.9483 153.975 31.4128 153.68 30.9647C153.532 30.8035 153.348 30.6791 153.144 30.6015C152.939 30.5238 152.719 30.4951 152.501 30.5176C152.215 30.5063 151.929 30.5597 151.666 30.6738C151.403 30.7878 151.169 30.9596 150.981 31.1764C150.575 31.6991 150.374 32.3516 150.416 33.0117V37.7176C150.429 37.9363 150.394 38.1552 150.312 38.3586C150.231 38.5621 150.105 38.7449 149.944 38.8941C149.612 39.1644 149.195 39.3101 148.766 39.3058C148.337 39.3071 147.922 39.1618 147.587 38.8941C147.421 38.7482 147.29 38.5665 147.204 38.3627C147.119 38.1589 147.08 37.9383 147.093 37.7176V32.4823C147.144 31.9483 147.011 31.4128 146.716 30.9647C146.568 30.8035 146.384 30.6791 146.18 30.6015C145.975 30.5238 145.755 30.4951 145.537 30.5176C145.25 30.5063 144.965 30.5597 144.702 30.6738C144.439 30.7878 144.205 30.9596 144.017 31.1764C143.611 31.6991 143.41 32.3516 143.452 33.0117V37.7176C143.463 37.9371 143.425 38.1564 143.342 38.3597C143.258 38.5631 143.131 38.7455 142.968 38.8941C142.635 39.1636 142.219 39.3091 141.79 39.3058C141.362 39.3071 140.946 39.1618 140.612 38.8941C140.445 38.7482 140.314 38.5665 140.229 38.3627C140.143 38.1589 140.105 37.9383 140.117 37.7176V29.4117C140.099 29.1893 140.137 28.966 140.225 28.7611C140.313 28.5562 140.45 28.3757 140.623 28.2353C140.976 27.959 141.413 27.8135 141.861 27.8235C142.291 27.7968 142.714 27.9405 143.039 28.2235C143.192 28.3596 143.313 28.529 143.39 28.7186C143.468 28.9083 143.501 29.1132 143.487 29.3176V29.5411C143.835 28.9847 144.327 28.5333 144.913 28.2353C145.524 27.9212 146.205 27.7635 146.892 27.7764C147.6 27.7536 148.301 27.9247 148.919 28.2706C149.508 28.6364 149.96 29.1865 150.203 29.8353C150.545 29.2063 151.055 28.6849 151.676 28.3294C152.346 27.9569 153.102 27.7663 153.868 27.7764C154.348 27.7904 154.821 27.9019 155.256 28.1042C155.692 28.3065 156.081 28.5952 156.402 28.9529Z" fill="#000638"/>
<path fill-rule="evenodd" clip-rule="evenodd" d="M169.964 37.2116C169.977 36.8789 169.878 36.5515 169.682 36.2822C169.592 36.1628 169.474 36.0671 169.338 36.0035C169.203 35.9399 169.053 35.9104 168.904 35.9175C168.726 35.9241 168.551 35.9599 168.385 36.0234L167.773 36.2587C167.39 36.429 166.996 36.5744 166.594 36.694C166.212 36.8036 165.814 36.8552 165.416 36.8469C164.738 36.8918 164.068 36.6773 163.542 36.2469C163.048 35.7221 162.76 35.0372 162.729 34.3175H169.14C169.263 34.3246 169.388 34.3052 169.503 34.2605C169.619 34.2159 169.724 34.1471 169.811 34.0587C169.98 33.8452 170.064 33.5771 170.047 33.3057C170.07 32.3041 169.852 31.3114 169.411 30.4116C169.012 29.6227 168.394 28.9651 167.631 28.5175C166.82 28.0584 165.9 27.8267 164.968 27.8469C163.975 27.8288 162.996 28.0853 162.14 28.5881C161.307 29.0673 160.631 29.7787 160.196 30.6352C159.727 31.5784 159.483 32.6173 159.483 33.6705C159.483 34.7236 159.727 35.7625 160.196 36.7057C160.672 37.564 161.394 38.2605 162.27 38.7057C163.254 39.1905 164.342 39.4287 165.44 39.3999C166.073 39.3928 166.702 39.3057 167.313 39.141C167.935 38.9958 168.537 38.7745 169.104 38.4822C169.354 38.346 169.571 38.1573 169.74 37.9293C169.892 37.721 169.97 37.4689 169.964 37.2116ZM162.788 32.6234C162.81 31.9622 163.055 31.3278 163.483 30.8234H163.425C163.634 30.6073 163.888 30.4395 164.168 30.3318C164.449 30.2241 164.75 30.1791 165.051 30.1999C165.332 30.1828 165.613 30.2289 165.874 30.3348C166.135 30.4406 166.369 30.6036 166.559 30.8116C166.952 31.3337 167.163 31.9701 167.16 32.6234H162.788ZM62.4876 47.7528C62.4898 47.6611 62.4732 47.57 62.4388 47.485C62.4043 47.4 62.3528 47.323 62.2873 47.2587C62.2162 47.1933 62.1325 47.1429 62.0414 47.1106C61.9503 47.0782 61.8536 47.0646 61.757 47.0705C61.5662 47.0631 61.3801 47.1307 61.2386 47.2587C61.1122 47.3964 61.0446 47.5779 61.05 47.7646V52.4705C60.7957 51.9403 60.3843 51.5008 59.8717 51.2116C59.2879 50.9068 58.6353 50.7574 57.9768 50.778C57.3183 50.7986 56.6763 50.9885 56.1128 51.3293C55.5276 51.7053 55.0617 52.2399 54.7695 52.8705C54.4491 53.6137 54.2839 54.4143 54.2839 55.2234C54.2839 56.0325 54.4491 56.8331 54.7695 57.5763C55.0605 58.2171 55.526 58.7633 56.1128 59.1528C56.7053 59.5352 57.3988 59.7319 58.1042 59.7175C58.7217 59.7328 59.3321 59.5825 59.8717 59.2822C60.3843 58.993 60.7957 58.5536 61.05 58.0234V58.9763C61.0475 59.1661 61.1146 59.3502 61.2386 59.494C61.3801 59.622 61.5662 59.6895 61.757 59.6822C61.9513 59.6888 62.1408 59.6215 62.2873 59.494C62.4198 59.3545 62.4918 59.1685 62.4876 58.9763V47.7528ZM61.05 55.294C61.0868 56.1302 60.8511 56.9557 60.3784 57.6469C60.148 57.9386 59.8517 58.1716 59.5138 58.327C59.1758 58.4824 58.8059 58.5558 58.4341 58.541C58.0643 58.5586 57.6956 58.4889 57.3578 58.3376C57.02 58.1864 56.7227 57.9578 56.4899 57.6705C55.9801 56.9643 55.7303 56.104 55.7828 55.2352C55.7379 54.3927 55.9878 53.5608 56.4899 52.8822C56.7381 52.615 57.0389 52.4019 57.3735 52.2561C57.708 52.1104 58.0691 52.0351 58.4341 52.0351C58.7991 52.0351 59.1602 52.1104 59.4948 52.2561C59.8293 52.4019 60.1302 52.615 60.3784 52.8822C60.8687 53.5873 61.1055 54.4374 61.05 55.294ZM72.2797 58.1646C72.2851 58.0181 72.2346 57.8751 72.1383 57.7646C72.0975 57.7101 72.0439 57.6666 71.9822 57.6378C71.9206 57.6091 71.8527 57.5961 71.7848 57.5999C71.5629 57.6434 71.3536 57.7359 71.172 57.8705C70.8305 58.0598 70.4762 58.2249 70.1115 58.3646C69.7335 58.4987 69.3343 58.5627 68.9332 58.5528C67.1185 58.5528 66.1641 57.541 66.058 55.5175H71.7376C71.8207 55.526 71.9046 55.5167 71.9839 55.4904C72.0631 55.464 72.1358 55.4211 72.1972 55.3646C72.3025 55.2135 72.3525 55.0305 72.3386 54.8469C72.3968 53.7692 72.0431 52.7095 71.3488 51.8822C71.0096 51.5164 70.5945 51.229 70.1325 51.04C69.6705 50.851 69.1727 50.765 68.6739 50.7881C67.9319 50.7764 67.2013 50.972 66.5647 51.3528C65.9475 51.734 65.4495 52.2801 65.1271 52.9293C64.7706 53.6617 64.5929 54.468 64.6086 55.2822C64.576 55.8766 64.6635 56.4714 64.866 57.0312C65.0684 57.5911 65.3816 58.1046 65.787 58.541C66.1998 58.946 66.6931 59.2599 67.2351 59.4626C67.777 59.6652 68.3555 59.7521 68.9332 59.7175C69.8891 59.7071 70.8263 59.4519 71.6551 58.9763C72.0676 58.7293 72.2797 58.4587 72.2797 58.1646ZM66.0934 54.5999C66.1265 53.862 66.409 53.157 66.8946 52.5999C67.1331 52.3652 67.4171 52.1816 67.7291 52.0602C68.0411 51.9388 68.3746 51.8823 68.7093 51.894C69.0324 51.8759 69.3555 51.9298 69.6551 52.0519C69.9547 52.174 70.2233 52.3612 70.4414 52.5999C70.8892 53.1682 71.119 53.8774 71.0895 54.5999H66.0934Z" fill="#000638"/>
<path d="M81.3056 59.3175C81.1427 59.1695 81.0148 58.9871 80.9312 58.7837C80.8477 58.5802 80.8105 58.3607 80.8225 58.141V45.1999C80.8114 44.9804 80.849 44.7611 80.9325 44.5578C81.016 44.3544 81.1434 44.1719 81.3056 44.0234C81.6288 43.7268 82.0456 43.552 82.484 43.5293C82.9114 43.5217 83.3281 43.6632 83.6623 43.9293C83.8246 44.0778 83.952 44.2603 84.0355 44.4636C84.119 44.667 84.1565 44.8862 84.1454 45.1057V58.0469C84.1574 58.2665 84.1202 58.486 84.0366 58.6895C83.9531 58.893 83.8252 59.0754 83.6623 59.2234C83.3292 59.4928 82.9127 59.6384 82.484 59.6352C82.0668 59.6627 81.6523 59.5509 81.3056 59.3175ZM89.825 44.1763C90.2159 44.719 90.4073 45.3797 90.3671 46.0469C90.3718 46.8113 90.2243 47.569 89.933 48.2759C89.6417 48.9828 89.2124 49.6248 88.6703 50.1646C88.5817 50.2645 88.4729 50.3445 88.351 50.3993C88.2291 50.454 88.0969 50.4823 87.9633 50.4822C87.7118 50.4805 87.4692 50.3886 87.2798 50.2234C87.2 50.1476 87.1364 50.0563 87.0929 49.9552C87.0495 49.8541 87.0271 49.7452 87.0271 49.6352C87.0271 49.5251 87.0495 49.4162 87.0929 49.3151C87.1364 49.214 87.2 49.1228 87.2798 49.0469C87.751 48.5752 88.0954 47.9926 88.2814 47.3528C87.8094 47.3255 87.3643 47.1243 87.0324 46.7881C86.8738 46.6178 86.7506 46.4178 86.6697 46.1998C86.5888 45.9817 86.5519 45.7499 86.561 45.5175C86.5531 45.2626 86.5959 45.0087 86.687 44.7704C86.778 44.5321 86.9154 44.3142 87.0913 44.1293C87.2513 43.945 87.4483 43.7963 87.6696 43.693C87.8909 43.5896 88.1314 43.5338 88.3757 43.5293C88.6506 43.5203 88.9239 43.574 89.175 43.6861C89.4261 43.7982 89.6484 43.9658 89.825 44.1763Z" fill="#000638"/>
<path fill-rule="evenodd" clip-rule="evenodd" d="M92.4765 44.7057C92.4587 44.9448 92.4962 45.1848 92.5861 45.4072C92.676 45.6295 92.8159 45.8282 92.9949 45.988V45.9527C93.405 46.2638 93.9058 46.4322 94.4207 46.4322C94.9357 46.4322 95.4365 46.2638 95.8465 45.9527C96.0181 45.7947 96.1533 45.6013 96.2428 45.386C96.3323 45.1707 96.374 44.9386 96.365 44.7057C96.3662 44.4831 96.3194 44.2629 96.228 44.0599C96.1365 43.8569 96.0024 43.6759 95.8347 43.5292C95.4258 43.221 94.9273 43.0542 94.4148 43.0542C93.9024 43.0542 93.4039 43.221 92.9949 43.5292C92.8294 43.677 92.6975 43.8585 92.6081 44.0614C92.5187 44.2643 92.4738 44.484 92.4765 44.7057ZM92.7004 58.141C92.6884 58.3606 92.7255 58.5801 92.8091 58.7836C92.8926 58.9871 93.0205 59.1694 93.1835 59.3175C93.5212 59.5869 93.9413 59.7322 94.3736 59.7292C94.8023 59.7323 95.2188 59.5868 95.5519 59.3175C95.7148 59.1694 95.8427 58.987 95.9263 58.7836C96.0098 58.5801 96.047 58.3606 96.0351 58.141V49.9057C96.0462 49.6862 96.0086 49.4669 95.9251 49.2636C95.8416 49.0602 95.7142 48.8778 95.5519 48.7292C95.2188 48.4598 94.8023 48.3142 94.3736 48.3175C93.9452 48.3161 93.5293 48.4614 93.1953 48.7292C93.0288 48.875 92.8978 49.0567 92.8121 49.2605C92.7263 49.4643 92.6881 49.685 92.7004 49.9057V58.141Z" fill="#000638"/>
<path d="M108.691 49.4119C109.415 50.4398 109.757 51.6883 109.657 52.9413V58.1649C109.67 58.3825 109.636 58.6004 109.557 58.8035C109.477 59.0066 109.355 59.1901 109.197 59.3413C108.851 59.6475 108.398 59.8041 107.936 59.7766C107.502 59.7899 107.079 59.6337 106.758 59.3413C106.601 59.1901 106.478 59.0066 106.399 58.8035C106.319 58.6004 106.285 58.3825 106.299 58.1649V53.059C106.345 52.4797 106.2 51.9012 105.886 51.4119C105.724 51.2284 105.522 51.085 105.295 50.9932C105.068 50.9013 104.822 50.8634 104.578 50.8825C104.261 50.8704 103.946 50.9249 103.651 51.0425C103.357 51.16 103.091 51.338 102.87 51.5649C102.422 52.0593 102.189 52.7108 102.221 53.3766V58.0825C102.234 58.299 102.201 58.5157 102.123 58.7184C102.046 58.9212 101.927 59.1054 101.774 59.259C101.605 59.4102 101.407 59.5265 101.193 59.6012C100.978 59.676 100.751 59.7076 100.525 59.6943C100.064 59.7192 99.611 59.5629 99.2638 59.259C99.1065 59.1078 98.9839 58.9243 98.9046 58.7212C98.8252 58.518 98.791 58.3001 98.8043 58.0825V49.8237C98.7889 49.6037 98.8245 49.3832 98.9083 49.1791C98.9921 48.9751 99.1218 48.7931 99.2874 48.6472C99.6394 48.3517 100.089 48.1966 100.548 48.2119C100.763 48.1985 100.979 48.2292 101.181 48.302C101.384 48.3748 101.569 48.4883 101.727 48.6354C101.871 48.7731 101.984 48.9396 102.059 49.1241C102.134 49.3087 102.17 49.507 102.163 49.706V50.0237C102.544 49.439 103.072 48.9644 103.694 48.6472C104.354 48.3238 105.081 48.1624 105.815 48.1766C106.357 48.1561 106.895 48.2563 107.393 48.47C107.89 48.6837 108.334 49.0055 108.691 49.4119ZM114.299 59.0707C113.453 58.6242 112.762 57.9307 112.32 57.0825C111.841 56.1477 111.602 55.1087 111.625 54.059C111.601 52.9885 111.857 51.9304 112.367 50.9884C112.845 50.1195 113.565 49.4082 114.441 48.9413C115.389 48.4469 116.447 48.2 117.516 48.2237C118.133 48.2246 118.748 48.3077 119.343 48.4707C119.919 48.6227 120.471 48.8564 120.981 49.1649C121.203 49.2927 121.386 49.4785 121.511 49.7023C121.635 49.9261 121.696 50.1795 121.688 50.4354C121.701 50.7774 121.606 51.1148 121.417 51.4001C121.335 51.5174 121.226 51.6123 121.098 51.6761C120.971 51.7398 120.829 51.7704 120.686 51.7649C120.497 51.7689 120.309 51.737 120.132 51.6707L119.449 51.3649C119.174 51.2195 118.89 51.0898 118.6 50.9766C118.328 50.8832 118.04 50.8394 117.752 50.8472C117.388 50.8211 117.023 50.8798 116.686 51.0186C116.348 51.1574 116.048 51.3726 115.808 51.6472C115.31 52.3264 115.072 53.161 115.136 54.0001C115.08 54.8385 115.317 55.6703 115.808 56.3531C116.047 56.6298 116.347 56.8471 116.684 56.988C117.021 57.1289 117.387 57.1895 117.752 57.1649C118.036 57.1667 118.319 57.123 118.589 57.0354C118.891 56.9241 119.186 56.7945 119.472 56.6472C119.755 56.506 119.979 56.4119 120.144 56.3413C120.316 56.2703 120.5 56.2343 120.686 56.2354C120.829 56.2345 120.97 56.2696 121.095 56.3375C121.221 56.4053 121.328 56.5038 121.405 56.6237C121.601 56.9062 121.7 57.2447 121.688 57.5884C121.7 57.8417 121.64 58.0934 121.515 58.3141C121.39 58.5348 121.205 58.7156 120.981 58.8354C120.463 59.1567 119.899 59.3949 119.307 59.5413C118.657 59.7079 117.988 59.791 117.316 59.7884C116.266 59.8082 115.228 59.5613 114.299 59.0707ZM123.903 59.3178C123.737 59.1719 123.606 58.9903 123.52 58.7864C123.434 58.5826 123.396 58.362 123.408 58.1413V45.2001C123.396 44.9794 123.434 44.7588 123.52 44.555C123.606 44.3512 123.737 44.1695 123.903 44.0237C124.257 43.7647 124.684 43.625 125.123 43.625C125.561 43.625 125.988 43.7647 126.342 44.0237C126.509 44.1695 126.64 44.3512 126.725 44.555C126.811 44.7588 126.849 44.9794 126.837 45.2001V58.1413C126.849 58.3621 126.811 58.5827 126.725 58.7865C126.64 58.9903 126.509 59.172 126.342 59.3178C125.991 59.584 125.563 59.7281 125.123 59.7281C124.682 59.7281 124.254 59.584 123.903 59.3178ZM139.705 48.6943C139.865 48.8439 139.99 49.0268 140.071 49.2301C140.153 49.4334 140.189 49.6521 140.176 49.8707V58.106C140.192 58.3272 140.155 58.5489 140.069 58.7533C139.983 58.9577 139.85 59.139 139.681 59.2825C139.336 59.5825 138.889 59.7383 138.432 59.7178C138.218 59.7307 138.004 59.7009 137.801 59.6302C137.599 59.5595 137.413 59.4493 137.254 59.306C137.107 59.168 136.992 58.9997 136.916 58.8128C136.841 58.6259 136.807 58.4249 136.818 58.2237V58.0001C136.513 58.5523 136.06 59.0087 135.51 59.3178C134.692 59.7138 133.775 59.8581 132.875 59.7324C131.975 59.6067 131.132 59.2167 130.455 58.6119C129.695 57.5987 129.331 56.3442 129.429 55.0825V49.8707C129.418 49.6533 129.453 49.4358 129.532 49.2329C129.611 49.03 129.733 48.8464 129.889 48.6943C130.238 48.3936 130.689 48.2378 131.15 48.259C131.584 48.2506 132.004 48.406 132.328 48.6943C132.484 48.8464 132.606 49.03 132.685 49.2329C132.765 49.4358 132.799 49.6533 132.788 49.8707V55.1649C132.748 55.6882 132.894 56.2088 133.2 56.6354C133.367 56.8023 133.569 56.9309 133.79 57.0122C134.012 57.0934 134.249 57.1255 134.485 57.106C134.789 57.117 135.092 57.0617 135.373 56.9438C135.654 56.826 135.905 56.6485 136.111 56.4237C136.536 55.932 136.755 55.2959 136.723 54.6472V49.8707C136.712 49.6533 136.747 49.4358 136.826 49.2329C136.905 49.03 137.027 48.8464 137.183 48.6943C137.354 48.537 137.554 48.4154 137.773 48.3366C137.991 48.2579 138.224 48.2234 138.456 48.2354C138.915 48.2224 139.363 48.3867 139.705 48.6943ZM144.606 59.5531C143.975 59.4163 143.373 59.1694 142.827 58.8237C142.603 58.6963 142.42 58.5088 142.297 58.2825C142.176 58.0458 142.116 57.7833 142.12 57.5178C142.107 57.2012 142.212 56.8911 142.415 56.6472C142.501 56.5365 142.612 56.4471 142.739 56.3859C142.866 56.3247 143.005 56.2933 143.145 56.2943C143.346 56.2959 143.546 56.3319 143.735 56.4001C143.939 56.4672 144.14 56.5458 144.335 56.6354C144.741 56.8174 145.158 56.9707 145.585 57.0943C146.081 57.222 146.592 57.2816 147.105 57.2707C147.513 57.2853 147.918 57.1962 148.283 57.0119C148.412 56.9534 148.522 56.8592 148.599 56.7403C148.677 56.6215 148.718 56.483 148.719 56.3413C148.724 56.2468 148.71 56.1523 148.677 56.0634C148.645 55.9744 148.595 55.8929 148.53 55.8237C148.317 55.6613 148.072 55.5451 147.812 55.4825C147.47 55.3766 146.916 55.2472 146.162 55.0943C145.112 54.95 144.116 54.5455 143.263 53.9178C142.965 53.6471 142.731 53.3134 142.578 52.941C142.425 52.5685 142.357 52.1667 142.379 51.7649C142.378 51.1044 142.597 50.4623 143.004 49.9413C143.446 49.3664 144.037 48.9229 144.713 48.659C145.49 48.3424 146.324 48.1863 147.164 48.2001C147.804 48.1997 148.442 48.2827 149.061 48.4472C149.641 48.5991 150.196 48.8329 150.71 49.1413C150.933 49.2692 151.116 49.455 151.24 49.6788C151.365 49.9026 151.426 50.156 151.417 50.4119C151.43 50.7393 151.326 51.0605 151.123 51.3178C151.037 51.43 150.926 51.5212 150.8 51.5844C150.673 51.6475 150.534 51.6811 150.392 51.6825C149.952 51.6497 149.527 51.5082 149.155 51.2707C148.824 51.0933 148.477 50.9476 148.118 50.8354C147.764 50.7245 147.393 50.6728 147.022 50.6825C146.636 50.6601 146.251 50.75 145.914 50.9413C145.788 51.014 145.684 51.1186 145.611 51.2447C145.539 51.3707 145.501 51.5137 145.502 51.659C145.502 51.8129 145.548 51.9633 145.634 52.0911C145.72 52.2189 145.842 52.3182 145.985 52.3766C146.571 52.6204 147.184 52.7903 147.812 52.8825C148.625 53.0145 149.417 53.2519 150.168 53.5884C150.675 53.8136 151.108 54.1764 151.417 54.6354C151.693 55.1267 151.828 55.6845 151.806 56.2472C151.831 56.7467 151.729 57.2443 151.511 57.6945C151.292 58.1446 150.965 58.5329 150.557 58.8237C149.51 59.5081 148.272 59.8418 147.022 59.7766C146.211 59.7842 145.402 59.7093 144.606 59.5531Z" fill="#000638"/>
<path fill-rule="evenodd" clip-rule="evenodd" d="M153.609 44.741C153.597 44.9743 153.637 45.2074 153.726 45.4232C153.816 45.639 153.953 45.832 154.127 45.988V46.0116C154.537 46.3226 155.038 46.491 155.553 46.491C156.068 46.491 156.569 46.3226 156.979 46.0116C157.151 45.8535 157.286 45.6602 157.375 45.4449C157.465 45.2296 157.506 44.9974 157.497 44.7645C157.507 44.5321 157.465 44.3004 157.373 44.0866C157.281 43.8728 157.143 43.6823 156.967 43.5292C156.558 43.221 156.06 43.0542 155.547 43.0542C155.035 43.0542 154.536 43.221 154.127 43.5292C153.957 43.6809 153.823 43.8681 153.733 44.0775C153.643 44.2869 153.601 44.5134 153.609 44.741ZM153.88 58.141C153.868 58.3606 153.905 58.5801 153.989 58.7836C154.072 58.987 154.2 59.1694 154.363 59.3175C154.701 59.5869 155.121 59.7322 155.553 59.7292C155.982 59.7323 156.398 59.5868 156.731 59.3175C156.894 59.1694 157.022 58.987 157.106 58.7836C157.189 58.5801 157.227 58.3606 157.215 58.141V49.9057C157.226 49.6862 157.188 49.4669 157.105 49.2636C157.021 49.0602 156.894 48.8778 156.731 48.7292C156.398 48.4598 155.982 48.3142 155.553 48.3175C155.125 48.3161 154.709 48.4614 154.375 48.7292C154.208 48.8751 154.077 49.0568 153.992 49.2606C153.906 49.4644 153.868 49.685 153.88 49.9057V58.141ZM160.054 57.0469C160.529 57.9052 161.246 58.6049 162.117 59.0586C163.083 59.5305 164.145 59.7758 165.221 59.7758C166.298 59.7758 167.36 59.5305 168.326 59.0586C169.199 58.6084 169.917 57.9078 170.388 57.0469C170.893 56.1075 171.144 55.0536 171.119 53.988C171.143 52.9189 170.892 51.8615 170.388 50.9174C169.913 50.0626 169.196 49.3669 168.326 48.9174C167.355 48.4604 166.295 48.2234 165.221 48.2234C164.148 48.2234 163.088 48.4604 162.117 48.9174C161.249 49.3703 160.533 50.0652 160.054 50.9174C159.555 51.8626 159.308 52.9199 159.336 53.988C159.306 55.0526 159.554 56.1065 160.054 57.0469ZM167.066 51.6351C167.541 52.3242 167.769 53.1533 167.714 53.988C167.714 56.1174 166.889 57.2233 165.227 57.2233C163.566 57.2233 162.729 56.1645 162.729 54.0351C162.729 51.9057 163.566 50.8469 165.227 50.8469C165.574 50.8251 165.921 50.885 166.241 51.022C166.56 51.1589 166.843 51.3689 167.066 51.6351Z" fill="#000638"/>
<path d="M183.138 49.4119C183.867 50.4383 184.213 51.6869 184.116 52.9413V58.1648C184.13 58.3825 184.095 58.6004 184.016 58.8035C183.937 59.0066 183.814 59.1901 183.657 59.3413C183.31 59.6453 182.857 59.8015 182.396 59.7766C182.169 59.7899 181.942 59.7583 181.728 59.6836C181.513 59.6089 181.316 59.4925 181.147 59.3413C180.991 59.1895 180.87 59.0056 180.793 58.8024C180.715 58.5992 180.684 58.3816 180.699 58.1648V53.0589C180.747 52.4779 180.598 51.8976 180.275 51.4119C180.115 51.2286 179.915 51.0852 179.69 50.9932C179.465 50.9013 179.221 50.8634 178.979 50.8825C178.66 50.8701 178.343 50.9245 178.046 51.042C177.75 51.1595 177.482 51.3376 177.258 51.5648C176.819 52.0637 176.591 52.7132 176.622 53.3766V58.0825C176.635 58.3001 176.601 58.518 176.522 58.7211C176.442 58.9243 176.32 59.1078 176.162 59.2589C175.994 59.4113 175.797 59.5283 175.582 59.6031C175.368 59.6779 175.14 59.7089 174.913 59.6942C174.456 59.7199 174.007 59.5634 173.664 59.2589C173.503 59.1103 173.377 58.9275 173.295 58.724C173.214 58.5204 173.179 58.3013 173.193 58.0825V49.8237C173.177 49.6025 173.214 49.3808 173.3 49.1764C173.386 48.972 173.519 48.7907 173.688 48.6472C174.035 48.3514 174.481 48.1961 174.937 48.2119C175.152 48.1985 175.367 48.2291 175.57 48.302C175.773 48.3748 175.958 48.4883 176.115 48.6354C176.261 48.7725 176.376 48.9386 176.453 49.1231C176.531 49.3076 176.568 49.5062 176.563 49.706V50.0237C176.939 49.434 177.468 48.958 178.095 48.6472C178.75 48.3247 179.474 48.1633 180.204 48.1766C180.755 48.1471 181.305 48.243 181.814 48.457C182.322 48.671 182.775 48.9975 183.138 49.4119Z" fill="#000638"/>
<path d="M26.2182 29C25.4512 28.9988 24.6883 29.1139 23.9558 29.3412C20.2928 30.4471 17.9976 34.0689 18.5651 37.8473C19.1331 41.6257 22.3915 44.4158 26.2182 44.4C26.9889 44.3962 27.7548 44.2812 28.4924 44.0588C32.1234 42.9224 34.3828 39.3134 33.8155 35.557C33.2482 31.8002 30.0234 29.017 26.2182 29Z" fill="#80829B"/>
<path d="M24.0971 32.3179C24.4511 33.4312 24.465 34.6245 24.1372 35.7458C23.8094 36.867 23.1547 37.8655 22.2565 38.6139C21.3583 39.3623 20.2572 39.8268 19.0936 39.9481C17.93 40.0695 16.7566 39.8422 15.7229 39.2953C14.6891 38.7484 13.8419 37.9066 13.2891 36.8771C12.7363 35.8477 12.503 34.6773 12.6189 33.515C12.7348 32.3527 13.1946 31.2512 13.9398 30.3508C14.685 29.4504 15.6818 28.7918 16.8032 28.4591C19.8815 27.5456 23.1255 29.2619 24.0971 32.3179ZM40.7825 50.7649C41.7202 53.8068 40.0114 57.0322 36.9649 57.9696C33.9181 58.9073 30.6871 57.2021 29.747 54.1609C28.8067 51.1195 30.5134 47.8929 33.5592 46.9532C34.2842 46.7294 35.0462 46.6506 35.8017 46.7211C36.5572 46.7916 37.2914 47.0101 37.9622 47.3642C38.6331 47.7182 39.2275 48.2007 39.7114 48.7843C40.1953 49.3678 40.5593 50.0409 40.7825 50.7649ZM5.09043 42.2473C4.69121 42.248 4.29387 42.3075 3.91209 42.4238C1.92069 43.0367 0.739279 45.0783 1.2019 47.1068C1.66499 49.1353 3.61562 50.4647 5.6763 50.1562C7.73699 49.8475 9.2111 48.0052 9.05744 45.9303C8.90379 43.8558 7.17422 42.2499 5.09043 42.2473Z" fill="#000638"/>
<path d="M41.8784 35.1296C41.5865 35.1263 41.2961 35.17 41.0182 35.259C40.344 35.4655 39.7664 35.9067 39.3903 36.5024C39.0142 37.098 38.8647 37.8086 38.9688 38.505C39.0729 39.2014 39.4238 39.8374 39.9577 40.2974C40.4917 40.7574 41.1731 41.011 41.8784 41.0119C42.1736 41.0093 42.4671 40.9658 42.7503 40.8825C43.4255 40.6757 44.0038 40.2335 44.3798 39.6366C44.7558 39.0397 44.9045 38.3278 44.7989 37.6307C44.6932 36.9335 44.3402 36.2974 43.8041 35.8383C43.268 35.3792 42.5846 35.1277 41.8784 35.1296Z" fill="#CCCDD7"/>
<path d="M10.228 12.3413C9.57259 12.3411 8.92099 12.4402 8.29547 12.6354C5.02133 13.6503 3.08484 17.0136 3.85312 20.3491C4.62187 23.6848 7.83616 25.8648 11.2253 25.3488C14.6142 24.8331 17.0322 21.7959 16.7706 18.3832C16.509 14.9705 13.6562 12.3361 10.228 12.3413Z" fill="#80829B"/>
<path d="M36.5286 0.929199C35.3055 0.929451 34.0896 1.11591 32.9229 1.48214C27.1643 3.27202 23.5692 8.98238 24.4506 14.9393C25.3317 20.8963 30.4269 25.325 36.4579 25.3763C37.68 25.3744 38.895 25.192 40.0636 24.8351C45.8418 23.0593 49.4564 17.3386 48.5734 11.3673C47.6903 5.39602 42.5742 0.96214 36.5286 0.929199Z" fill="#CCCDD7"/>
<path d="M48.4654 7.81161C45.8509 7.81278 43.6686 9.80408 43.4329 12.4038C43.1973 15.0036 44.9862 17.3537 47.5581 17.8234C47.8612 17.8798 48.1689 17.9076 48.4772 17.9057C51.0917 17.9045 53.274 15.9133 53.5094 13.3135C53.7451 10.7135 51.9564 8.36361 49.3845 7.89396C49.0815 7.83737 48.7737 7.8098 48.4654 7.81161Z" fill="#000638"/>
</svg>
