<svg width="140" height="70" viewBox="0 0 140 70" fill="none" xmlns="http://www.w3.org/2000/svg">
<path d="M55.7428 47.9715C55.7428 50.8572 53.3999 53.2286 50.4857 53.2286C47.5714 53.2286 45.2285 50.8858 45.2285 47.9715C45.2285 45.0858 47.5714 42.7144 50.4857 42.7144C53.3999 42.7144 55.7428 45.0858 55.7428 47.9715Z" fill="white"/>
<path d="M21.1715 28.4002C21.1715 31.2859 18.8287 33.6574 15.9144 33.6574C13.0001 33.6574 10.6572 31.3145 10.6572 28.4002C10.6572 25.5145 13.0001 23.1431 15.9144 23.1431C18.8287 23.1431 21.1715 25.4859 21.1715 28.4002Z" fill="white"/>
<path d="M45.8285 42.2283C45.8285 45.114 43.4856 47.4855 40.5714 47.4855C37.6856 47.4855 35.3142 45.1426 35.3142 42.2283C35.3142 39.3426 37.6571 36.9712 40.5714 36.9712C43.4856 36.9998 45.8285 39.3426 45.8285 42.2283Z" fill="white"/>
<path d="M33.1429 48.5716C33.1429 51.4573 30.8001 53.8287 27.8858 53.8287C25.0001 53.8287 22.6287 51.4859 22.6287 48.5716C22.6287 45.6859 24.9715 43.3145 27.8858 43.3145C30.8001 43.343 33.1429 45.6859 33.1429 48.5716Z" fill="white"/>
<path d="M33.1429 60.9427C33.1429 63.8284 30.8001 66.1998 27.8858 66.1998C25.0001 66.1998 22.6287 63.857 22.6287 60.9427C22.6287 58.057 24.9715 55.6855 27.8858 55.6855C30.8001 55.7141 33.1429 58.057 33.1429 60.9427Z" fill="white"/>
<path d="M55.7428 21.8572C55.7428 24.743 53.3999 27.1144 50.4857 27.1144C47.5714 27.1144 45.2285 24.7715 45.2285 21.8572C45.2285 18.9715 47.5714 16.6001 50.4857 16.6001C53.3999 16.6001 55.7428 18.9715 55.7428 21.8572Z" fill="white"/>
<path d="M45.8285 28.4002C45.8285 31.2859 43.4856 33.6574 40.5714 33.6574C37.6856 33.6574 35.3142 31.3145 35.3142 28.4002C35.3142 25.5145 37.6571 23.1431 40.5714 23.1431C43.4856 23.1431 45.8285 25.4859 45.8285 28.4002Z" fill="white"/>
<path d="M20.4 42.7142C20.4 45.5999 18.0572 47.9713 15.1429 47.9713C12.2286 47.9713 9.88574 45.6285 9.88574 42.7142C9.88574 39.8285 12.2286 37.457 15.1429 37.457C18.0572 37.457 20.4 39.7999 20.4 42.7142Z" fill="white"/>
<path d="M10.3999 20.7143C11.0285 23.5429 9.25706 26.3429 6.42848 26.9714C3.59991 27.6 0.799913 25.8286 0.171342 23C-0.45723 20.1714 1.3142 17.3714 4.14277 16.7429C6.97134 16.1143 9.77134 17.8857 10.3999 20.7143Z" fill="white"/>
<path d="M9.88577 32.0573C9.6572 33.6858 8.14292 34.8287 6.51435 34.6001C4.88577 34.3716 3.74292 32.8573 3.97149 31.2287C4.20006 29.6001 5.71435 28.4573 7.34292 28.6858C8.97149 28.9144 10.1143 30.4287 9.88577 32.0573Z" fill="white"/>
<path d="M39.9714 53.6855C39.7142 55.5712 37.9714 56.8569 36.0857 56.5998C34.2 56.3427 32.9142 54.5998 33.1714 52.7141C33.4285 50.8284 35.1714 49.5427 37.0571 49.7998C38.9428 50.0569 40.2285 51.7998 39.9714 53.6855Z" fill="white"/>
<path d="M50.1428 31.9429C49.9713 33.0857 48.9428 33.8571 47.7999 33.6857C46.6571 33.5143 45.8856 32.4857 46.0285 31.3429C46.1999 30.2 47.2285 29.4286 48.3713 29.6C49.5142 29.7714 50.3142 30.8 50.1428 31.9429Z" fill="white"/>
<path d="M29.7144 22.1998C29.4858 23.8284 27.9715 24.9713 26.343 24.7427C24.7144 24.5141 23.5715 22.9998 23.8001 21.3713C24.0287 19.7427 25.543 18.5999 27.1715 18.8284C28.8001 19.057 29.943 20.5713 29.7144 22.1998Z" fill="white"/>
<path d="M38.2857 18.3141C38.0571 19.9427 36.5428 21.0855 34.9142 20.857C33.2857 20.6284 32.1428 19.1141 32.3714 17.4855C32.6 15.857 34.1142 14.7141 35.7428 14.9427C37.4 15.1713 38.5428 16.6855 38.2857 18.3141Z" fill="white"/>
<path d="M18.8858 51.1427C18.6572 52.7713 17.1429 53.9141 15.5143 53.6856C13.8858 53.457 12.7429 51.9427 12.9715 50.3142C13.2001 48.6856 14.7143 47.5427 16.3429 47.7713C18.0001 47.9999 19.1143 49.5142 18.8858 51.1427Z" fill="white"/>
<path d="M48.2571 37.7428C48.0285 39.3714 46.5143 40.5142 44.8857 40.2857C43.2571 40.0571 42.1143 38.5428 42.3428 36.9142C42.5714 35.2857 44.0857 34.1428 45.7143 34.3714C47.3428 34.5714 48.4857 36.0857 48.2571 37.7428Z" fill="white"/>
<path d="M44.8284 51.5999C45.7142 52.9999 45.2856 54.8285 43.8856 55.7142C42.4856 56.5999 40.657 56.1714 39.7713 54.7714C38.8856 53.3714 39.3142 51.5428 40.7142 50.6571C42.1142 49.7999 43.9427 50.1999 44.8284 51.5999Z" fill="white"/>
<path d="M22.0286 16.5426C21.8 18.1712 20.2857 19.3141 18.6572 19.0855C17.0286 18.8569 15.8857 17.3426 16.1143 15.7141C16.3429 14.0855 17.8572 12.9426 19.4857 13.1712C21.1143 13.3998 22.2572 14.9141 22.0286 16.5426Z" fill="white"/>
<path d="M33.3999 9.08557C33.3999 12.1141 30.9428 14.5999 27.8856 14.5999C24.8571 14.5999 22.3713 12.1427 22.3713 9.08557C22.3713 6.057 24.8285 3.57129 27.8856 3.57129C30.9428 3.57129 33.3999 6.02843 33.3999 9.08557Z" fill="white"/>
<path d="M10.4857 47.9427C10.4857 50.8284 8.14286 53.1998 5.22857 53.1998C2.31428 53.1998 0 50.857 0 47.9427C0 45.057 2.34285 42.6855 5.25714 42.6855C8.17143 42.6855 10.4857 45.057 10.4857 47.9427Z" fill="white"/>
<path d="M36.3428 33.8285C36.3428 38.8857 32.2571 42.9714 27.2 42.9714C22.1428 42.9714 18.0571 38.8857 18.0571 33.8285C18.0571 28.7714 22.1428 24.6857 27.2 24.6857C32.2286 24.6571 36.3428 28.7714 36.3428 33.8285Z" fill="white"/>
<path d="M68.0286 15.7427H77.2857V18.057H70.7429V22.7427H76.3429V25.0284H70.7429V32.3427H68.0286V15.7427Z" fill="white"/>
<path d="M79.457 20.4002H81.8856V21.7431C82.7142 20.8288 83.7713 20.1431 85.2285 20.1431C85.5999 20.1431 85.9713 20.2002 86.2856 20.3145V22.7145C85.9142 22.6288 85.5142 22.5431 85.0285 22.5431C83.5142 22.5431 82.5142 23.3431 81.8856 24.3716V32.3431H79.457V20.4002Z" fill="white"/>
<path d="M87.7429 29.2283C87.7429 27.4283 89.1429 26.1141 91.6858 25.6855L95.5429 25.0569V24.4283C95.5429 22.9712 94.4572 22.0569 92.9144 22.0569C91.6001 22.0569 90.6001 22.6569 89.9144 23.6283L88.0858 22.2283C89.1429 20.7998 90.8572 19.9141 93.0001 19.9141C96.2286 19.9141 98.0001 21.7998 98.0001 24.4569V32.3426H95.5715V30.9998C94.7143 32.0569 93.2286 32.7141 91.7429 32.7141C89.3429 32.7141 87.7429 31.3426 87.7429 29.2283ZM92.1715 30.7141C93.6572 30.7141 94.8286 29.9998 95.5429 28.8569V26.7998L92.3143 27.3426C90.8286 27.5998 90.2001 28.2569 90.2001 29.1426C90.2001 30.0569 90.9429 30.7141 92.1715 30.7141Z" fill="white"/>
<path d="M101.428 20.4H103.857V21.5714C104.771 20.6286 105.943 19.9429 107.657 19.9429C110.286 19.9429 112.314 21.7143 112.314 25.1714V32.3429H109.857V25.2572C109.857 23.3714 108.8 22.2286 107.114 22.2286C105.486 22.2286 104.514 23.2572 103.886 24.2857V32.3429H101.428V20.4Z" fill="white"/>
<path d="M124.8 28.9426L126.714 30.3997C125.629 31.8569 123.857 32.8283 121.657 32.8283C117.657 32.8283 115.143 29.8569 115.143 26.3712C115.143 22.8855 117.657 19.9141 121.657 19.9141C123.829 19.9141 125.629 20.8569 126.714 22.3426L124.8 23.7998C124.143 22.8855 123.057 22.1998 121.657 22.1998C119.343 22.1998 117.686 23.9998 117.686 26.3426C117.686 28.7141 119.343 30.4855 121.657 30.4855C123.029 30.5141 124.143 29.8569 124.8 28.9426Z" fill="white"/>
<path d="M134.8 32.8283C130.686 32.8283 128.229 29.8569 128.229 26.3712C128.229 22.7998 130.514 19.9141 134.286 19.9141C137.571 19.9141 139.714 22.1712 139.714 25.1998C139.714 25.7426 139.657 26.2855 139.543 26.6569H130.714C130.886 29.2569 132.457 30.6283 134.771 30.6283C136.229 30.6283 137.429 29.9998 138.171 28.9998L139.943 30.4283C138.857 31.8855 137.029 32.8283 134.8 32.8283ZM130.886 24.8283H137.314C137.257 23.3426 136.2 21.9712 134.286 21.9712C132.486 21.9712 131.257 22.9712 130.886 24.8283Z" fill="white"/>
<path d="M66.2571 37.0859H79.6571V39.5717H74.3142V53.6859H71.5999V39.5717H66.2571V37.0859Z" fill="white"/>
<path d="M80.8286 41.7142H83.2572V43.057C84.0858 42.1427 85.1429 41.457 86.6 41.457C86.9715 41.457 87.3429 41.5142 87.6572 41.6285V44.0285C87.2858 43.9427 86.8858 43.857 86.4 43.857C84.8858 43.857 83.8858 44.657 83.2572 45.6856V53.657H80.8286V41.7142Z" fill="white"/>
<path d="M89.0857 50.5716C89.0857 48.7716 90.4857 47.4573 93.0286 47.0288L96.8857 46.4002V45.7716C96.8857 44.3145 95.8 43.4002 94.2571 43.4002C92.9428 43.4002 91.9428 44.0002 91.2571 44.9716L89.4286 43.5716C90.4857 42.143 92.2 41.2573 94.3428 41.2573C97.5714 41.2573 99.3428 43.143 99.3428 45.8002V53.6859H96.9143V52.343C96.0571 53.4002 94.5714 54.0573 93.0857 54.0573C90.7143 54.0288 89.0857 52.6859 89.0857 50.5716ZM93.5143 52.0288C95 52.0288 96.1714 51.3145 96.8857 50.1716V48.1145L93.6571 48.6573C92.1714 48.9145 91.5428 49.5716 91.5428 50.4573C91.5714 51.4002 92.2857 52.0288 93.5143 52.0288Z" fill="white"/>
<path d="M103.914 41.7144L107.429 51.0286L110.914 41.7144H113.571L109.029 53.6858H105.8L101.286 41.7144H103.914Z" fill="white"/>
<path d="M114.857 50.5716C114.857 48.7716 116.257 47.4573 118.8 47.0288L122.657 46.4002V45.7716C122.657 44.3145 121.571 43.4002 120.029 43.4002C118.714 43.4002 117.714 44.0002 117.029 44.9716L115.2 43.5716C116.257 42.143 117.971 41.2573 120.114 41.2573C123.343 41.2573 125.114 43.143 125.114 45.8002V53.6859H122.686V52.343C121.829 53.4002 120.343 54.0573 118.857 54.0573C116.457 54.0288 114.857 52.6859 114.857 50.5716ZM119.286 52.0288C120.771 52.0288 121.943 51.3145 122.657 50.1716V48.1145L119.429 48.6573C117.943 48.9145 117.314 49.5716 117.314 50.4573C117.314 51.4002 118.057 52.0288 119.286 52.0288Z" fill="white"/>
<path d="M131.343 41.7144H128.914V53.6572H131.343V41.7144Z" fill="white"/>
<path d="M137.771 35.8857H135.343V53.6572H137.771V35.8857Z" fill="white"/>
<path d="M128.686 38.0856C128.686 37.2856 129.343 36.6284 130.143 36.6284C130.943 36.6284 131.6 37.2856 131.6 38.0856C131.6 38.8856 130.943 39.5427 130.143 39.5427C129.343 39.5427 128.686 38.857 128.686 38.0856Z" fill="white"/>
</svg>
