<svg xmlns="http://www.w3.org/2000/svg" fill="none" viewBox="0 0 104 63">
  <g clip-path="url(#a)">
    <path fill="#E1000F" d="m43.877 54.4732 1.3782-.9908 5.1447 7.2485 3.3419-2.4031.9068 1.2783L49.9283 63l-6.0542-8.5268h.0029ZM50.3167 49.843l4.7201-3.394.8403 1.1806-3.3419 2.4032 1.7113 2.4115 2.8564-2.0543.8376 1.1806-2.8566 2.0542 1.8249 2.5707 3.3419-2.4032.8376 1.1806-4.7203 3.3939-6.0542-8.5268.0029.003Z"/>
    <path fill="#000091" d="m60.3727 42.6112 2.6623-1.9145 3.8327 1.8447-.4796-4.2562 2.6623-1.9148 6.0542 8.5268-2.1549 1.5489-3.891-5.4816.3633 3.6032-1.4643 1.0524-3.2697-1.5128 3.891 5.4815-2.1548 1.5492-6.0542-8.5268h.0027ZM82.7535 32.9571c1.7306 2.4365 1.3589 5.8304-1.3255 7.7619-2.6984 1.9398-6.0099 1.1946-7.7378-1.242-1.7305-2.4368-1.3616-5.8307 1.3397-7.7705 2.7011-1.9398 5.996-1.1833 7.7265 1.2533l-.0029-.0027Zm-2.2158 1.5936c-1.0205-1.4375-2.7235-1.7751-4.0686-.8093-1.356.974-1.5806 2.7184-.5684 4.1445 1.0205 1.4374 2.7233 1.7753 4.0795.8012 1.3424-.9657 1.567-2.7101.5575-4.1364ZM81.3475 27.5283l2.1549-1.549 6.0542 8.5267-2.1551 1.5491-6.054-8.5268ZM90.7297 29.669c.8708.2765 1.8137.1871 2.4324-.2566.4962-.3573.6432-.7929.2965-1.2813-.9261-1.3033-4.3512 1.8031-6.4258-1.1192-1.0122-1.4262-.6655-3.4581 1.0539-4.6945 1.3423-.9657 2.7983-1.1304 4.21-.8178l-.5409 2.5594c-.9125-.2288-1.7471-.2707-2.3158.1368-.4353.3126-.5489.7982-.2965 1.1527.8983 1.2671 4.3236-1.8393 6.4424 1.1443 1.187 1.7221.5462 3.6535-1.0512 4.8034-1.5614 1.1221-2.9313 1.2813-4.3376.949l.5326-2.5733v-.0029ZM101.166 24.4637c-.485-.681-.33-1.6746.382-2.1882.677-.4884 1.687-.3293 2.172.3517.485.681.316 1.7053-.363 2.1938-.702.5052-1.698.3377-2.191-.3573Zm-5.0892-7.5275 2.2019-1.5853 3.5583 5.8863-1.381.9937-4.3819-5.2947h.0027ZM87.934 16.7382 40.9648 50.5177l.1917.2703L88.126 17.0084l-.192-.2702Z"/>
    <path fill="#E20613" d="m24.2084 27.3802 1.4117-1.0186 3.0673 4.3011 2.0161-1.4571.9152 1.2867-3.4251 2.4758-3.9852-5.5879ZM28.1575 24.5279l3.4251-2.4757.8376 1.1723-2.0134 1.4541.6988.9825 1.6974-1.2253.8374 1.1722-1.6972 1.2253.7738 1.0857 2.0161-1.4541.8349 1.1722-3.425 2.4758-3.9855-5.585Z"/>
    <path fill="#E1000F" d="M35.6346 24.9661c.574.1787 1.1897.1201 1.5945-.173.3245-.2344.4216-.5219.1941-.8401-.6101-.8541-2.8508 1.1918-4.2181-.7257-.6657-.935-.4411-2.2691.685-3.0841.8791-.6364 1.8359-.7452 2.7623-.5443l-.3494 1.6803c-.5992-.148-1.1483-.1759-1.5199.0948-.2856.2066-.3578.5248-.1941.7564.5935.829 2.8371-1.2141 4.2321.7397.7821 1.1276.3661 2.3975-.6822 3.1539-1.0235.7396-1.922.8456-2.8455.6279l.3439-1.6885-.0027.0027ZM29.1754 34.3442l3.4277-2.4759.8376 1.1722-2.0161 1.4571.7015.9824 1.6974-1.2279.8374 1.1749-1.6972 1.2253.7738 1.0858 2.0134-1.4571.8376 1.1752-3.4251 2.4756-3.988-5.5876ZM33.4436 31.2599l1.7915-1.295 4.479 2.0485-2.4877-3.486 1.4116-1.0214 3.9854 5.5876-1.7918 1.2953-4.4789-2.0489 2.4877 3.489-1.4116 1.0188-3.9852-5.5879ZM39.1508 27.1347l4.6481-3.3576.9181 1.2839-1.6196 1.1695 3.07 4.3011-1.4116 1.0214-3.07-4.3039-1.617 1.1696-.918-1.284ZM44.3232 23.3975l1.8638-1.3481c1.3006-.9405 2.5625-.8736 3.3419.2205.4852.6783.5325 1.4179.1802 2.1073l3.3889 1.1444-1.6501 1.1917-2.9037-1.1052-.3326.24 1.5087 2.1156-1.4116 1.0214-3.9855-5.5876Zm2.2493.1536.8015 1.1247.5379-.3907c.3577-.2568.3968-.6392.1527-.9825-.2275-.3181-.5992-.4019-.9569-.1423l-.5379.3908h.0027ZM49.3182 19.7887l3.425-2.4757.8376 1.1722-2.0134 1.4542.6989.9824 1.6998-1.2252.8349 1.1722-1.6974 1.2281.7767 1.0857 2.0134-1.4569.8376 1.1722-3.428 2.4757-3.9851-5.5849ZM53.5835 16.7045l1.9829-1.4318c1.3007-.9406 2.5626-.8736 3.3419.2205.7738 1.0857.4353 2.311-.8654 3.2516l-.5713.4131 1.5087 2.1156-1.4117 1.0216-3.9851-5.5878v-.0028Zm2.2492.1536.8016 1.1248.6515-.4689c.3577-.2568.3967-.6392.1526-.9825-.2275-.3182-.5991-.4019-.9568-.1451l-.6518.4689.0029.0028ZM58.0956 13.4446l1.8637-1.3481c1.3007-.9406 2.5626-.8736 3.3419.2205.4853.6782.5326 1.4179.1802 2.1072l3.3893 1.1444-1.6501 1.1918-2.9037-1.1053-.3329.2401 1.5087 2.1156-1.4116 1.0215-3.9881-5.5877h.0026Zm2.2493.1535.8015 1.1248.5382-.388c.3577-.2567.3965-.6391.1524-.9824-.2276-.3182-.5992-.4019-.9569-.1423l-.5379.3907.0027-.0028ZM64.503 8.80835 63.0906 9.8293l3.9867 5.5855 1.4125-1.0209-3.9868-5.58555ZM68.7785 11.5662c.5743.1786 1.1897.12 1.5947-.1731.3246-.2344.4217-.5219.1941-.8401-.61-.85405-2.851 1.1918-4.2182-.72566-.6655-.93501-.4409-2.26915.6849-3.08414.8793-.63635 1.8362-.7452 2.7623-.54425l-.3494 1.68021c-.5989-.14791-1.148-.17583-1.5197.09491-.2858.20652-.3579.52473-.1941.75637.5933.82897 2.8342-1.21412 4.232.73964.782 1.12762.366 2.39752-.6823 3.15392-1.0232.7396-1.9217.8457-2.8454.628l.344-1.6886-.0029.0028ZM69.7546 5.01832l3.425-2.47569.8376 1.17226-2.0134 1.45692.6989.98248 1.6971-1.22807.8376 1.17503-1.6971 1.22527.7737 1.08572 2.0161-1.45414.835 1.17226L73.74 10.606l-3.9854-5.58768ZM77.2316 5.45934c.5743.17863 1.19.12002 1.5948-.17306.3245-.23445.4216-.52194.1941-.84011-.6101-.85406-2.8511 1.1918-4.2183-.72566-.6655-.93501-.4409-2.26915.6852-3.084144.8791-.63636296 1.8359-.745215 2.762-.5442576L77.8973 1.77233c-.5991-.14792-1.1483-.17584-1.5199.0949-.2855.20654-.3577.52472-.1941.75638.5935.82893 2.8372-1.21412 4.2322.73963.782 1.12759.366 2.39753-.6823 3.1539-1.0234.73963-1.922.84571-2.8454.62798l.3467-1.68858-.0029.0028Z"/>
    <path fill="#000091" d="M37.3566 44.8302c.574.1785 1.1897.12 1.5947-.1732.3243-.2345.4214-.5217.1941-.84-.6101-.8542-2.851 1.1917-4.2183-.7258-.6657-.935-.4408-2.2691.685-3.084.8793-.6365 1.8359-.7453 2.7623-.5444l-.3495 1.6802c-.5991-.1478-1.1482-.1758-1.5199.0951-.2855.2065-.3577.5247-.1941.7563.5936.8289 2.8372-1.214 4.2322.7395.782 1.1278.366 2.3975-.6823 3.1541-1.0234.7395-1.922.8456-2.8454.6278l.3438-1.6886-.0026.003Z"/>
    <path fill="#000091" d="m39.2673 41.2604-.9678-2.9559 1.4116-1.0187.7211 3.1317-1.1649.8429ZM39.9969 37.0793l3.4251-2.4756.8373 1.1722-2.0134 1.4568.7018.9798 1.6972-1.2253.8349 1.1722-1.6974 1.2283.7766 1.0855 2.0135-1.4568.8373 1.1722-3.425 2.4756-3.9879-5.5849ZM44.2623 33.9952l1.7942-1.295 4.4789 2.0486-2.4877-3.486 1.409-1.0217 3.988 5.5879-1.7915 1.295-4.4819-2.0486 2.4904 3.486-1.4116 1.0215-3.9878-5.5877ZM57.0307 30.9502l-.5242-.7341-1.2785.924-.8598-1.2059 2.6874-1.9425 1.7667 2.4729c-.0278 1.0718-.5797 2.135-1.6253 2.8915-1.8164 1.3117-4.0212.8513-5.1612-.7452-1.1397-1.5966-.9012-3.8239.8654-5.1022 1.0149-.734 2.1575-.8819 3.1588-.5778l-.5021 1.6692c-.5352-.1954-1.148-.162-1.7054.2399-.8877.6421-1.0318 1.7864-.3661 2.7214.6711.9407 1.8303 1.1332 2.7567.4633.4131-.2985.6711-.6781.7847-1.0745M57.5547 24.3912l1.8389-1.3286 6.0015 4.1308-1.4977 1.0828-1.3921-.9907-1.9664 1.4207.4882 1.6439-1.4977 1.0829-1.9717-7.0418h-.003Zm3.6831 1.9956-1.7445-1.2309.6018 2.0572 1.1427-.8263ZM68.1406 22.9203l-.5243-.7341-1.2755.9239-.8598-1.2058 2.6874-1.9426 1.7667 2.4729c-.0278 1.0718-.5797 2.1352-1.6253 2.8916-1.8166 1.3118-4.0215.8512-5.1612-.7453-1.1397-1.5965-.9012-3.8237.8681-5.102 1.0149-.7341 2.1575-.882 3.1588-.5778l-.5019 1.6691c-.5355-.1954-1.1482-.1619-1.7057.24-.8876.642-1.0317 1.7863-.366 2.7213.6711.9434 1.8303 1.1332 2.7567.4633.413-.2986.671-.6782.7847-1.0745M67.3724 17.2962l3.4251-2.4756.8376 1.1722-2.0134 1.4542.6988.9824 1.6972-1.2253.8376 1.1723-1.6972 1.2253.7738 1.0857 2.0161-1.4541.8349 1.1722-3.4253 2.4757-3.9852-5.585ZM71.6378 14.2121l1.7915-1.295 4.479 2.0486-2.4877-3.4888 1.4116-1.0188 3.9881 5.5878-1.7942 1.295-4.479-2.0514 2.4878 3.4888-1.4117 1.0215-3.9854-5.5877ZM77.3482 10.087l4.6479-3.3605.9152 1.28668-1.6167 1.16946 3.07 4.30106-1.4116 1.0187-3.07-4.301-1.617 1.1694-.9178-1.2838Z"/>
    <path fill="#E1000F" d="m3.79106 14.134-1.73889 1.5462c-1.306238 1.1639-2.05503865 2.833-2.05503865 4.5886v.2428L3.2863 19.4928c.78208-.2428 1.63349-.0307 2.21314.5527l.25791.2595c.60735.6113.80981 1.5212.51861 2.3334L5.23318 25.555c-.77099 2.1491-.70442 4.5132.18581 6.6175l1.20365 2.8442c.30227.7175 1.33395.6448 1.53364-.1088l1.71391-6.4112c.31891-1.1889.89021-2.2941 1.67791-3.2375l2.8399-3.3995c.9207-1.1053 1.1731-2.6237.6572-3.9689l-1.0566-2.7548c-.2163-.561.2441-1.1499.8376-1.0718l.3799.0502c2.8454.3741 5.5189 1.5742 7.696 3.4526l2.0939 1.8058c.2523.2177.6351.0112.5962-.321l-.1969-1.6327c-.3605-3.006-2.0744-5.6743-4.6509-7.2373l-1.883-1.14429 4.3153-1.35647c.3855-.12002.3799-.67265-.0111-.7843L18.8724 5.6631c-1.4948-.42983-3.1033-.10608-4.318.86523l-.1748.13954c-.3494.27911-.8292-.12-.6212-.51633l2.4128-4.64155c.1747-.33493-.1553-.706145-.5047-.574965L7.46017 4.0415c-2.01343.76195-3.61642 2.33891-4.41513 4.34848-.52418 1.32294-.29676 2.82732.60181 3.92982l.26623.3266c.3633.4465.31061 1.1024-.11924 1.4848"/>
    <path fill="#fff" d="m14.9814 22.8701-2.1743 4.4517c-.2524.5191-.4354 1.0691-.5408 1.6356l-1.2646 6.7431c-.4576 2.4422.3605 4.9515 2.1659 6.6484l2.9675 2.7828c.6184.5804 1.6224.0641 1.517-.7816L16.0963 31.888c-.0278-.2262-.0472-.455-.0555-.6839l-.3217-8.1749c-.0166-.4075-.5602-.522-.7377-.1564"/>
    <path fill="#000091" d="M18.462 27.5256c-.2773-.413-.9207-.1814-.8736.3153l.588 6.0649c.0693.7062.2301 1.4014.4853 2.0626l3.0063 7.8683c1.0899 2.8495 3.5554 4.9401 6.5339 5.5346l4.8866.9767c1.0205.2039 1.7362-.9851 1.0844-1.8L18.462 27.5227v.0029Z"/>
  </g>
  <defs>
    <clipPath id="a">
      <path fill="#fff" d="M0 0h104v63H0z"/>
    </clipPath>
  </defs>
</svg>
