<svg xmlns="http://www.w3.org/2000/svg" fill="none" viewBox="0 0 34 33">
  <path fill="#fff" d="M17.1 23.9c-1.9-2.1-2.9-4.8-2.7-7.6 0-1.5.2-2.9.7-4.3.4-1.2 1.1-2.4 2-3.3.9-.9 2-1.7 3.2-2.1 1.3-.5 2.8-.8 4.2-.7 1.3 0 2.7.2 4 .7C23.1-.200003 13.2-1.4 6.4 4c-6.8 5.4-8 15.3-2.6 22.1 5.4 6.8 15.3 8 22.1 2.6.9-.7 1.7-1.5 2.4-2.4-1.1.3-2.2.4-3.4.4-3.5 0-6-.9-7.8-2.8Z"/>
  <path fill="#fff" d="M19.7 14.9h8.9c.3 0 .6-.2.6-.5 0-1.5-.6-2.9-1.5-4-.9-1-2.2-1.5-3.5-1.4-1.3 0-2.6.5-3.5 1.5-.9 1.1-1.5 2.5-1.6 4 0 .1.3.4.6.4ZM29.7 17.3h-10c-.3 0-.6.2-.6.5v.1c0 1 .3 2.1.8 3 .9 1.8 2.7 3 4.7 2.9.6 0 1.2-.1 1.8-.2.6-.2 1.1-.4 1.6-.7.5-.3 1-.6 1.4-1 .4-.4 1.2-1.1 1.5-1.4.1-.1.2-.1.3-.2.3-1 .4-2.1.5-3.2-.7.2-1.3.2-2 .2ZM28.5 26.2c2-.7 4.2-2.7 4.6-4.5.2-1.2-.5-1.5-.9-1.5H32c-.3 0-.5.1-.8.2-.6 2.2-1.6 4.2-3.1 6l.4-.2ZM31.7 17.1c.4-.1.8-.2 1.1-.4.6-.3 1-1 1-2.3 0-1.4-.4-2.8-1.1-4.1-1-1.7-2.5-3.1-4.4-3.8 2.2 2.8 3.4 6.2 3.4 9.7v.9Z"/>
  <path fill="#1B2E57" d="M29.4 21.8c-.4.4-.9.7-1.4 1-.5.3-1 .6-1.6.7-.6.2-1.2.2-1.8.2-2 0-3.9-1.1-4.7-2.9-.5-.9-.7-2-.8-3 0-.3.2-.6.5-.6h10.1c.7 0 1.3-.1 1.9-.2v-.8c0-3.5-1.2-7-3.4-9.7-1.3-.5-2.6-.7-4-.7s-2.9.2-4.2.7c-1.2.5-2.2 1.2-3.1 2.1-.9.9-1.6 2.1-2 3.3-.5 1.4-.7 2.8-.7 4.2-.2 2.8.8 5.6 2.7 7.6 1.8 1.9 4.3 2.8 7.7 2.8 1.1 0 2.3-.1 3.4-.4 1.4-1.8 2.5-3.8 3.1-6-.1 0-.2.1-.3.2-.2.4-1 1.2-1.4 1.5Zm-10.3-7.5c.1-1.5.6-2.9 1.6-4 .9-1 2.1-1.5 3.5-1.5 1.3 0 2.6.5 3.5 1.4.9 1.1 1.5 2.5 1.5 4 0 .3-.3.6-.6.5h-8.9c-.3.2-.6-.1-.6-.4Z"/>
</svg>
