<svg width="18" height="19" viewBox="0 0 18 19" fill="none" xmlns="http://www.w3.org/2000/svg">
<path d="M18 14.0272V17.5632C18.0001 17.8164 17.9042 18.0602 17.7316 18.2454C17.559 18.4306 17.3226 18.5435 17.07 18.5612C16.633 18.5912 16.276 18.6072 16 18.6072C7.163 18.6072 0 11.4442 0 2.60718C0 2.33118 0.015 1.97418 0.046 1.53718C0.0637224 1.28462 0.176581 1.04819 0.361804 0.875587C0.547026 0.702985 0.790823 0.607063 1.044 0.607178H4.58C4.70404 0.607052 4.8237 0.653037 4.91573 0.736198C5.00776 0.81936 5.0656 0.933761 5.078 1.05718C5.101 1.28718 5.122 1.47018 5.142 1.60918C5.34073 2.9961 5.748 4.34501 6.35 5.61018C6.445 5.81018 6.383 6.04918 6.203 6.17718L4.045 7.71918C5.36445 10.7936 7.81455 13.2437 10.889 14.5632L12.429 12.4092C12.4919 12.3212 12.5838 12.2581 12.6885 12.2308C12.7932 12.2036 12.9042 12.214 13.002 12.2602C14.267 12.861 15.6156 13.2673 17.002 13.4652C17.141 13.4852 17.324 13.5072 17.552 13.5292C17.6752 13.5418 17.7894 13.5997 17.8724 13.6918C17.9553 13.7838 18.0012 13.9033 18.001 14.0272H18Z" fill="#FF9575"/>
</svg>
