<svg width="88" height="88" viewBox="0 0 88 88" fill="none" xmlns="http://www.w3.org/2000/svg">
<path d="M37.854 40.9247C40.0434 44.7711 43.2289 47.9565 47.0753 50.146L49.138 47.2573C49.4697 46.7928 49.9601 46.4661 50.5165 46.3388C51.0729 46.2115 51.6567 46.2926 52.1573 46.5667C55.4574 48.3702 59.1018 49.4548 62.851 49.7493C63.4361 49.7957 63.9823 50.0609 64.3806 50.4921C64.7789 50.9232 65.0001 51.4887 65 52.0757V62.487C65.0001 63.0647 64.7859 63.6219 64.3989 64.0508C64.0118 64.4797 63.4794 64.7497 62.9047 64.8087C61.668 64.937 60.422 65 59.1667 65C39.1933 65 23 48.8067 23 28.8333C23 27.578 23.063 26.332 23.1913 25.0953C23.2503 24.5206 23.5203 23.9882 23.9492 23.6011C24.3781 23.2141 24.9353 22.9999 25.513 23H35.9243C36.5113 22.9999 37.0768 23.2211 37.5079 23.6194C37.9391 24.0177 38.2043 24.5639 38.2507 25.149C38.5452 28.8982 39.6298 32.5426 41.4333 35.8427C41.7074 36.3433 41.7885 36.9271 41.6612 37.4835C41.5339 38.0398 41.2072 38.5303 40.7427 38.862L37.854 40.9247ZM31.9693 39.3917L36.4027 36.2253C35.1445 33.5096 34.2825 30.6273 33.843 27.6667H27.69C27.676 28.054 27.669 28.4437 27.669 28.8333C27.6667 46.2307 41.7693 60.3333 59.1667 60.3333C59.5563 60.3333 59.946 60.3263 60.3333 60.31V54.157C57.3727 53.7175 54.4904 52.8555 51.7747 51.5973L48.6083 56.0307C47.3335 55.5353 46.0953 54.9505 44.903 54.2807L44.7677 54.2037C40.191 51.599 36.401 47.809 33.7963 43.2323L33.7193 43.097C33.0494 41.9046 32.4647 40.6665 31.9693 39.3917Z" fill="#000091"/>
</svg>
