<svg width="90" height="73" viewBox="0 0 90 73" fill="none" xmlns="http://www.w3.org/2000/svg">
    <path d="M51.0249 9.46596C49.1526 10.2016 47.5936 11.2507 46.3244 12.6182C45.0528 13.9892 44.0815 15.6325 43.4152 17.5635C42.7454 19.4968 42.4087 21.5975 42.4087 23.875C42.4122 28.7213 43.7683 32.4842 46.4605 35.2662C49.1503 38.0389 52.9053 39.4406 57.8451 39.4441C59.9507 39.4453 61.8065 39.1718 63.4124 38.6401C66.3498 37.6004 69.6555 34.6568 70.2186 31.8806C70.5857 30.0652 69.4795 29.6714 68.8825 29.5889C68.7675 29.5771 68.6502 29.5689 68.5258 29.5689C67.8455 29.5689 67.3058 29.7893 66.9621 30.1041C66.5492 30.4848 65.348 31.6177 64.7298 32.1612C64.101 32.7129 63.416 33.2292 62.6734 33.7113C61.9133 34.2041 61.1214 34.5695 60.3038 34.803C59.4838 35.0375 58.5864 35.1507 57.6163 35.1507C56.1488 35.1519 54.7845 34.7829 53.561 34.0497C52.3258 33.3141 51.3381 32.213 50.6119 30.7866C49.9339 29.4663 49.5703 27.9597 49.5011 26.2917C49.4823 25.7341 49.9046 25.4016 50.3949 25.4016H65.2319C67.2331 25.4028 68.7499 25.1093 69.7775 24.5753C70.6913 24.1002 71.211 23.0487 71.2192 21.1401C71.2192 19.0889 70.6983 17.0778 69.6414 15.082C68.5927 13.1074 67.0243 11.4995 64.9011 10.2405C62.7954 8.99323 60.2639 8.36255 57.2726 8.36137C54.9734 8.36137 52.8947 8.73271 51.0249 9.46596ZM62.2851 15.0572C63.5802 16.4412 64.3087 18.457 64.5386 21.0458C64.5703 21.4784 64.1163 21.8568 63.6529 21.8568H50.4219C49.941 21.8533 49.4612 21.4643 49.5362 20.988C49.8412 18.4594 50.6049 16.473 51.8835 15.0891C53.2126 13.6438 54.964 12.9082 57.0157 12.9129C59.153 12.9082 60.9513 13.6273 62.2851 15.0572Z" fill="url(#paint0_radial_1523_35460)"/>
    <path d="M21.6562 23.9057C21.6562 36.8907 32.1282 47.4143 45.0495 47.4143C57.9697 47.4143 68.4428 36.8907 68.4428 23.9057C68.4428 10.9207 57.9697 0.395897 45.0495 0.395897C32.1282 0.395897 21.6562 10.9207 21.6562 23.9057Z" fill="url(#paint1_linear_1523_35460)"/>
    <path d="M23.3969 21.6942C23.0509 25.1199 23.5143 28.4455 24.6322 31.4751C28.7731 21.8156 39.1888 21.5881 47.1644 24.4114C56.7519 26.3966 67.6989 25.9428 66.1364 18.7624C64.3475 10.4586 57.0064 3.14264 47.2489 2.14651C46.504 2.06988 45.765 2.03216 45.0318 2.03216C34.012 2.03216 24.5336 10.4444 23.3969 21.6942Z" fill="url(#paint2_linear_1523_35460)"/>
    <path d="M46.3232 12.62C45.0528 13.9892 44.0815 15.6325 43.4134 17.5646C42.7454 19.4968 42.4087 21.5975 42.4087 23.875C42.4122 28.7213 43.7683 32.4842 46.4605 35.2662C49.1503 38.0389 52.9053 39.4406 57.8451 39.4441C59.8756 39.4453 61.6681 39.1895 63.233 38.6955C65.3316 36.0926 66.8882 33.0311 67.7305 29.6844C67.4185 29.7787 67.158 29.9249 66.8536 30.2049C66.5492 30.4848 65.348 31.6177 64.7245 32.1653C64.101 32.7129 63.416 33.2292 62.6646 33.7167C61.9133 34.2041 61.1214 34.5695 60.3026 34.8035C59.4838 35.0375 58.5864 35.1507 57.3676 35.1513C56.1488 35.1519 54.7845 34.7829 53.5552 34.0485C52.3258 33.3141 51.3381 32.213 50.636 30.8397C49.9339 29.4663 49.5703 27.9597 49.5011 26.2917C49.4823 25.7341 49.9046 25.4016 50.1498 25.4016H65.2319C66.4824 25.4028 67.5428 25.2873 68.4144 25.0727C68.4332 24.6849 68.4426 24.2971 68.4426 23.9057C68.4426 18.5077 66.6325 13.5377 63.5896 9.56968C61.7655 8.76807 59.6668 8.36255 57.3201 8.36196C54.9734 8.36137 52.8947 8.73271 51.0249 9.46595C49.1526 10.2016 47.5936 11.2507 46.3232 12.62ZM64.5386 21.0458C64.5703 21.4784 64.1163 21.8568 63.6529 21.8568H50.4219C49.941 21.8533 49.4612 21.4643 49.5362 20.988C49.8412 18.4594 50.6049 16.473 51.9088 15.0584C53.2126 13.6438 54.964 12.9082 57.0585 12.9082C59.153 12.9082 60.9513 13.6273 62.2851 15.0572C63.5802 16.4412 64.3087 18.457 64.5386 21.0458Z" fill="url(#paint3_radial_1523_35460)"/>
    <path d="M6.75678 63.5497C6.75678 62.5382 6.6078 61.8073 6.30867 61.357C5.93211 60.7947 5.28575 60.5141 4.36724 60.5141C3.44873 60.5141 2.80707 60.7947 2.44224 61.357C2.14311 61.8073 1.99413 62.5382 1.99413 63.5497V66.5675H4.36724C5.28575 66.5675 5.93211 66.2929 6.30867 65.7423C6.6078 65.2802 6.75678 64.5493 6.75678 63.5497ZM8.48236 63.5497C8.48236 66.8446 7.11104 68.4914 4.36724 68.4914H1.99413V72.3958H0.268555V63.552C0.268555 60.2442 1.634 58.5891 4.36724 58.5891C7.11104 58.5891 8.48236 60.243 8.48236 63.5497Z" fill="#18397A"/>
    <path d="M16.153 63.5497C16.153 62.5383 16.0051 61.8074 15.7084 61.3571C15.3459 60.7947 14.7077 60.5142 13.7963 60.5142C12.8848 60.5142 12.242 60.7947 11.8677 61.3571C11.5721 61.8074 11.4232 62.5383 11.4232 63.5497C11.4232 64.5494 11.5721 65.2803 11.8677 65.7424C12.242 66.2929 12.8848 66.5676 13.7963 66.5676C14.7077 66.5676 15.3459 66.2929 15.7084 65.7424C16.0051 65.2932 16.153 64.5623 16.153 63.5497ZM17.2486 56.7018L16.4685 57.7639L13.7141 56.1949L10.9586 57.7639L10.1785 56.7018L13.7141 54.6848L17.2486 56.7018ZM17.895 63.5497C17.895 66.8446 16.5283 68.4915 13.7963 68.4915C11.0525 68.4915 9.68115 66.8446 9.68115 63.5497C9.68115 60.243 11.0525 58.5891 13.7963 58.5891C16.5283 58.5891 17.895 60.243 17.895 63.5497Z" fill="#18397A"/>
    <path d="M23.7004 68.4917C20.7572 68.4917 19.2861 67.2952 19.2861 64.9045V54.6838H21.0117V64.921C21.0117 65.4314 21.1666 65.8134 21.4762 66.0621C21.8856 66.3981 22.627 66.5666 23.7004 66.5666V68.4917Z" fill="#18397A"/>
    <path d="M30.3449 61.4655C30.0376 60.7322 29.3466 60.23 28.4246 60.23C27.5026 60.23 26.7917 60.7322 26.4844 61.4655C26.292 61.9087 26.2544 62.1987 26.2345 62.7976H30.6135C30.5948 62.1987 30.5373 61.9087 30.3449 61.4655ZM26.2345 64.1674C26.2345 65.8461 27.119 66.9082 28.712 66.9082C29.8076 66.9082 30.3836 66.5994 31.0746 65.9038L32.3227 67.0815C31.3244 68.0859 30.3836 68.6069 28.6745 68.6069C26.2345 68.6069 24.2954 67.3137 24.2954 63.5886C24.2954 60.4234 25.9271 58.5891 28.4246 58.5891C31.0358 58.5891 32.5538 60.5188 32.5538 63.2986V64.1674H26.2345Z" fill="#18397A"/>
    <path d="M6.75678 63.5497C6.75678 62.5382 6.6078 61.8073 6.30867 61.357C5.93211 60.7947 5.28575 60.5141 4.36724 60.5141C3.44873 60.5141 2.80707 60.7947 2.44224 61.357C2.14311 61.8073 1.99413 62.5382 1.99413 63.5497V66.5675H4.36724C5.28575 66.5675 5.93211 66.2929 6.30867 65.7423C6.6078 65.2802 6.75678 64.5493 6.75678 63.5497ZM8.48236 63.5497C8.48236 66.8446 7.11104 68.4914 4.36724 68.4914H1.99413V72.3958H0.268555V63.552C0.268555 60.2442 1.634 58.5891 4.36724 58.5891C7.11104 58.5891 8.48236 60.243 8.48236 63.5497Z" fill="#18397A"/>
    <path d="M16.153 63.5497C16.153 62.5383 16.0051 61.8074 15.7084 61.3571C15.3459 60.7947 14.7077 60.5142 13.7963 60.5142C12.8848 60.5142 12.242 60.7947 11.8677 61.3571C11.5721 61.8074 11.4232 62.5383 11.4232 63.5497C11.4232 64.5494 11.5721 65.2803 11.8677 65.7424C12.242 66.2929 12.8848 66.5676 13.7963 66.5676C14.7077 66.5676 15.3459 66.2929 15.7084 65.7424C16.0051 65.2932 16.153 64.5623 16.153 63.5497ZM17.2486 56.7018L16.4685 57.7639L13.7141 56.1949L10.9586 57.7639L10.1785 56.7018L13.7141 54.6848L17.2486 56.7018ZM17.895 63.5497C17.895 66.8446 16.5283 68.4915 13.7963 68.4915C11.0525 68.4915 9.68115 66.8446 9.68115 63.5497C9.68115 60.243 11.0525 58.5891 13.7963 58.5891C16.5283 58.5891 17.895 60.243 17.895 63.5497Z" fill="#18397A"/>
    <path d="M23.7004 68.4917C20.7572 68.4917 19.2861 67.2952 19.2861 64.9045V54.6838H21.0117V64.921C21.0117 65.4314 21.1666 65.8134 21.4762 66.0621C21.8856 66.3981 22.627 66.5666 23.7004 66.5666V68.4917Z" fill="#18397A"/>
    <path d="M30.3449 61.4655C30.0376 60.7322 29.3466 60.23 28.4246 60.23C27.5026 60.23 26.7917 60.7322 26.4844 61.4655C26.292 61.9087 26.2544 62.1987 26.2345 62.7976H30.6135C30.5948 62.1987 30.5373 61.9087 30.3449 61.4655ZM26.2345 64.1674C26.2345 65.8461 27.119 66.9082 28.712 66.9082C29.8076 66.9082 30.3836 66.5994 31.0746 65.9038L32.3227 67.0815C31.3244 68.0859 30.3836 68.6069 28.6745 68.6069C26.2345 68.6069 24.2954 67.3137 24.2954 63.5886C24.2954 60.4234 25.9271 58.5891 28.4246 58.5891C31.0358 58.5891 32.5538 60.5188 32.5538 63.2986V64.1674H26.2345Z" fill="#18397A"/>
    <path d="M62.8302 68.4917H61.1046V63.5405C61.1046 62.5314 60.9544 61.8029 60.6565 61.3549C60.2799 60.7938 59.6336 60.5132 58.7151 60.5132C57.7966 60.5132 57.1549 60.7938 56.7901 61.3549C56.4909 61.8029 56.342 62.5314 56.342 63.5405V68.4917H54.6164V63.5405C54.6164 62.5314 54.4674 61.8029 54.1683 61.3549C53.7917 60.7938 53.1454 60.5132 52.2257 60.5132C51.3083 60.5132 50.6667 60.7938 50.3007 61.3549C50.0027 61.8029 49.8537 62.5314 49.8537 63.5405V68.4917H48.1282V63.55C48.1282 60.2421 49.4936 58.5894 52.2257 58.5894C53.6873 58.5894 54.7701 59.088 55.4786 60.0841C56.1766 59.088 57.2546 58.5894 58.7151 58.5894C61.4577 58.5894 62.8302 60.2421 62.8302 63.55V68.4917Z" fill="#E31927"/>
    <path d="M70.7126 63.5499C70.7126 62.5385 70.5636 61.8076 70.2645 61.3573C69.8891 60.7949 69.2416 60.5144 68.323 60.5144C67.4045 60.5144 66.7629 60.7949 66.398 61.3573C66.0989 61.8076 65.9499 62.5385 65.9499 63.5499V66.5678H68.323C69.2416 66.5678 69.8891 66.2931 70.2645 65.7426C70.5636 65.2805 70.7126 64.5496 70.7126 63.5499ZM72.4393 63.5499C72.4393 66.8448 71.0668 68.4917 68.323 68.4917H65.9499V72.396H64.2244V63.5523C64.2244 60.2444 65.591 58.5893 68.323 58.5893C71.0668 58.5893 72.4393 60.2432 72.4393 63.5499Z" fill="#E31927"/>
    <path d="M78.1134 68.4917C75.1702 68.4917 73.6992 67.2952 73.6992 64.9045V54.6838H75.4248V64.921C75.4248 65.4314 75.5796 65.8134 75.8905 66.0621C76.2987 66.3981 77.0401 66.5666 78.1134 66.5666V68.4917Z" fill="#E31927"/>
    <path d="M85.1007 63.55C85.1007 62.5385 84.9518 61.8076 84.6526 61.3573C84.2878 60.795 83.6461 60.5144 82.7276 60.5144C81.8091 60.5144 81.1674 60.795 80.8026 61.3573C80.5035 61.8076 80.3545 62.5385 80.3545 63.55C80.3545 64.5626 80.5035 65.2935 80.8026 65.7426C81.1674 66.2931 81.8091 66.5678 82.7276 66.5678C83.6461 66.5678 84.2878 66.2931 84.6526 65.7426C84.9518 65.2935 85.1007 64.5626 85.1007 63.55ZM86.8263 63.55C86.8263 66.8448 85.4597 68.4917 82.7276 68.4917C79.9838 68.4917 78.6113 66.8448 78.6113 63.55C78.6113 60.2433 79.9838 58.5894 82.7276 58.5894C85.4597 58.5894 86.8263 60.2433 86.8263 63.55Z" fill="#E31927"/>
    <path d="M88.104 58.5899H89.8296V68.4922H88.104V58.5899ZM89.8296 56.6094H88.104V54.6843H89.8296V56.6094Z" fill="#E31927"/>
    <path d="M44.537 61.4655C44.2297 60.7322 43.5388 60.23 42.6167 60.23C41.6947 60.23 40.9838 60.7322 40.6765 61.4655C40.4841 61.9087 40.4466 62.1987 40.4266 62.7976H44.8057C44.7869 62.1987 44.7294 61.9087 44.537 61.4655ZM40.4266 64.1674C40.4266 65.8461 41.3099 66.9082 42.9041 66.9082C43.9998 66.9082 44.5758 66.5994 45.2667 65.9038L46.516 67.0815C45.5166 68.0859 44.5758 68.6069 42.8666 68.6069C40.4266 68.6069 38.4875 67.3137 38.4875 63.5886C38.4875 60.4234 40.1193 58.5891 42.6167 58.5891C45.228 58.5891 46.7459 60.5188 46.7459 63.2986V64.1674H40.4266Z" fill="#E31927"/>
    <path d="M62.8302 68.4917H61.1046V63.5405C61.1046 62.5314 60.9544 61.8029 60.6565 61.3549C60.2799 60.7938 59.6336 60.5132 58.7151 60.5132C57.7966 60.5132 57.1549 60.7938 56.7901 61.3549C56.4909 61.8029 56.342 62.5314 56.342 63.5405V68.4917H54.6164V63.5405C54.6164 62.5314 54.4674 61.8029 54.1683 61.3549C53.7917 60.7938 53.1454 60.5132 52.2257 60.5132C51.3083 60.5132 50.6667 60.7938 50.3007 61.3549C50.0027 61.8029 49.8537 62.5314 49.8537 63.5405V68.4917H48.1282V63.55C48.1282 60.2421 49.4936 58.5894 52.2257 58.5894C53.6873 58.5894 54.7701 59.088 55.4786 60.0841C56.1766 59.088 57.2546 58.5894 58.7151 58.5894C61.4577 58.5894 62.8302 60.2421 62.8302 63.55V68.4917Z" fill="#E31927"/>
    <path d="M70.7126 63.5499C70.7126 62.5385 70.5636 61.8076 70.2645 61.3573C69.8891 60.7949 69.2416 60.5144 68.323 60.5144C67.4045 60.5144 66.7629 60.7949 66.398 61.3573C66.0989 61.8076 65.9499 62.5385 65.9499 63.5499V66.5678H68.323C69.2416 66.5678 69.8891 66.2931 70.2645 65.7426C70.5636 65.2805 70.7126 64.5496 70.7126 63.5499ZM72.4393 63.5499C72.4393 66.8448 71.0668 68.4917 68.323 68.4917H65.9499V72.396H64.2244V63.5523C64.2244 60.2444 65.591 58.5893 68.323 58.5893C71.0668 58.5893 72.4393 60.2432 72.4393 63.5499Z" fill="#E31927"/>
    <path d="M78.1134 68.4917C75.1702 68.4917 73.6992 67.2952 73.6992 64.9045V54.6838H75.4248V64.921C75.4248 65.4314 75.5796 65.8134 75.8905 66.0621C76.2987 66.3981 77.0401 66.5666 78.1134 66.5666V68.4917Z" fill="#E31927"/>
    <path d="M85.1007 63.55C85.1007 62.5385 84.9518 61.8076 84.6526 61.3573C84.2878 60.795 83.6461 60.5144 82.7276 60.5144C81.8091 60.5144 81.1674 60.795 80.8026 61.3573C80.5035 61.8076 80.3545 62.5385 80.3545 63.55C80.3545 64.5626 80.5035 65.2935 80.8026 65.7426C81.1674 66.2931 81.8091 66.5678 82.7276 66.5678C83.6461 66.5678 84.2878 66.2931 84.6526 65.7426C84.9518 65.2935 85.1007 64.5626 85.1007 63.55ZM86.8263 63.55C86.8263 66.8448 85.4597 68.4917 82.7276 68.4917C79.9838 68.4917 78.6113 66.8448 78.6113 63.55C78.6113 60.2433 79.9838 58.5894 82.7276 58.5894C85.4597 58.5894 86.8263 60.2433 86.8263 63.55Z" fill="#E31927"/>
    <path d="M88.104 58.5899H89.8296V68.4922H88.104V58.5899ZM89.8296 56.6094H88.104V54.6843H89.8296V56.6094Z" fill="#E31927"/>
    <path d="M44.537 61.4655C44.2297 60.7322 43.5388 60.23 42.6167 60.23C41.6947 60.23 40.9838 60.7322 40.6765 61.4655C40.4841 61.9087 40.4466 62.1987 40.4266 62.7976H44.8057C44.7869 62.1987 44.7294 61.9087 44.537 61.4655ZM40.4266 64.1674C40.4266 65.8461 41.3099 66.9082 42.9041 66.9082C43.9998 66.9082 44.5758 66.5994 45.2667 65.9038L46.516 67.0815C45.5166 68.0859 44.5758 68.6069 42.8666 68.6069C40.4266 68.6069 38.4875 67.3137 38.4875 63.5886C38.4875 60.4234 40.1193 58.5891 42.6167 58.5891C45.228 58.5891 46.7459 60.5188 46.7459 63.2986V64.1674H40.4266Z" fill="#E31927"/>
    <defs>
        <radialGradient id="paint0_radial_1523_35460" cx="0" cy="0" r="1" gradientUnits="userSpaceOnUse" gradientTransform="translate(51.6882 9.37555) scale(54.7607 55.0307)">
            <stop stop-color="#E65D1B"/>
            <stop offset="0.0472274" stop-color="#E65D1B"/>
            <stop offset="0.350006" stop-color="#ED1C24"/>
            <stop offset="1" stop-color="#A61217"/>
        </radialGradient>
        <linearGradient id="paint1_linear_1523_35460" x1="45.0493" y1="0.397035" x2="45.0493" y2="47.4143" gradientUnits="userSpaceOnUse">
            <stop stop-color="#65CDEB"/>
            <stop offset="0.0548619" stop-color="#65CDEB"/>
            <stop offset="0.406586" stop-color="#164789"/>
            <stop offset="1" stop-color="#06172F"/>
        </linearGradient>
        <linearGradient id="paint2_linear_1523_35460" x1="46.7535" y1="2.09508" x2="43.5558" y2="33.4075" gradientUnits="userSpaceOnUse">
            <stop stop-color="#99DEF9"/>
            <stop offset="1" stop-color="#103568"/>
        </linearGradient>
        <radialGradient id="paint3_radial_1523_35460" cx="0" cy="0" r="1" gradientUnits="userSpaceOnUse" gradientTransform="translate(52.5599 11.7643) scale(31.4035 31.5583)">
            <stop stop-color="white"/>
            <stop offset="0.252747" stop-color="white"/>
            <stop offset="0.457171" stop-color="white"/>
            <stop offset="1" stop-color="#CEDDE3"/>
        </radialGradient>
    </defs>
</svg>
