<svg width="382" height="301" viewBox="0 0 382 301" fill="none" xmlns="http://www.w3.org/2000/svg">
<path d="M154.349 288.775C154.043 288.789 153.74 288.708 153.481 288.544C153.223 288.381 153.02 288.141 152.902 287.858C152.784 287.576 152.755 287.264 152.821 286.964C152.886 286.665 153.041 286.393 153.266 286.185L153.369 285.778C153.355 285.745 153.342 285.713 153.328 285.68C153.02 284.952 152.503 284.331 151.843 283.896C151.183 283.46 150.409 283.229 149.618 283.232C148.827 283.235 148.055 283.472 147.398 283.912C146.741 284.353 146.229 284.977 145.926 285.708C144.715 288.623 143.174 291.544 142.794 294.626C142.627 295.989 142.698 297.37 143.003 298.708C140.159 292.506 138.683 285.766 138.673 278.943C138.672 277.231 138.768 275.52 138.958 273.819C139.115 272.424 139.334 271.039 139.613 269.664C141.137 262.204 144.409 255.212 149.161 249.261C151.461 248.007 153.321 246.077 154.49 243.733C154.914 242.891 155.213 241.991 155.379 241.063C155.12 241.097 154.401 237.146 154.596 236.904C154.235 236.355 153.588 236.083 153.193 235.547C151.229 232.885 148.524 233.35 147.111 236.968C144.094 238.49 144.065 241.015 145.916 243.444C147.094 244.989 147.256 247.08 148.289 248.734C148.183 248.87 148.072 249.002 147.966 249.138C146.022 251.637 144.328 254.32 142.908 257.15C143.253 253.98 142.841 250.774 141.705 247.794C140.554 245.018 138.397 242.679 136.497 240.279C134.214 237.396 129.534 238.654 129.132 242.309C129.128 242.344 129.124 242.38 129.121 242.415C129.403 242.574 129.679 242.743 129.95 242.922C130.289 243.149 130.552 243.473 130.704 243.852C130.857 244.231 130.891 244.647 130.802 245.045C130.714 245.444 130.507 245.807 130.209 246.086C129.911 246.365 129.536 246.548 129.132 246.61L129.091 246.616C129.191 247.633 129.369 248.641 129.623 249.631C127.185 259.057 132.448 262.49 139.962 262.644C140.128 262.729 140.289 262.814 140.455 262.895C139.028 266.937 138.133 271.149 137.793 275.422C137.6 277.943 137.611 280.476 137.827 282.996L137.814 282.906C137.269 280.105 135.775 277.577 133.582 275.75C130.326 273.075 125.725 272.09 122.211 269.94C121.838 269.7 121.404 269.572 120.96 269.571C120.516 269.57 120.082 269.696 119.707 269.934C119.332 270.172 119.034 270.512 118.846 270.914C118.659 271.316 118.59 271.763 118.648 272.203C118.653 272.234 118.658 272.265 118.662 272.297C119.186 272.51 119.696 272.756 120.189 273.032C120.472 273.192 120.748 273.361 121.018 273.539C121.358 273.766 121.621 274.09 121.773 274.469C121.925 274.848 121.959 275.264 121.871 275.663C121.783 276.061 121.576 276.424 121.278 276.703C120.98 276.982 120.604 277.165 120.201 277.227L120.16 277.234C120.13 277.238 120.104 277.242 120.074 277.246C120.969 279.383 122.225 281.349 123.787 283.059C125.311 291.287 131.858 292.068 138.86 289.672H138.864C139.633 293.01 140.746 296.259 142.186 299.367H154.052C154.095 299.236 154.133 299.1 154.171 298.968C153.073 299.037 151.97 298.971 150.888 298.772C151.768 297.692 152.649 296.603 153.529 295.523C153.549 295.503 153.567 295.482 153.584 295.46C154.031 294.907 154.482 294.358 154.928 293.805L154.928 293.805C154.952 292.11 154.757 290.419 154.349 288.775Z" fill="#E5E5E5"/>
<path d="M213.5 84H138.5V204H243.5V114H213.5V84ZM123.5 76.4385C123.5 72.3304 126.856 69 130.989 69H221L258.498 106.5L258.5 211.444C258.5 215.617 255.163 219 251.049 219H130.951C126.836 219 123.5 215.585 123.5 211.562V76.4385Z" fill="#E5E5E5"/>
<path d="M191 114V136.5H161V151.5H191V174L221 144L191 114Z" fill="#009EBF"/>
<path d="M76.5283 293.747L82.2243 293.747L84.9341 271.779L76.5267 271.78L76.5283 293.747Z" fill="#80CEDF"/>
<path d="M76.3278 299.689L93.8442 299.688V299.466C93.8441 297.659 93.1257 295.925 91.8472 294.646C90.5686 293.368 88.8345 292.65 87.0263 292.65L83.8263 290.223L77.8566 292.65L76.3275 292.65L76.3278 299.689Z" fill="#00778F"/>
<path d="M29.9593 286.454L35.0633 288.982L47.2456 270.501L39.7123 266.77L29.9593 286.454Z" fill="#80CEDF"/>
<path d="M27.1422 291.69L42.8381 299.465L42.9364 299.266C43.7391 297.646 43.8653 295.774 43.2872 294.061C42.7092 292.348 41.4743 290.934 39.8541 290.132L38.0644 286.536L31.6374 286.062L30.2672 285.383L27.1422 291.69Z" fill="#00778F"/>
<path d="M93.4029 175.666C93.4029 175.666 99.8869 184.704 95.2066 200.318C90.5264 215.932 93.1538 229.891 91.8401 232.69C90.5264 235.49 87.8818 238.148 90.067 240.27C92.2523 242.392 93.4029 244.118 91.677 244.693C89.9511 245.268 84.1979 285.534 84.1979 285.534L74.4177 286.109C74.4177 286.109 70.8747 267.405 74.6597 252.31C74.6597 252.31 73.8288 241.352 75.5615 238.133C77.2942 234.914 76.9545 237.818 76.8367 233.777C76.7715 230.856 76.3455 227.953 75.5683 225.136C74.993 222.835 74.6597 199.645 74.6597 199.645L65.1388 230.419C64.7569 231.479 64.6135 232.61 64.719 233.732C64.9545 235.317 64.9566 237.686 64.6679 238.515C64.3792 239.344 64.0577 239.518 64.2184 241.157C64.3792 242.795 45.2172 277.335 45.2172 277.335L35.6966 270.949L45.0768 240.667C46.0083 239.635 46.7836 238.472 47.3781 237.215C48.5287 234.914 48.5735 234.788 47.9758 233.125C47.3781 231.463 47.3781 228.225 47.3781 227.255C47.3781 226.286 46.7804 182.283 54.2706 175.811C61.7608 169.339 93.4029 175.666 93.4029 175.666Z" fill="#009EBF"/>
<path d="M58.2323 105.66L60.1816 100.113L65.5043 94.7912L75.3224 93.6191L81.7141 97.8207L87.6337 103.656L96.3765 176.217C96.3765 176.217 55.0809 192.136 49.6701 178.777L58.2323 105.66Z" fill="#E6F5F9"/>
<path d="M54.8851 105.661L60.621 99.9258C60.621 99.9258 63.361 136.579 62.1938 139.157C61.0265 141.735 59.6518 141.077 61.1376 142.47C62.6234 143.864 64.2202 142.481 62.6233 145.035C61.6822 146.467 61.2206 148.161 61.305 149.873C61.305 149.873 53.0423 201.873 48.2518 201.873C43.4613 201.873 40.4622 200.471 40.6311 199.044C40.8 197.616 43.6258 194.061 42.7451 193.177C41.8645 192.294 39.6937 192.961 41.8436 191.297C43.9936 189.633 45.0582 190.165 44.5259 188.036C43.9936 185.907 48.0629 158.311 48.0629 158.311L48.4598 112.215L54.8851 105.661Z" fill="#00778F"/>
<path d="M81.714 97.8223L89.1425 98.8732L97.9732 102.244C97.9732 102.244 93.9399 147.737 94.782 149.26C95.6241 150.783 97.1203 149.832 95.8399 151.372C94.5595 152.912 93.4076 152.229 94.782 153.635C96.1564 155.041 98.4699 153.26 97.047 155.747C95.6241 158.234 102.481 192.477 100.635 194.314C98.7884 196.151 94.0315 195.008 94.0294 193.651C94.1747 192.189 94.7272 190.798 95.6241 189.634C95.8815 189.339 96.0233 188.961 96.0233 188.569C96.0233 188.178 95.8815 187.8 95.6241 187.505C94.8698 186.78 94.3518 185.844 94.1376 184.82C94.0273 183.78 93.2142 182.502 92.8223 181.544C92.4304 180.586 82.5607 115.769 82.5607 115.769L81.714 97.8223Z" fill="#00778F"/>
<path d="M113.409 133.643L110.059 131.894C114.242 128.122 124.621 121.95 124.621 121.95L142.509 109.892C142.77 109.276 143.19 108.739 143.725 108.336C144.261 107.934 144.892 107.679 145.557 107.598C146.222 107.517 146.897 107.613 147.513 107.876C148.129 108.138 148.665 108.558 149.067 109.094C149.469 109.63 149.723 110.262 149.803 110.926C149.883 111.591 149.787 112.266 149.523 112.881C149.26 113.497 148.839 114.033 148.303 114.434C147.767 114.835 147.134 115.089 146.469 115.168L126.423 133.125L113.409 133.643Z" fill="#80CEDF"/>
<path d="M88.925 120.337L88.8886 105.63L97.0598 101.723L117.668 123.53L119.265 122.465H122.991L132.04 133.109C132.04 133.109 127.22 135.965 124.839 134.803C122.459 133.642 122.682 135.311 122.682 135.311C122.329 135.755 121.837 136.067 121.284 136.197C120.732 136.327 120.152 136.267 119.638 136.027C117.668 135.238 113.942 137.367 113.942 137.367L88.925 120.337Z" fill="#00778F"/>
<path d="M69.3406 90.242C62.7597 90.242 57.4248 84.9079 57.4248 78.328C57.4248 71.7481 62.7597 66.4141 69.3406 66.4141C75.9215 66.4141 81.2563 71.7481 81.2563 78.328C81.2563 84.9079 75.9215 90.242 69.3406 90.242Z" fill="#80CEDF"/>
<path d="M54.9558 81.3516C56.0807 83.5527 57.5904 85.5348 59.4137 87.2042C59.9373 87.7991 60.6051 88.2493 61.3529 88.5116C61.7288 88.6341 62.1357 88.621 62.5029 88.4744C62.8701 88.3279 63.1742 88.0572 63.3624 87.7096L63.5832 87.4079C62.9446 87.2126 62.3422 86.9147 61.7994 86.5258C61.5299 86.3299 61.311 86.0725 61.1609 85.775C61.0108 85.4775 60.9339 85.1485 60.9366 84.8153C60.956 84.4823 61.1037 84.1698 61.3487 83.9434C61.5938 83.7171 61.917 83.5944 62.2505 83.6013C62.9948 83.6899 63.6601 84.559 64.3271 84.2239C64.8658 83.9501 64.7886 83.166 64.634 82.5741C63.8048 79.4847 64.1518 74.696 65.3452 74.5286C66.5319 74.287 67.6625 73.8244 68.678 73.1647C69.6948 72.504 70.8304 72.0473 72.0216 71.8201C72.1074 71.8088 72.1946 71.8027 72.2869 71.7952C72.321 71.1582 72.432 70.5277 72.6174 69.9173C72.7469 70.5618 72.9446 71.1907 73.2073 71.7934C74.2391 71.934 75.2811 71.9867 76.3218 71.9508C77.431 71.8221 80.6191 74.4064 80.6427 74.0508C80.6768 73.4138 80.7878 72.7832 80.9733 72.1729C81.1027 72.8174 81.3005 73.4463 81.5631 74.0489C81.5751 74.0735 81.5805 74.0943 81.5925 74.1189C81.9314 73.2927 82.0285 72.3688 82.0201 73.0588C82.7318 68.6685 81.3203 66.0252 77.7167 63.4218C76.9969 62.8476 76.1431 62.4655 75.2353 62.3113C74.7819 62.2389 74.3176 62.2844 73.8869 62.4435C73.4562 62.6026 73.0738 62.8699 72.7764 63.2197C71.3928 62.4879 69.8387 62.1393 68.2751 62.2102C66.7114 62.281 65.1952 62.7687 63.8835 63.6226C61.2914 65.3589 59.2464 66.5141 59.5914 69.619C57.1346 69.8555 55.0592 71.8285 54.283 74.1667C53.5133 76.5087 53.9131 79.1223 54.9558 81.3516Z" fill="#00778F"/>
<path d="M39.7462 143.433L48.295 142.209C51.1863 147.043 52.2137 159.909 52.2137 159.909L60.58 179.791C61.1341 180.167 61.5792 180.683 61.8706 181.286C62.1621 181.889 62.2895 182.558 62.2401 183.226C62.1907 183.894 61.9662 184.537 61.5892 185.09C61.2122 185.644 60.696 186.088 60.0926 186.379C59.4892 186.67 58.8199 186.796 58.1519 186.746C57.484 186.696 56.8411 186.471 56.288 186.093C55.7348 185.715 55.2909 185.199 55.0009 184.595C54.7109 183.991 54.5851 183.322 54.6361 182.654L40.8995 159.512L39.7462 143.433Z" fill="#80CEDF"/>
<path d="M59.4292 113.793L55.8068 108.805L48.4616 112.218L42.3524 135.779C42.3524 135.779 37.8912 138.682 38.8429 140.73C39.7946 142.778 40.3007 144.43 39.3168 145.603C38.3329 146.776 35.4678 146.863 37.6021 148.776C39.7364 150.689 37.9093 155.688 37.9093 155.688L39.9546 160.252L52.7293 159.72L59.4292 113.793Z" fill="#00778F"/>
<path d="M349.884 186.87C349.078 186.237 348.55 185.315 348.414 184.299C348.277 183.284 348.542 182.255 349.152 181.432C349.279 181.266 349.419 181.112 349.571 180.969L344.117 168.375L349.534 163.359L355.141 181.42C355.682 182.096 355.984 182.933 355.999 183.799C356.015 184.666 355.743 185.513 355.226 186.208C354.928 186.601 354.556 186.932 354.13 187.181C353.705 187.43 353.235 187.593 352.746 187.66C352.258 187.727 351.761 187.698 351.284 187.573C350.806 187.448 350.359 187.231 349.966 186.933C349.938 186.912 349.911 186.891 349.884 186.87Z" fill="#B3E2EC"/>
<path d="M318.194 105.17C318.194 105.17 322.231 97.4949 331.598 105.783C340.965 114.072 352.034 155.559 351.819 157.119C351.604 158.679 349.315 158.062 352.211 160.308C355.107 162.553 356.708 160.536 355.107 162.553C353.505 164.571 349.925 166.708 353.095 167.008C356.266 167.308 344.643 172.308 344.643 172.308C344.643 172.308 342.815 171.869 342.254 167.652C341.939 165.283 343.007 163.938 341.128 163.543C339.249 163.149 341.01 158.865 340.74 158.191C340.469 157.517 325.466 128.079 325.466 128.079L318.194 105.17Z" fill="#33B1CC"/>
<path d="M299.754 292.613L292.971 292.613L289.744 266.453L299.755 266.454L299.754 292.613Z" fill="#B3E2EC"/>
<path d="M299.993 299.688L279.134 299.687V299.424C279.134 297.271 279.989 295.206 281.512 293.684C283.035 292.162 285.1 291.306 287.253 291.306H287.253L291.063 288.416L298.172 291.307L299.993 291.307L299.993 299.688Z" fill="#00778F"/>
<path d="M347.298 280.138L341.749 284.038L324.06 264.496L332.25 258.738L347.298 280.138Z" fill="#B3E2EC"/>
<path d="M351.563 285.788L334.5 297.784L334.348 297.568C333.11 295.807 332.622 293.626 332.992 291.505C333.361 289.384 334.559 287.497 336.32 286.258L337.774 281.703L345.252 279.979L346.742 278.932L351.563 285.788Z" fill="#00778F"/>
<path d="M326.779 162.469L327.343 163.672C331.048 171.586 331.995 180.432 330.555 189.05C330.448 189.386 330.469 189.75 330.613 190.073C331.506 191.12 330.105 195.669 329.302 198.209L328.578 202.701C328.578 202.701 329.778 206.873 327.955 206.566C326.132 206.26 328.847 210.71 327.108 211.824L322.598 239.82L341.416 270.83L334.446 280.934L306.567 245.046L306.219 212.642L302.037 238.774L301.689 279.889L289.009 278.541L284.364 238.68L288.795 183.554L295.765 159.652L326.779 162.469Z" fill="#00778F"/>
<path d="M318.068 90.6992L307.81 91.1876L302.905 99.6604C300.73 100.313 298.729 101.445 297.05 102.974C295.371 104.504 294.058 106.39 293.206 108.495L290.011 116.385L293.645 162.004C293.645 162.004 294.373 164.763 293.032 164.36C291.691 163.957 292.238 167.415 292.238 167.415L287.295 186.423L332.233 182.516L329.738 162.377C329.738 162.377 333.207 162.489 330.768 160.05C328.329 157.611 327.142 158.388 329.486 155.505C331.829 152.621 332.178 150.531 332.178 150.531L333.223 136.245L334.946 116.141C335.22 112.95 334.696 109.742 333.422 106.805C332.148 103.867 330.164 101.292 327.647 99.3119L318.068 90.6992Z" fill="#33B1CC"/>
<path d="M312.749 88.3472C305.564 88.3472 299.74 82.524 299.74 75.3406C299.74 68.1573 305.564 62.334 312.749 62.334C319.933 62.334 325.757 68.1573 325.757 75.3406C325.757 82.524 319.933 88.3472 312.749 88.3472Z" fill="#B3E2EC"/>
<path d="M317.775 87.2804C314.042 87.158 313.703 86.1721 309.97 86.0496C308.781 86.0106 307.379 85.8478 306.804 84.8067C306.637 84.4167 306.562 83.9932 306.587 83.5695C306.611 83.1458 306.733 82.7335 306.943 82.3651C307.369 81.6335 307.753 80.8784 308.093 80.1032C308.298 79.4953 308.352 78.8467 308.25 78.2134C308.148 77.58 307.893 76.9811 307.508 76.4683C307.122 75.9555 306.618 75.5442 306.038 75.2701C305.458 74.996 304.819 74.8672 304.179 74.8949C303.043 74.944 301.976 75.4781 300.843 75.5757C299.289 75.7096 295.854 70.5806 296.569 69.1952C297.265 67.8466 298.666 66.8291 298.887 65.3275C299.031 64.3453 298.625 63.3695 298.57 62.3784C298.488 60.9088 302.213 64.2223 301.531 62.9181C299.857 59.7189 315.63 55.7527 318.226 59.7601C319.197 61.2578 320.926 61.1556 322.468 62.0551C323.478 62.6446 326.029 64.6784 326.609 65.946C327.142 67.2395 327.394 68.6314 327.348 70.0296C327.372 76.5321 326.381 82.5134 321.135 86.3571" fill="#00778F"/>
<path d="M280.845 186.312C281.613 185.632 282.084 184.68 282.16 183.658C282.236 182.636 281.91 181.625 281.251 180.84C281.115 180.682 280.966 180.536 280.805 180.403L285.499 167.506L279.791 162.822L275.272 181.185C274.773 181.893 274.521 182.746 274.558 183.612C274.594 184.477 274.916 185.307 275.474 185.97C275.794 186.345 276.186 186.652 276.625 186.876C277.065 187.099 277.544 187.233 278.036 187.271C278.528 187.309 279.022 187.25 279.491 187.097C279.959 186.944 280.393 186.7 280.768 186.38C280.794 186.357 280.82 186.335 280.845 186.312Z" fill="#B3E2EC"/>
<path d="M307.602 102.865C307.602 102.865 303.113 95.445 294.257 104.278C285.402 113.111 276.83 155.185 277.137 156.729C277.445 158.273 279.694 157.52 276.937 159.935C274.18 162.349 272.462 160.431 274.18 162.349C275.899 164.268 279.601 166.188 276.454 166.677C273.307 167.165 285.207 171.462 285.207 171.462C285.207 171.462 287.006 170.915 287.314 166.672C287.487 164.289 286.341 163.01 288.193 162.503C290.045 161.997 288.032 157.826 288.261 157.137C288.491 156.448 301.71 126.167 301.71 126.167L307.602 102.865Z" fill="#33B1CC"/>
<path d="M2.80351e-06 299.987C-0.000245275 300.07 0.0159731 300.153 0.0477191 300.229C0.0794651 300.306 0.126109 300.376 0.18498 300.435C0.24385 300.494 0.313784 300.541 0.390748 300.572C0.467713 300.604 0.550195 300.62 0.633447 300.62H381.367C381.535 300.62 381.696 300.553 381.815 300.435C381.933 300.316 382 300.155 382 299.987C382 299.819 381.933 299.658 381.815 299.539C381.696 299.42 381.535 299.354 381.367 299.354H0.633447C0.550195 299.353 0.467712 299.369 0.390748 299.401C0.313785 299.433 0.243858 299.48 0.184988 299.538C0.126118 299.597 0.0794661 299.667 0.0477191 299.744C0.0159721 299.821 -0.000242449 299.904 2.80351e-06 299.987Z" fill="#E5E5E5"/>
</svg>
