<svg width="88" height="88" viewBox="0 0 88 88" fill="none" xmlns="http://www.w3.org/2000/svg">
<path fill-rule="evenodd" clip-rule="evenodd" d="M44.0007 46.3335C36.2657 46.3335 30.0007 40.0685 30.0007 32.3335C30.0007 24.5985 36.2657 18.3335 44.0007 18.3335C51.7357 18.3335 58.0007 24.5985 58.0007 32.3335C58.0007 40.0685 51.7357 46.3335 44.0007 46.3335ZM53.334 32.3335C53.334 37.4902 49.1573 41.6668 44.0007 41.6668C38.844 41.6668 34.6673 37.4902 34.6673 32.3335C34.6673 27.1768 38.844 23.0002 44.0007 23.0002C49.1573 23.0002 53.334 27.1768 53.334 32.3335Z" fill="#000091"/>
<path d="M25.334 67.3335C25.334 57.0242 33.6913 48.6668 44.0007 48.6668C54.31 48.6668 62.6673 57.0242 62.6673 67.3335H58.0007C58.0007 59.6015 51.7326 53.3335 44.0007 53.3335C36.2687 53.3335 30.0007 59.6015 30.0007 67.3335H25.334Z" fill="#000091"/>
</svg>
